<svg width="30" height="30" viewBox="0 0 30 30" fill="none" xmlns="http://www.w3.org/2000/svg">
<path d="M26.6667 -2.19876e-06C27.5833 -2.11862e-06 28.3683 0.326664 29.0217 0.979996C29.675 1.63333 30.0011 2.41778 30 3.33333L30 10L26.6667 10L26.6667 3.33333L3.33333 3.33333L3.33333 26.6667L26.6667 26.6667L26.6667 20L30 20L30 26.6667C30 27.5833 29.6733 28.3683 29.02 29.0217C28.3667 29.675 27.5822 30.0011 26.6667 30L3.33333 30C2.41666 30 1.63166 29.6733 0.978331 29.02C0.324997 28.3667 -0.00111368 27.5822 -1.61594e-06 26.6667L4.23926e-07 3.33333C5.04063e-07 2.41666 0.326666 1.63166 0.979998 0.978328C1.63333 0.324994 2.41778 -0.0011163 3.33333 -4.23862e-06L26.6667 -2.19876e-06ZM17.5 6.66666L19.8333 9.08333L15.5833 13.3333L30 13.3333L30 16.6667L15.5833 16.6667L19.8333 20.9167L17.5 23.3333L9.16667 15L17.5 6.66666Z" fill="#FDFCFA"/>
</svg>
