<svg width="56" height="56" viewBox="0 0 56 56" fill="none" xmlns="http://www.w3.org/2000/svg">
<path d="M26.6195 10.5834C26.2065 11.014 25.7464 11.4307 25.5812 11.5001C25.416 11.5834 24.6726 11.6946 23.9175 11.7501C23.0089 11.8196 22.4189 11.9446 22.1476 12.0973C21.5576 12.4584 20.1417 14.0001 16.354 18.4029L12.9558 22.3473V24.4029C12.9558 27.3196 13.121 27.6668 14.1004 26.8751C14.9263 26.2084 17.9942 22.514 18.0886 22.0696C18.1829 21.6251 17.9234 21.264 17.6048 21.389C17.475 21.4446 16.7198 22.2223 15.9175 23.139C15.1033 24.0557 14.3481 24.8057 14.2301 24.8057C14.0532 24.8057 14.0178 24.6946 14.0178 24.1668C14.0178 23.6946 14.1122 23.3751 14.3835 22.889C14.8555 22.0557 21.0384 14.7918 21.9824 13.9446C23.1623 12.9029 23.8467 12.5973 24.0001 13.0696C24.0827 13.3196 23.7759 13.8196 22.5605 15.3473C21.3924 16.8057 21.0974 17.2779 21.0974 17.6807C21.0974 18.5418 21.888 17.8751 24.59 14.7223C26.5605 12.4307 27.6343 11.0001 27.7641 10.5001C27.8349 10.2223 27.6579 9.80566 27.4573 9.80566C27.4101 9.80566 27.0207 10.1529 26.6195 10.5834Z" fill="#020A33"/>
<path d="M40.0355 9.87511C39.9765 9.90289 39.7759 9.95844 39.5989 10.0001C39.3511 10.0696 39.1977 10.3057 38.7965 11.2918C38.2773 12.5834 37.711 13.4168 37.357 13.4168C37.239 13.4168 36.9204 13.2223 36.649 13.0001C36.0945 12.5279 35.5753 12.4862 35.5163 12.9168C35.4927 13.0557 35.6579 13.5001 35.8939 13.889C36.1299 14.2918 36.3186 14.6807 36.3186 14.764C36.3186 14.8473 36.0709 15.2084 35.7641 15.5557L35.2213 16.1946L34.6549 15.5696C34.0768 14.9307 33.7346 14.8057 33.4986 15.139C33.3334 15.3751 33.4278 15.6946 33.9352 16.4723L34.3363 17.0973L33.3452 18.1946C32.8142 18.7918 32.177 19.4307 31.9293 19.6251L31.5045 19.9723L30.6313 19.5834C29.8408 19.2223 29.6284 19.1946 28.1181 19.1807C26.5251 19.1807 26.4425 19.1946 25.7582 19.5834C24.649 20.2223 23.8703 21.264 22.9853 23.264C21.9824 25.514 21.8762 25.639 20.5546 25.9584C17.0502 26.8057 15.9883 27.3334 14.8201 28.8057C13.6638 30.2501 13.2626 31.5696 13.2626 33.8334C13.2508 35.639 13.3216 35.9168 14.3717 38.4168C14.9971 39.9168 15.0089 40.0001 14.6785 40.9862C14.5841 41.2918 14.5015 41.7501 14.4897 42.014C14.4897 42.4862 14.0296 43.5834 13.7464 43.7918C13.4278 44.0279 12.9558 44.8473 12.9558 45.1529C12.9558 45.514 13.2036 45.6807 13.5222 45.5418C13.6284 45.4862 14.1358 45.1112 14.6431 44.7084C15.4337 44.0696 15.6343 43.9723 16.1299 43.9723C16.4484 43.9723 16.944 43.8473 17.2508 43.6807C17.888 43.3612 17.9234 43.3612 19.3865 44.1946C21.298 45.2779 23.0443 45.5973 24.5664 45.139C27.0797 44.3751 28.8142 41.9168 29.3452 38.3334C29.6992 35.9862 29.7936 35.6112 30.1358 35.2223C30.3245 35.014 31.1387 34.4029 31.9529 33.8751C34.4779 32.2501 35.4101 30.8751 35.5753 28.5557C35.6461 27.5001 35.3747 25.6112 34.9381 24.3334L34.6667 23.5001L35.8349 22.139C36.4956 21.3612 37.0974 20.7779 37.2272 20.7779C37.3452 20.7779 37.6284 20.9307 37.8526 21.1251C38.2773 21.5001 38.7847 21.5696 39.0089 21.3057C39.2213 21.0557 39.1859 20.9584 38.5959 20.2084L38.0532 19.514L38.6195 18.8334C38.9381 18.4446 39.2449 18.139 39.3039 18.139C39.3511 18.139 39.6461 18.3612 39.9411 18.6251C40.5428 19.1668 40.6608 19.1946 40.9912 18.9168C41.2036 18.7223 41.2036 18.6946 40.8142 17.8057C40.2242 16.4584 40.3658 16.2084 42.2655 15.2223L43.2213 14.7223V9.87511L41.6874 9.84733C40.8496 9.83344 40.1063 9.84733 40.0355 9.87511ZM42.2655 11.9862C42.4897 13.264 42.0886 14.1112 41.2626 14.1112C40.6844 14.1112 40.3776 13.9446 39.9529 13.389C39.5753 12.9029 39.5517 12.6112 39.7995 12.0279C40.0591 11.4307 40.295 11.3334 41.2744 11.3751L42.1594 11.4029L42.2655 11.9862ZM39.2921 14.4862C39.5989 14.8057 39.5517 15.2918 39.1623 15.9723C38.7139 16.7223 36.0945 20.0696 32.4956 24.4584C30.9263 26.3612 29.3452 28.3057 28.9794 28.764L28.3068 29.5973L27.4455 28.5834L26.5841 27.5834L27.7641 26.2223C28.413 25.4723 29.4278 24.3334 30.006 23.6946C30.5959 23.0557 31.5989 21.9307 32.2478 21.2084C36.767 16.139 38.5723 14.2501 38.8791 14.2501C38.9853 14.2501 39.1741 14.3473 39.2921 14.4862ZM29.8762 20.6807C30.2655 20.8473 30.5959 21.0557 30.6195 21.139C30.6431 21.2223 30.0886 21.9029 29.3924 22.6529C27.7523 24.4029 25.8526 26.6807 25.5694 27.2223C25.2626 27.8057 25.2862 28.1251 25.652 28.5696C25.8644 28.8334 25.9352 29.0279 25.8762 29.2362C25.77 29.6251 23.3393 32.5001 22.8673 32.7918C22.5605 32.9723 22.4189 33.0001 22.1947 32.8751C21.8054 32.6668 21.5104 32.6807 21.3216 32.9446C21.1918 33.1251 21.2036 33.2362 21.3806 33.6251C21.5104 33.889 21.5576 34.1946 21.5222 34.3612C21.357 34.9723 19.9647 36.4723 19.5635 36.4723C19.4573 36.4723 19.0915 36.1807 18.7375 35.8334C17.9942 35.0834 18.0414 35.0418 17.2036 36.889C16.5428 38.3057 16.3068 38.6946 16.0709 38.6946C15.8703 38.6946 15.2449 37.514 14.7611 36.1668C14.0296 34.1529 14.1122 32.3751 15.0089 30.7223C16.0237 28.8473 17.8054 27.7779 20.531 27.389C21.9942 27.1807 22.5959 26.6807 23.4691 24.9307C25.0738 21.6668 25.5222 21.0418 26.5487 20.6251C27.4455 20.264 28.9676 20.2779 29.8762 20.6807ZM34.1947 25.889C35.0325 29.0418 34.2301 31.0279 31.4809 32.6529C31.1269 32.8612 30.4779 33.3057 30.0532 33.639C29.062 34.4168 28.7434 35.0696 28.4838 36.9723C28.2714 38.514 27.9057 39.8057 27.3511 41.0418C26.7611 42.3334 26.3599 42.8057 25.3688 43.3751C24.472 43.9029 24.4484 43.9029 23.0443 43.9029C21.3216 43.9029 20.4012 43.5696 19.4573 42.639C18.7729 41.9723 19.0443 41.5557 20.6962 40.7362C22.0532 40.0696 22.0886 39.8473 21.0384 38.514C20.7434 38.1529 20.5074 37.8057 20.5074 37.7501C20.5074 37.6112 22.0296 35.7918 22.3599 35.5418C22.6195 35.3473 22.6667 35.3473 23.0915 35.6946C23.3629 35.9168 23.6107 36.0279 23.7405 35.9723C24.0355 35.8473 24.0945 35.3057 23.8703 34.8057C23.7641 34.5557 23.7051 34.2223 23.7405 34.0557C23.8113 33.7223 26.5841 30.3612 26.7847 30.3612C26.8555 30.3612 27.1977 30.5418 27.5517 30.7779C27.8939 31.0001 28.2478 31.1946 28.3422 31.1946C28.4366 31.1946 29.6874 29.764 31.1387 28.0001C32.5782 26.2501 33.8054 24.8473 33.8526 24.889C33.9116 24.9307 34.065 25.3751 34.1947 25.889ZM19.2449 38.264C19.6225 38.7223 19.9175 39.2084 19.9175 39.3473C19.9057 39.4862 19.6933 39.764 19.4101 39.9723C19.1387 40.1807 18.5487 40.6946 18.0886 41.1251C16.6608 42.4862 15.7759 42.8196 15.6933 42.0279C15.6579 41.6529 15.7523 41.4862 17.0738 39.5696C17.77 38.5557 17.9116 38.2918 18.0768 37.6807C18.1947 37.2501 18.5723 37.4307 19.2449 38.264Z" fill="#020A33"/>
<path d="M19.0561 29.6668C18.6667 29.9723 18.1712 30.2501 17.9352 30.2918C17.2626 30.4307 16.6844 30.764 16.2242 31.2779C15.7759 31.7918 15.6107 32.4862 15.8703 32.7362C16.0709 32.9446 16.6018 32.6946 16.9676 32.2223C17.2626 31.8612 17.6874 31.6807 18.5605 31.5418C19.3865 31.4029 19.7641 31.0973 20.1063 30.2779C20.6254 29.014 20.1888 28.7501 19.0561 29.6668Z" fill="#020A33"/>
<path d="M25.829 37.2918C25.4514 37.7084 24.8732 39.0001 24.8732 39.4307C24.8732 39.7918 24.5428 40.5001 24.0945 41.0973C23.6579 41.6529 23.5989 41.9723 23.8585 42.389C24.0237 42.6529 24.0355 42.6529 24.4602 42.389C25.0384 42.014 25.5222 41.2779 25.7582 40.3612C26.0768 39.1251 26.3009 38.5973 26.6549 38.1946C27.0089 37.7918 27.0915 37.3334 26.8555 37.0557C26.6195 36.7779 26.2183 36.8751 25.829 37.2918Z" fill="#020A33"/>
<path d="M19.2213 19.3057C19.0915 19.4862 19.0915 19.5834 19.2567 19.8751C19.4691 20.264 19.5871 20.2918 19.9293 20.0834C20.3186 19.8334 20.1771 19.3334 19.6697 19.1807C19.4691 19.1251 19.3157 19.1668 19.2213 19.3057Z" fill="#020A33"/>
</svg>
