<svg width="56" height="56" viewBox="0 0 56 56" fill="none" xmlns="http://www.w3.org/2000/svg">
<rect x="0.5" y="0.5" width="55" height="55" rx="11.5" fill="#FDFCFA"/>
<path d="M17.2801 16.512L17.2364 20.8622L16.7855 20.9026C16.3637 20.943 16.3201 20.9834 16.2328 21.5625C16.1164 22.3436 16.1164 23.4076 16.2328 23.677C16.3055 23.8655 16.8291 23.8925 20.5819 23.8925C24.611 23.8925 24.8582 23.9059 25.2073 24.1618C25.6728 24.4985 25.9201 24.4985 26.2546 24.1618C26.5019 23.9059 26.7055 23.8925 30.7782 23.8925C33.411 23.8925 35.0546 23.8386 35.0837 23.7578C35.1128 23.6904 35.0982 23.044 35.0546 22.3167L34.9819 20.9968L34.1091 20.8622L34.0655 16.512L34.0364 12.1753H17.3091L17.2801 16.512ZM32.9891 16.9834L33.0182 20.9295H29.6873C26.1091 20.9295 26.1819 20.943 26.1819 20.2426C26.1819 20.0271 26.0946 19.9733 25.7891 20.0137C25.4691 20.0406 25.3673 20.1349 25.3091 20.4581L25.2364 20.8622H18.5455L18.5019 17.0911C18.4873 15.017 18.5019 13.2527 18.5455 13.1585C18.5891 13.0103 20.0873 12.9834 25.7746 13.0103L32.9455 13.0507L32.9891 16.9834ZM34.1819 22.3436C34.1819 22.7207 34.1091 22.8285 33.8619 22.8824C33.6728 22.9228 29.8619 22.9362 25.3819 22.9228L17.2364 22.8824L17.1928 22.3706L17.1491 21.8723H34.1819V22.3436Z" fill="#020A33"/>
<path d="M30.8364 14.2628C30.531 14.5995 30.7201 14.9362 31.2437 14.9766C31.8691 15.0305 32.0437 14.6669 31.5782 14.3032C31.171 14.0069 31.0691 14.0069 30.8364 14.2628Z" fill="#020A33"/>
<path d="M19.7819 14.5995C19.7819 14.9766 19.8255 15.017 20.1891 14.9766C20.4946 14.9497 20.5819 14.8689 20.5819 14.5995C20.5819 14.3302 20.4946 14.2494 20.1891 14.2224C19.8255 14.182 19.7819 14.2224 19.7819 14.5995Z" fill="#020A33"/>
<path d="M37.8182 26.1282L37.4255 26.8689C37.0328 27.5558 37.0182 27.6904 37.0182 29.4817C37.0182 31.8925 37.1055 32.2965 37.6873 32.512C37.9928 32.6332 38.2982 32.6467 38.6619 32.5659C39.4182 32.3908 39.5491 31.9463 39.5491 29.576C39.5637 27.8251 39.5346 27.5962 39.2437 27.0844C38.9237 26.5322 38.9091 26.3975 38.8364 21.1315L38.7637 15.7443L38.2982 15.7039L37.8182 15.6635V26.1282ZM38.4582 28.0137C38.5891 28.3369 38.5601 31.2056 38.4146 31.4211C38.0946 31.8925 37.9637 31.3672 37.9637 29.6029C37.9637 28.1484 38.0073 27.7982 38.1673 27.7982C38.2837 27.7982 38.4146 27.8925 38.4582 28.0137Z" fill="#020A33"/>
<path d="M25.3673 25.6972C25.2073 26.0878 25.3673 26.384 25.7455 26.384C26.051 26.384 26.1091 26.3167 26.1091 25.98C26.1091 25.6568 26.0364 25.5625 25.7746 25.5356C25.5855 25.5086 25.4255 25.576 25.3673 25.6972Z" fill="#020A33"/>
<path d="M25.3819 27.6904C25.3528 27.7847 25.3091 28.3369 25.2655 28.9295C25.2219 29.7241 25.1491 30.0204 24.9601 30.1147C24.6546 30.2763 24.6546 31.0036 24.9746 31.3268C25.1928 31.5558 25.2219 32.108 25.2946 35.9867L25.3819 40.3908H26.1673L26.2255 36.0137C26.2837 32.2157 26.3273 31.5692 26.5455 31.1517C26.7782 30.6938 26.7782 30.6399 26.5455 30.2359C26.4146 29.9935 26.2691 29.3739 26.2255 28.8487C26.1382 27.9733 25.9346 27.5288 25.5855 27.5288C25.5128 27.5288 25.4255 27.6096 25.3819 27.6904Z" fill="#020A33"/>
<path d="M21.4401 30.0069C21.3964 30.1012 21.3819 30.4783 21.411 30.842C21.4546 31.4076 21.4982 31.5019 21.7746 31.5423C21.9491 31.5692 22.3564 31.4615 22.6764 31.2999C23.3891 30.9632 23.5055 30.4379 22.9237 30.2224C22.7346 30.1551 22.531 30.0339 22.4728 29.9665C22.3419 29.7511 21.5273 29.7915 21.4401 30.0069Z" fill="#020A33"/>
<path d="M25.2801 41.8992C25.091 42.2763 25.0764 42.2763 23.491 42.3167L21.891 42.3571L20.1455 43.9463C18.371 45.576 17.7601 45.98 17.091 45.98C16.7855 45.98 16.7273 46.0474 16.7273 46.3841C16.7273 46.7881 16.7273 46.7881 17.5419 46.7881H18.371L22.211 43.2864H29.2801L31.1273 44.9564C32.1455 45.8857 33.1346 46.6803 33.3382 46.7207C33.5419 46.7746 33.9491 46.7881 34.2691 46.7612C34.7346 46.7342 34.851 46.6669 34.8801 46.411C34.9091 46.2494 34.8364 46.0878 34.7346 46.0608C34.6328 46.0339 34.2691 45.9396 33.9346 45.8588C33.4546 45.7376 32.931 45.3605 31.4619 44.0271L29.6001 42.3571L28.0437 42.3436C26.4873 42.3436 26.4873 42.3436 26.2982 41.9665C26.0364 41.4548 25.5273 41.4144 25.2801 41.8992Z" fill="#020A33"/>
<path d="M25.4837 44.2696C25.3819 44.3773 25.2655 44.7544 25.2219 45.1181C25.1055 45.9127 24.9891 46.0608 24.4364 46.1686C24.0873 46.2224 24.0001 46.3167 24.0001 46.5861C24.0001 47.017 24.291 47.0844 25.891 47.0305L27.1273 46.9901V46.5861C27.1273 46.2898 27.0546 46.1686 26.8364 46.1416C26.3855 46.0608 26.3273 45.9531 26.211 45.0238C26.1091 44.1349 25.8473 43.8655 25.4837 44.2696Z" fill="#020A33"/>
<rect x="0.5" y="0.5" width="55" height="55" rx="11.5" stroke="#020A33"/>
</svg>
