<svg width="56" height="56" viewBox="0 0 56 56" fill="none" xmlns="http://www.w3.org/2000/svg">
<path d="M38.491 11.6935C37.8323 12.2269 36.8264 13.2669 33.497 16.8802C30.6347 19.9869 29.8084 20.7336 28.994 21.0002C28.2874 21.2269 28.0838 21.4802 27.8803 22.4135C27.6767 23.3335 27.3413 23.6936 26.3234 24.1069L25.4252 24.4802L25.1258 25.4269C24.7425 26.6269 24.5629 26.8535 23.6767 27.1202C22.6707 27.4402 22.3832 27.7602 22.2635 28.6936C22.2156 29.1069 22.0958 29.5469 22 29.6802C21.7844 29.9736 21.1497 30.2669 20.7545 30.2669C20.1557 30.2669 19.497 31.0269 19.497 31.7336C19.497 32.1469 19.1737 32.7869 18.6467 33.4269C18.0838 34.1069 18.0479 34.4002 18.515 34.4002C18.8144 34.4002 19.006 34.2936 19.9641 33.5736C20.6587 33.0402 22.2515 33.4669 22.2515 34.1736C22.2515 34.5069 21.8803 35.1602 21.0659 36.2669C20.2994 37.3202 19.3653 38.9602 18.7665 40.2936C18.4791 40.9469 18.1916 41.4669 18.1318 41.4669C18.0719 41.4669 17.6288 41.0402 17.1497 40.5336C16.2874 39.6269 15.8084 39.3736 15.6048 39.7336C15.497 39.9336 15.7485 40.3202 16.8024 41.5336C18.0479 42.9869 18.5389 43.6536 18.5389 43.9202C18.5389 44.2536 18.0359 44.1869 17.509 43.7602C16.5988 43.0136 14.515 40.8269 13.521 39.5469C12.1797 37.8402 11.8803 37.3469 12.0359 37.0936C12.2395 36.7202 12.3713 36.7869 13.2815 37.6002C14.2635 38.4936 14.6707 38.6002 14.6108 37.9469C14.5629 37.4402 14.8144 37.1602 15.8324 36.5869C16.7785 36.0536 17.2934 35.5736 17.1617 35.3336C17.0419 35.1336 16.5868 35.2536 15.2455 35.8802C13.988 36.4669 13.6048 36.5069 13.0898 36.1336C12.6467 35.8136 12.2755 35.8002 11.8683 36.0936C11.521 36.3469 10.8743 37.2802 10.8743 37.5336C10.8743 37.9335 15.2695 43.0402 16.9701 44.6136C17.9641 45.5336 18.4312 45.5869 19.018 44.8536C19.6288 44.0669 19.6767 43.8002 19.3054 43.0269C18.9341 42.2269 18.9701 41.9202 19.5449 40.6002C20.4431 38.4936 22.6108 35.3336 23.1497 35.3336C23.2335 35.3336 23.5449 35.4936 23.8563 35.6802C24.2156 35.9069 24.515 36.0002 24.6826 35.9469C25.485 35.7069 33.03 27.3202 33.03 26.6536C33.03 26.5336 32.8862 26.1469 32.7186 25.8002C32.515 25.3602 32.4431 25.0802 32.515 24.9202C32.5629 24.8002 32.994 24.2269 33.4491 23.6536C34.503 22.3602 34.6228 22.1735 34.5389 21.9335C34.3952 21.5202 33.9521 21.7602 32.9701 22.8002C31.6407 24.1869 31.5809 24.2135 31.1258 23.8002C30.9341 23.6136 30.7186 23.2669 30.6467 23.0269C30.3713 22.1069 30.8862 21.2002 32.9581 18.9602C34.4431 17.3602 34.7904 17.1735 35.2455 17.7335C35.3653 17.8802 35.5928 18.0002 35.7485 18.0002C36.1198 18.0002 36.1198 17.5469 35.7246 16.9069C35.5569 16.6402 35.4252 16.3602 35.4252 16.3069C35.4252 16.0935 36.6826 14.8002 36.8862 14.8002C37.0779 14.8002 38.4192 16.3335 38.4192 16.5602C38.4192 16.6135 37.8084 17.3869 37.0539 18.2669C35.6767 19.8669 35.4132 20.3069 35.6527 20.5735C35.8204 20.7602 36.4312 20.2802 37.521 19.1069C38.8623 17.6669 39.018 17.3869 39.018 16.3869C39.018 15.4402 39.0779 15.2802 39.988 14.1735C40.8982 13.0402 41.018 12.2669 40.3832 11.5602C39.9042 11.0269 39.2455 11.0669 38.491 11.6935ZM39.8323 12.1602C40.0599 12.4135 40 12.6535 39.5569 13.3469C38.982 14.2002 38.3832 14.6135 37.988 14.4135C37.497 14.1735 37.6288 13.7602 38.4671 12.8402C39.2335 12.0135 39.5569 11.8535 39.8323 12.1602ZM29.4491 21.8669C29.7605 22.0669 29.7605 22.7469 29.4371 22.9335C28.9102 23.2402 28.4312 22.3736 28.8623 21.8935C29.0419 21.6936 29.1497 21.6936 29.4491 21.8669ZM30.1916 24.3335C30.8024 24.8002 30.7665 25.1202 29.988 26.0802C29.1377 27.1335 28.8264 27.3069 28.4192 27.0135C27.7246 26.5069 27.5449 25.1069 28.0719 24.4135C28.3473 24.0402 28.4431 24.0002 29.0659 24.0002C29.5928 24.0002 29.8443 24.0802 30.1916 24.3335ZM26.7904 25.1469C27.0539 25.5202 27.018 25.8002 26.6707 26.0002C26.3473 26.2002 26.2276 26.1602 26.012 25.8002C25.8323 25.4936 25.8323 25.4402 26.012 25.1335C26.2635 24.7069 26.4791 24.7069 26.7904 25.1469ZM32.0719 26.5336C32.0719 26.6669 31.6886 27.2136 31.2335 27.7336C30.5389 28.5202 30.3353 28.6802 30.0599 28.6402C29.8084 28.6136 29.7246 28.5202 29.7006 28.2535C29.6767 28.0002 29.8323 27.7335 30.4072 27.0802C30.8264 26.6136 31.2695 26.1869 31.4012 26.1335C31.7246 26.0002 32.0719 26.2136 32.0719 26.5336ZM26.8144 27.0802C27.3054 27.2669 27.8803 27.8402 27.8803 28.1469C27.8803 28.4002 26.3832 30.0935 26.0479 30.2136C25.7605 30.3069 25.2695 29.9469 25.1258 29.5202C24.9461 28.9869 24.9821 27.9602 25.1976 27.6136C25.3892 27.3202 25.9761 26.9469 26.2755 26.9335C26.3473 26.9335 26.5868 27.0002 26.8144 27.0802ZM24.0719 28.3469C24.2515 28.7869 24.0838 29.1202 23.6527 29.1735C23.2455 29.2269 22.994 28.7202 23.1976 28.2802C23.4012 27.8802 23.8922 27.9069 24.0719 28.3469ZM29.1377 29.3335C29.3413 29.5869 29.3413 29.6136 29.006 30.1469C28.5389 30.9069 27.521 31.8669 27.1976 31.8669C26.9701 31.8669 26.9222 31.8002 26.9222 31.4136C26.9222 31.0669 27.0539 30.8002 27.485 30.2669C27.988 29.6402 28.6467 29.0669 28.8503 29.0669C28.8862 29.0669 29.018 29.1869 29.1377 29.3335ZM24.503 30.4002C25.0898 30.8002 25.2216 31.2136 24.8982 31.7202C24.5868 32.2002 23.6048 33.1869 23.2455 33.3736C22.8024 33.6002 22.4192 33.2002 22.2515 32.3602C22.0719 31.4936 22.2276 30.8136 22.6946 30.4002C23.1018 30.0402 23.9761 30.0402 24.503 30.4002ZM21.1856 31.3336C21.5569 31.5602 21.4611 31.9736 20.994 32.2269C20.6587 32.4002 20.5509 32.4136 20.3952 32.2669C20.1677 32.0536 20.1677 31.8669 20.4072 31.4936C20.6108 31.1736 20.8264 31.1202 21.1856 31.3336ZM26.4192 32.6802C26.491 33.3469 24.7545 35.1069 24.2395 34.8936C23.8443 34.7202 23.9042 34.4135 24.4192 33.7202C25.4252 32.3869 26.3353 31.9069 26.4192 32.6802Z" fill="#020A33"/>
<path d="M34.0479 19.2136C34 19.2936 34.024 19.4136 34.1078 19.4669C34.3114 19.6003 34.7306 19.4669 34.6707 19.2803C34.6108 19.0803 34.1437 19.0136 34.0479 19.2136Z" fill="#020A33"/>
<path d="M32.9341 20.5603C33.006 20.8003 33.2695 20.8403 33.2695 20.6136C33.2695 20.4936 33.1856 20.4003 33.0778 20.4003C32.9701 20.4003 32.9102 20.4669 32.9341 20.5603Z" fill="#020A33"/>
<path d="M31.8323 21.9336C31.8323 22.1469 31.9042 22.2669 32.012 22.2669C32.1198 22.2669 32.1916 22.1469 32.1916 21.9336C32.1916 21.7202 32.1198 21.6002 32.012 21.6002C31.9042 21.6002 31.8323 21.7202 31.8323 21.9336Z" fill="#020A33"/>
</svg>
