<svg width="73" height="68" viewBox="0 0 73 68" fill="none" xmlns="http://www.w3.org/2000/svg">
<rect x="0.5" y="0.5" width="72" height="67" rx="11.5" fill="#FDFCFA"/>
<path d="M25.7801 16.512L25.7364 20.8622L25.2855 20.9026C24.8637 20.943 24.8201 20.9834 24.7328 21.5625C24.6164 22.3436 24.6164 23.4076 24.7328 23.677C24.8055 23.8655 25.3291 23.8925 29.0819 23.8925C33.111 23.8925 33.3582 23.9059 33.7073 24.1618C34.1728 24.4985 34.4201 24.4985 34.7546 24.1618C35.0019 23.9059 35.2055 23.8925 39.2782 23.8925C41.911 23.8925 43.5546 23.8386 43.5837 23.7578C43.6128 23.6904 43.5982 23.044 43.5546 22.3167L43.4819 20.9968L42.6091 20.8622L42.5655 16.512L42.5364 12.1753H25.8091L25.7801 16.512ZM41.4891 16.9834L41.5182 20.9295H38.1873C34.6091 20.9295 34.6819 20.943 34.6819 20.2426C34.6819 20.0271 34.5946 19.9733 34.2891 20.0137C33.9691 20.0406 33.8673 20.1349 33.8091 20.4581L33.7364 20.8622H27.0455L27.0019 17.0911C26.9873 15.017 27.0019 13.2527 27.0455 13.1585C27.0891 13.0103 28.5873 12.9834 34.2746 13.0103L41.4455 13.0507L41.4891 16.9834ZM42.6819 22.3436C42.6819 22.7207 42.6091 22.8285 42.3619 22.8824C42.1728 22.9228 38.3619 22.9362 33.8819 22.9228L25.7364 22.8824L25.6928 22.3706L25.6491 21.8723H42.6819V22.3436Z" fill="#020A33"/>
<path d="M39.3364 14.2628C39.031 14.5995 39.2201 14.9362 39.7437 14.9766C40.3691 15.0305 40.5437 14.6669 40.0782 14.3032C39.671 14.0069 39.5691 14.0069 39.3364 14.2628Z" fill="#020A33"/>
<path d="M28.2819 14.5995C28.2819 14.9766 28.3255 15.017 28.6891 14.9766C28.9946 14.9497 29.0819 14.8689 29.0819 14.5995C29.0819 14.3302 28.9946 14.2494 28.6891 14.2224C28.3255 14.182 28.2819 14.2224 28.2819 14.5995Z" fill="#020A33"/>
<path d="M46.3182 26.1282L45.9255 26.8689C45.5328 27.5558 45.5182 27.6904 45.5182 29.4817C45.5182 31.8925 45.6055 32.2965 46.1873 32.512C46.4928 32.6332 46.7982 32.6467 47.1619 32.5659C47.9182 32.3908 48.0491 31.9463 48.0491 29.576C48.0637 27.8251 48.0346 27.5962 47.7437 27.0844C47.4237 26.5322 47.4091 26.3975 47.3364 21.1315L47.2637 15.7443L46.7982 15.7039L46.3182 15.6635V26.1282ZM46.9582 28.0137C47.0891 28.3369 47.0601 31.2056 46.9146 31.4211C46.5946 31.8925 46.4637 31.3672 46.4637 29.6029C46.4637 28.1484 46.5073 27.7982 46.6673 27.7982C46.7837 27.7982 46.9146 27.8925 46.9582 28.0137Z" fill="#020A33"/>
<path d="M33.8673 25.6972C33.7073 26.0878 33.8673 26.384 34.2455 26.384C34.551 26.384 34.6091 26.3167 34.6091 25.98C34.6091 25.6568 34.5364 25.5625 34.2746 25.5356C34.0855 25.5086 33.9255 25.576 33.8673 25.6972Z" fill="#020A33"/>
<path d="M33.8819 27.6904C33.8528 27.7847 33.8091 28.3369 33.7655 28.9295C33.7219 29.7241 33.6491 30.0204 33.4601 30.1147C33.1546 30.2763 33.1546 31.0036 33.4746 31.3268C33.6928 31.5558 33.7219 32.108 33.7946 35.9867L33.8819 40.3908H34.6673L34.7255 36.0137C34.7837 32.2157 34.8273 31.5692 35.0455 31.1517C35.2782 30.6938 35.2782 30.6399 35.0455 30.2359C34.9146 29.9935 34.7691 29.3739 34.7255 28.8487C34.6382 27.9733 34.4346 27.5288 34.0855 27.5288C34.0128 27.5288 33.9255 27.6096 33.8819 27.6904Z" fill="#020A33"/>
<path d="M29.9401 30.0069C29.8964 30.1012 29.8819 30.4783 29.911 30.842C29.9546 31.4076 29.9982 31.5019 30.2746 31.5423C30.4491 31.5692 30.8564 31.4615 31.1764 31.2999C31.8891 30.9632 32.0055 30.4379 31.4237 30.2224C31.2346 30.1551 31.031 30.0339 30.9728 29.9665C30.8419 29.7511 30.0273 29.7915 29.9401 30.0069Z" fill="#020A33"/>
<path d="M33.7801 41.8992C33.591 42.2763 33.5764 42.2763 31.991 42.3167L30.391 42.3571L28.6455 43.9463C26.871 45.576 26.2601 45.98 25.591 45.98C25.2855 45.98 25.2273 46.0474 25.2273 46.3841C25.2273 46.7881 25.2273 46.7881 26.0419 46.7881H26.871L30.711 43.2864H37.7801L39.6273 44.9564C40.6455 45.8857 41.6346 46.6803 41.8382 46.7207C42.0419 46.7746 42.4491 46.7881 42.7691 46.7612C43.2346 46.7342 43.351 46.6669 43.3801 46.411C43.4091 46.2494 43.3364 46.0878 43.2346 46.0608C43.1328 46.0339 42.7691 45.9396 42.4346 45.8588C41.9546 45.7376 41.431 45.3605 39.9619 44.0271L38.1001 42.3571L36.5437 42.3436C34.9873 42.3436 34.9873 42.3436 34.7982 41.9665C34.5364 41.4548 34.0273 41.4144 33.7801 41.8992Z" fill="#020A33"/>
<path d="M33.9837 44.2696C33.8819 44.3773 33.7655 44.7544 33.7219 45.1181C33.6055 45.9127 33.4891 46.0608 32.9364 46.1686C32.5873 46.2224 32.5001 46.3167 32.5001 46.5861C32.5001 47.017 32.791 47.0844 34.391 47.0305L35.6273 46.9901V46.5861C35.6273 46.2898 35.5546 46.1686 35.3364 46.1416C34.8855 46.0608 34.8273 45.9531 34.711 45.0238C34.6091 44.1349 34.3473 43.8655 33.9837 44.2696Z" fill="#020A33"/>
<path d="M7.78931 59.064C7.36265 59.064 6.96798 58.9947 6.60531 58.856C6.24798 58.712 5.93598 58.512 5.66931 58.256C5.40798 57.9947 5.20265 57.6907 5.05331 57.344C4.90398 56.9973 4.82931 56.616 4.82931 56.2C4.82931 55.784 4.90398 55.4027 5.05331 55.056C5.20265 54.7093 5.41065 54.408 5.67731 54.152C5.94398 53.8907 6.25598 53.6907 6.61331 53.552C6.97598 53.408 7.37065 53.336 7.79731 53.336C8.22931 53.336 8.62665 53.4107 8.98931 53.56C9.35731 53.704 9.66931 53.92 9.92531 54.208L9.40531 54.712C9.19198 54.488 8.95198 54.3227 8.68531 54.216C8.41865 54.104 8.13331 54.048 7.82931 54.048C7.51465 54.048 7.22131 54.1013 6.94931 54.208C6.68265 54.3147 6.45065 54.464 6.25331 54.656C6.05598 54.848 5.90131 55.0773 5.78931 55.344C5.68265 55.6053 5.62931 55.8907 5.62931 56.2C5.62931 56.5093 5.68265 56.7973 5.78931 57.064C5.90131 57.3253 6.05598 57.552 6.25331 57.744C6.45065 57.936 6.68265 58.0853 6.94931 58.192C7.22131 58.2987 7.51465 58.352 7.82931 58.352C8.13331 58.352 8.41865 58.2987 8.68531 58.192C8.95198 58.08 9.19198 57.9093 9.40531 57.68L9.92531 58.184C9.66931 58.472 9.35731 58.6907 8.98931 58.84C8.62665 58.9893 8.22665 59.064 7.78931 59.064ZM13.2186 54.72C13.5652 54.72 13.8692 54.7867 14.1306 54.92C14.3972 55.0533 14.6052 55.256 14.7546 55.528C14.9039 55.8 14.9786 56.144 14.9786 56.56V59H14.2106V56.648C14.2106 56.2373 14.1092 55.928 13.9066 55.72C13.7092 55.512 13.4292 55.408 13.0666 55.408C12.7946 55.408 12.5572 55.4613 12.3546 55.568C12.1519 55.6747 11.9946 55.832 11.8826 56.04C11.7759 56.248 11.7226 56.5067 11.7226 56.816V59H10.9546V53.064H11.7226V55.904L11.5706 55.6C11.7092 55.3227 11.9226 55.1067 12.2106 54.952C12.4986 54.7973 12.8346 54.72 13.2186 54.72ZM19.0319 59V58.104L18.9919 57.936V56.408C18.9919 56.0827 18.8959 55.832 18.7039 55.656C18.5172 55.4747 18.2345 55.384 17.8559 55.384C17.6052 55.384 17.3599 55.4267 17.1199 55.512C16.8799 55.592 16.6772 55.7013 16.5119 55.84L16.1919 55.264C16.4105 55.088 16.6719 54.9547 16.9759 54.864C17.2852 54.768 17.6079 54.72 17.9439 54.72C18.5252 54.72 18.9732 54.8613 19.2879 55.144C19.6025 55.4267 19.7599 55.8587 19.7599 56.44V59H19.0319ZM17.6399 59.048C17.3252 59.048 17.0479 58.9947 16.8079 58.888C16.5732 58.7813 16.3919 58.6347 16.2639 58.448C16.1359 58.256 16.0719 58.04 16.0719 57.8C16.0719 57.5707 16.1252 57.3627 16.2319 57.176C16.3439 56.9893 16.5225 56.84 16.7679 56.728C17.0185 56.616 17.3545 56.56 17.7759 56.56H19.1199V57.112H17.8079C17.4239 57.112 17.1652 57.176 17.0319 57.304C16.8985 57.432 16.8319 57.5867 16.8319 57.768C16.8319 57.976 16.9145 58.144 17.0799 58.272C17.2452 58.3947 17.4745 58.456 17.7679 58.456C18.0559 58.456 18.3065 58.392 18.5199 58.264C18.7385 58.136 18.8959 57.9493 18.9919 57.704L19.1439 58.232C19.0425 58.4827 18.8639 58.6827 18.6079 58.832C18.3519 58.976 18.0292 59.048 17.6399 59.048ZM26.4851 54.72C26.8265 54.72 27.1278 54.7867 27.3891 54.92C27.6505 55.0533 27.8531 55.256 27.9971 55.528C28.1465 55.8 28.2211 56.144 28.2211 56.56V59H27.4531V56.648C27.4531 56.2373 27.3571 55.928 27.1651 55.72C26.9731 55.512 26.7038 55.408 26.3571 55.408C26.1011 55.408 25.8771 55.4613 25.6851 55.568C25.4931 55.6747 25.3438 55.832 25.2371 56.04C25.1358 56.248 25.0851 56.5067 25.0851 56.816V59H24.3171V56.648C24.3171 56.2373 24.2211 55.928 24.0291 55.72C23.8425 55.512 23.5731 55.408 23.2211 55.408C22.9705 55.408 22.7491 55.4613 22.5571 55.568C22.3651 55.6747 22.2158 55.832 22.1091 56.04C22.0025 56.248 21.9491 56.5067 21.9491 56.816V59H21.1811V54.76H21.9171V55.888L21.7971 55.6C21.9305 55.3227 22.1358 55.1067 22.4131 54.952C22.6905 54.7973 23.0131 54.72 23.3811 54.72C23.7865 54.72 24.1358 54.8213 24.4291 55.024C24.7225 55.2213 24.9145 55.5227 25.0051 55.928L24.6931 55.8C24.8211 55.4747 25.0451 55.2133 25.3651 55.016C25.6851 54.8187 26.0585 54.72 26.4851 54.72ZM31.8823 59.048C31.5196 59.048 31.1916 58.968 30.8983 58.808C30.6103 58.6427 30.3809 58.4 30.2103 58.08C30.0449 57.76 29.9622 57.36 29.9622 56.88C29.9622 56.4 30.0476 56 30.2183 55.68C30.3943 55.36 30.6263 55.12 30.9143 54.96C31.2076 54.8 31.5303 54.72 31.8823 54.72C32.2983 54.72 32.6663 54.8107 32.9863 54.992C33.3063 55.1733 33.5596 55.4267 33.7463 55.752C33.9329 56.072 34.0263 56.448 34.0263 56.88C34.0263 57.312 33.9329 57.6907 33.7463 58.016C33.5596 58.3413 33.3063 58.5947 32.9863 58.776C32.6663 58.9573 32.2983 59.048 31.8823 59.048ZM29.6343 59V53.064H30.4023V55.888L30.3223 56.872L30.3703 57.856V59H29.6343ZM31.8183 58.376C32.0903 58.376 32.3329 58.3147 32.5463 58.192C32.7649 58.0693 32.9356 57.896 33.0583 57.672C33.1863 57.4427 33.2503 57.1787 33.2503 56.88C33.2503 56.576 33.1863 56.3147 33.0583 56.096C32.9356 55.872 32.7649 55.6987 32.5463 55.576C32.3329 55.4533 32.0903 55.392 31.8183 55.392C31.5516 55.392 31.3089 55.4533 31.0903 55.576C30.8769 55.6987 30.7063 55.872 30.5783 56.096C30.4556 56.3147 30.3943 56.576 30.3943 56.88C30.3943 57.1787 30.4556 57.4427 30.5783 57.672C30.7063 57.896 30.8769 58.0693 31.0903 58.192C31.3089 58.3147 31.5516 58.376 31.8183 58.376ZM36.9754 59.048C36.522 59.048 36.122 58.9547 35.7754 58.768C35.434 58.5813 35.1674 58.3253 34.9754 58C34.7887 57.6747 34.6954 57.3013 34.6954 56.88C34.6954 56.4587 34.786 56.0853 34.9674 55.76C35.154 55.4347 35.4074 55.1813 35.7274 55C36.0527 54.8133 36.418 54.72 36.8234 54.72C37.234 54.72 37.5967 54.8107 37.9114 54.992C38.226 55.1733 38.4714 55.4293 38.6474 55.76C38.8287 56.0853 38.9194 56.4667 38.9194 56.904C38.9194 56.936 38.9167 56.9733 38.9114 57.016C38.9114 57.0587 38.9087 57.0987 38.9034 57.136H35.2954V56.584H38.5034L38.1914 56.776C38.1967 56.504 38.1407 56.2613 38.0234 56.048C37.906 55.8347 37.7434 55.6693 37.5354 55.552C37.3327 55.4293 37.0954 55.368 36.8234 55.368C36.5567 55.368 36.3194 55.4293 36.1114 55.552C35.9034 55.6693 35.7407 55.8373 35.6234 56.056C35.506 56.2693 35.4474 56.5147 35.4474 56.792V56.92C35.4474 57.2027 35.5114 57.456 35.6394 57.68C35.7727 57.8987 35.9567 58.0693 36.1914 58.192C36.426 58.3147 36.6954 58.376 36.9994 58.376C37.25 58.376 37.4767 58.3333 37.6794 58.248C37.8874 58.1627 38.0687 58.0347 38.2234 57.864L38.6474 58.36C38.4554 58.584 38.2154 58.7547 37.9274 58.872C37.6447 58.9893 37.3274 59.048 36.9754 59.048ZM39.9858 59V54.76H40.7218V55.912L40.6498 55.624C40.7671 55.3307 40.9645 55.1067 41.2418 54.952C41.5191 54.7973 41.8605 54.72 42.2658 54.72V55.464C42.2338 55.4587 42.2018 55.456 42.1698 55.456C42.1431 55.456 42.1165 55.456 42.0898 55.456C41.6791 55.456 41.3538 55.5787 41.1138 55.824C40.8738 56.0693 40.7538 56.424 40.7538 56.888V59H39.9858ZM45.5275 59V53.4H46.1835L48.6955 57.632H48.3435L50.8235 53.4H51.4795L51.4875 59H50.7195L50.7115 54.608H50.8955L48.6875 58.32H48.3195L46.0955 54.608H46.2955V59H45.5275ZM54.8401 59.048C54.4775 59.048 54.1575 58.9813 53.8801 58.848C53.6081 58.7147 53.3948 58.512 53.2401 58.24C53.0908 57.9627 53.0161 57.616 53.0161 57.2V54.76H53.7841V57.112C53.7841 57.528 53.8828 57.84 54.0801 58.048C54.2828 58.256 54.5655 58.36 54.9281 58.36C55.1948 58.36 55.4268 58.3067 55.6241 58.2C55.8215 58.088 55.9735 57.928 56.0801 57.72C56.1868 57.5067 56.2401 57.2507 56.2401 56.952V54.76H57.0081V59H56.2801V57.856L56.4001 58.16C56.2615 58.4427 56.0535 58.6613 55.7761 58.816C55.4988 58.9707 55.1868 59.048 54.8401 59.048ZM59.6862 59.048C59.3342 59.048 58.9982 59 58.6782 58.904C58.3635 58.808 58.1155 58.6907 57.9342 58.552L58.2542 57.944C58.4355 58.0667 58.6595 58.1707 58.9262 58.256C59.1929 58.3413 59.4649 58.384 59.7422 58.384C60.0995 58.384 60.3555 58.3333 60.5102 58.232C60.6702 58.1307 60.7502 57.9893 60.7502 57.808C60.7502 57.6747 60.7022 57.5707 60.6062 57.496C60.5102 57.4213 60.3822 57.3653 60.2222 57.328C60.0675 57.2907 59.8942 57.2587 59.7022 57.232C59.5102 57.2 59.3182 57.1627 59.1262 57.12C58.9342 57.072 58.7582 57.008 58.5982 56.928C58.4382 56.8427 58.3102 56.728 58.2142 56.584C58.1182 56.4347 58.0702 56.2373 58.0702 55.992C58.0702 55.736 58.1422 55.512 58.2862 55.32C58.4302 55.128 58.6329 54.9813 58.8942 54.88C59.1609 54.7733 59.4755 54.72 59.8382 54.72C60.1155 54.72 60.3955 54.7547 60.6782 54.824C60.9662 54.888 61.2009 54.9813 61.3822 55.104L61.0542 55.712C60.8622 55.584 60.6622 55.496 60.4542 55.448C60.2462 55.4 60.0382 55.376 59.8302 55.376C59.4942 55.376 59.2435 55.432 59.0782 55.544C58.9129 55.6507 58.8302 55.7893 58.8302 55.96C58.8302 56.104 58.8782 56.216 58.9742 56.296C59.0755 56.3707 59.2035 56.4293 59.3582 56.472C59.5182 56.5147 59.6942 56.552 59.8862 56.584C60.0782 56.6107 60.2702 56.648 60.4622 56.696C60.6542 56.7387 60.8275 56.8 60.9822 56.88C61.1422 56.96 61.2702 57.072 61.3662 57.216C61.4675 57.36 61.5182 57.552 61.5182 57.792C61.5182 58.048 61.4435 58.2693 61.2942 58.456C61.1449 58.6427 60.9342 58.7893 60.6622 58.896C60.3902 58.9973 60.0649 59.048 59.6862 59.048ZM62.478 59V54.76H63.246V59H62.478ZM62.862 53.944C62.7127 53.944 62.5873 53.896 62.486 53.8C62.39 53.704 62.342 53.5867 62.342 53.448C62.342 53.304 62.39 53.184 62.486 53.088C62.5873 52.992 62.7127 52.944 62.862 52.944C63.0113 52.944 63.134 52.992 63.23 53.088C63.3313 53.1787 63.382 53.2933 63.382 53.432C63.382 53.576 63.334 53.6987 63.238 53.8C63.142 53.896 63.0167 53.944 62.862 53.944ZM66.5604 59.048C66.1284 59.048 65.7417 58.9547 65.4004 58.768C65.0644 58.5813 64.8004 58.3253 64.6084 58C64.4164 57.6747 64.3204 57.3013 64.3204 56.88C64.3204 56.4587 64.4164 56.0853 64.6084 55.76C64.8004 55.4347 65.0644 55.1813 65.4004 55C65.7417 54.8133 66.1284 54.72 66.5604 54.72C66.9444 54.72 67.2857 54.7973 67.5844 54.952C67.8884 55.1013 68.123 55.3253 68.2884 55.624L67.7044 56C67.5657 55.792 67.395 55.64 67.1924 55.544C66.995 55.4427 66.7817 55.392 66.5524 55.392C66.275 55.392 66.027 55.4533 65.8084 55.576C65.5897 55.6987 65.4164 55.872 65.2884 56.096C65.1604 56.3147 65.0964 56.576 65.0964 56.88C65.0964 57.184 65.1604 57.448 65.2884 57.672C65.4164 57.896 65.5897 58.0693 65.8084 58.192C66.027 58.3147 66.275 58.376 66.5524 58.376C66.7817 58.376 66.995 58.328 67.1924 58.232C67.395 58.1307 67.5657 57.976 67.7044 57.768L68.2884 58.136C68.123 58.4293 67.8884 58.656 67.5844 58.816C67.2857 58.9707 66.9444 59.048 66.5604 59.048Z" fill="#495057"/>
<rect x="0.5" y="0.5" width="72" height="67" rx="11.5" stroke="#020A33"/>
</svg>
