<svg width="56" height="68" viewBox="0 0 56 68" fill="none" xmlns="http://www.w3.org/2000/svg">
<rect x="0.5" y="0.5" width="55" height="67" rx="11.5" fill="#FDFCFA"/>
<path d="M38.491 11.6935C37.8323 12.2269 36.8264 13.2669 33.497 16.8802C30.6347 19.9869 29.8084 20.7336 28.994 21.0002C28.2874 21.2269 28.0838 21.4802 27.8803 22.4135C27.6767 23.3335 27.3413 23.6936 26.3234 24.1069L25.4252 24.4802L25.1258 25.4269C24.7425 26.6269 24.5629 26.8535 23.6767 27.1202C22.6707 27.4402 22.3832 27.7602 22.2635 28.6936C22.2156 29.1069 22.0958 29.5469 22 29.6802C21.7844 29.9736 21.1497 30.2669 20.7545 30.2669C20.1557 30.2669 19.497 31.0269 19.497 31.7336C19.497 32.1469 19.1737 32.7869 18.6467 33.4269C18.0838 34.1069 18.0479 34.4002 18.515 34.4002C18.8144 34.4002 19.006 34.2936 19.9641 33.5736C20.6587 33.0402 22.2515 33.4669 22.2515 34.1736C22.2515 34.5069 21.8803 35.1602 21.0659 36.2669C20.2994 37.3202 19.3653 38.9602 18.7665 40.2936C18.4791 40.9469 18.1916 41.4669 18.1318 41.4669C18.0719 41.4669 17.6288 41.0402 17.1497 40.5336C16.2874 39.6269 15.8084 39.3736 15.6048 39.7336C15.497 39.9336 15.7485 40.3202 16.8024 41.5336C18.0479 42.9869 18.5389 43.6536 18.5389 43.9202C18.5389 44.2536 18.0359 44.1869 17.509 43.7602C16.5988 43.0136 14.515 40.8269 13.521 39.5469C12.1797 37.8402 11.8803 37.3469 12.0359 37.0936C12.2395 36.7202 12.3713 36.7869 13.2815 37.6002C14.2635 38.4936 14.6707 38.6002 14.6108 37.9469C14.5629 37.4402 14.8144 37.1602 15.8324 36.5869C16.7785 36.0536 17.2934 35.5736 17.1617 35.3336C17.0419 35.1336 16.5868 35.2536 15.2455 35.8802C13.988 36.4669 13.6048 36.5069 13.0898 36.1336C12.6467 35.8136 12.2755 35.8002 11.8683 36.0936C11.521 36.3469 10.8743 37.2802 10.8743 37.5336C10.8743 37.9335 15.2695 43.0402 16.9701 44.6136C17.9641 45.5336 18.4312 45.5869 19.018 44.8536C19.6288 44.0669 19.6767 43.8002 19.3054 43.0269C18.9341 42.2269 18.9701 41.9202 19.5449 40.6002C20.4431 38.4936 22.6108 35.3336 23.1497 35.3336C23.2335 35.3336 23.5449 35.4936 23.8563 35.6802C24.2156 35.9069 24.515 36.0002 24.6826 35.9469C25.485 35.7069 33.03 27.3202 33.03 26.6536C33.03 26.5336 32.8862 26.1469 32.7186 25.8002C32.515 25.3602 32.4431 25.0802 32.515 24.9202C32.5629 24.8002 32.994 24.2269 33.4491 23.6536C34.503 22.3602 34.6228 22.1735 34.5389 21.9335C34.3952 21.5202 33.9521 21.7602 32.9701 22.8002C31.6407 24.1869 31.5809 24.2135 31.1258 23.8002C30.9341 23.6136 30.7186 23.2669 30.6467 23.0269C30.3713 22.1069 30.8862 21.2002 32.9581 18.9602C34.4431 17.3602 34.7904 17.1735 35.2455 17.7335C35.3653 17.8802 35.5928 18.0002 35.7485 18.0002C36.1198 18.0002 36.1198 17.5469 35.7246 16.9069C35.5569 16.6402 35.4252 16.3602 35.4252 16.3069C35.4252 16.0935 36.6826 14.8002 36.8862 14.8002C37.0779 14.8002 38.4192 16.3335 38.4192 16.5602C38.4192 16.6135 37.8084 17.3869 37.0539 18.2669C35.6767 19.8669 35.4132 20.3069 35.6527 20.5735C35.8204 20.7602 36.4312 20.2802 37.521 19.1069C38.8623 17.6669 39.018 17.3869 39.018 16.3869C39.018 15.4402 39.0779 15.2802 39.988 14.1735C40.8982 13.0402 41.018 12.2669 40.3832 11.5602C39.9042 11.0269 39.2455 11.0669 38.491 11.6935ZM39.8323 12.1602C40.0599 12.4135 40 12.6535 39.5569 13.3469C38.982 14.2002 38.3832 14.6135 37.988 14.4135C37.497 14.1735 37.6288 13.7602 38.4671 12.8402C39.2335 12.0135 39.5569 11.8535 39.8323 12.1602ZM29.4491 21.8669C29.7605 22.0669 29.7605 22.7469 29.4371 22.9335C28.9102 23.2402 28.4312 22.3736 28.8623 21.8935C29.0419 21.6936 29.1497 21.6936 29.4491 21.8669ZM30.1916 24.3335C30.8024 24.8002 30.7665 25.1202 29.988 26.0802C29.1377 27.1335 28.8264 27.3069 28.4192 27.0135C27.7246 26.5069 27.5449 25.1069 28.0719 24.4135C28.3473 24.0402 28.4431 24.0002 29.0659 24.0002C29.5928 24.0002 29.8443 24.0802 30.1916 24.3335ZM26.7904 25.1469C27.0539 25.5202 27.018 25.8002 26.6707 26.0002C26.3473 26.2002 26.2276 26.1602 26.012 25.8002C25.8323 25.4936 25.8323 25.4402 26.012 25.1335C26.2635 24.7069 26.4791 24.7069 26.7904 25.1469ZM32.0719 26.5336C32.0719 26.6669 31.6886 27.2136 31.2335 27.7336C30.5389 28.5202 30.3353 28.6802 30.0599 28.6402C29.8084 28.6136 29.7246 28.5202 29.7006 28.2535C29.6767 28.0002 29.8323 27.7335 30.4072 27.0802C30.8264 26.6136 31.2695 26.1869 31.4012 26.1335C31.7246 26.0002 32.0719 26.2136 32.0719 26.5336ZM26.8144 27.0802C27.3054 27.2669 27.8803 27.8402 27.8803 28.1469C27.8803 28.4002 26.3832 30.0935 26.0479 30.2136C25.7605 30.3069 25.2695 29.9469 25.1258 29.5202C24.9461 28.9869 24.9821 27.9602 25.1976 27.6136C25.3892 27.3202 25.9761 26.9469 26.2755 26.9335C26.3473 26.9335 26.5868 27.0002 26.8144 27.0802ZM24.0719 28.3469C24.2515 28.7869 24.0838 29.1202 23.6527 29.1735C23.2455 29.2269 22.994 28.7202 23.1976 28.2802C23.4012 27.8802 23.8922 27.9069 24.0719 28.3469ZM29.1377 29.3335C29.3413 29.5869 29.3413 29.6136 29.006 30.1469C28.5389 30.9069 27.521 31.8669 27.1976 31.8669C26.9701 31.8669 26.9222 31.8002 26.9222 31.4136C26.9222 31.0669 27.0539 30.8002 27.485 30.2669C27.988 29.6402 28.6467 29.0669 28.8503 29.0669C28.8862 29.0669 29.018 29.1869 29.1377 29.3335ZM24.503 30.4002C25.0898 30.8002 25.2216 31.2136 24.8982 31.7202C24.5868 32.2002 23.6048 33.1869 23.2455 33.3736C22.8024 33.6002 22.4192 33.2002 22.2515 32.3602C22.0719 31.4936 22.2276 30.8136 22.6946 30.4002C23.1018 30.0402 23.9761 30.0402 24.503 30.4002ZM21.1856 31.3336C21.5569 31.5602 21.4611 31.9736 20.994 32.2269C20.6587 32.4002 20.5509 32.4136 20.3952 32.2669C20.1677 32.0536 20.1677 31.8669 20.4072 31.4936C20.6108 31.1736 20.8264 31.1202 21.1856 31.3336ZM26.4192 32.6802C26.491 33.3469 24.7545 35.1069 24.2395 34.8936C23.8443 34.7202 23.9042 34.4135 24.4192 33.7202C25.4252 32.3869 26.3353 31.9069 26.4192 32.6802Z" fill="#020A33"/>
<path d="M34.0479 19.2136C34 19.2936 34.024 19.4136 34.1078 19.4669C34.3114 19.6003 34.7306 19.4669 34.6707 19.2803C34.6108 19.0803 34.1437 19.0136 34.0479 19.2136Z" fill="#020A33"/>
<path d="M32.9341 20.5603C33.006 20.8003 33.2695 20.8403 33.2695 20.6136C33.2695 20.4936 33.1856 20.4003 33.0778 20.4003C32.9701 20.4003 32.9102 20.4669 32.9341 20.5603Z" fill="#020A33"/>
<path d="M31.8323 21.9336C31.8323 22.1469 31.9042 22.2669 32.012 22.2669C32.1198 22.2669 32.1916 22.1469 32.1916 21.9336C32.1916 21.7202 32.1198 21.6002 32.012 21.6002C31.9042 21.6002 31.8323 21.7202 31.8323 21.9336Z" fill="#020A33"/>
<path d="M15.387 59.064C14.9603 59.064 14.5656 58.9947 14.203 58.856C13.8456 58.712 13.5336 58.512 13.267 58.256C13.0056 57.9947 12.8003 57.6907 12.651 57.344C12.5016 56.9973 12.427 56.616 12.427 56.2C12.427 55.784 12.5016 55.4027 12.651 55.056C12.8003 54.7093 13.0083 54.408 13.275 54.152C13.5416 53.8907 13.8536 53.6907 14.211 53.552C14.5736 53.408 14.9683 53.336 15.395 53.336C15.827 53.336 16.2243 53.4107 16.587 53.56C16.955 53.704 17.267 53.92 17.523 54.208L17.003 54.712C16.7896 54.488 16.5496 54.3227 16.283 54.216C16.0163 54.104 15.731 54.048 15.427 54.048C15.1123 54.048 14.819 54.1013 14.547 54.208C14.2803 54.3147 14.0483 54.464 13.851 54.656C13.6536 54.848 13.499 55.0773 13.387 55.344C13.2803 55.6053 13.227 55.8907 13.227 56.2C13.227 56.5093 13.2803 56.7973 13.387 57.064C13.499 57.3253 13.6536 57.552 13.851 57.744C14.0483 57.936 14.2803 58.0853 14.547 58.192C14.819 58.2987 15.1123 58.352 15.427 58.352C15.731 58.352 16.0163 58.2987 16.283 58.192C16.5496 58.08 16.7896 57.9093 17.003 57.68L17.523 58.184C17.267 58.472 16.955 58.6907 16.587 58.84C16.2243 58.9893 15.8243 59.064 15.387 59.064ZM18.5522 59V53.064H19.3202V59H18.5522ZM23.4186 59V58.104L23.3786 57.936V56.408C23.3786 56.0827 23.2826 55.832 23.0906 55.656C22.9039 55.4747 22.6213 55.384 22.2426 55.384C21.9919 55.384 21.7466 55.4267 21.5066 55.512C21.2666 55.592 21.0639 55.7013 20.8986 55.84L20.5786 55.264C20.7973 55.088 21.0586 54.9547 21.3626 54.864C21.6719 54.768 21.9946 54.72 22.3306 54.72C22.9119 54.72 23.3599 54.8613 23.6746 55.144C23.9893 55.4267 24.1466 55.8587 24.1466 56.44V59H23.4186ZM22.0266 59.048C21.7119 59.048 21.4346 58.9947 21.1946 58.888C20.9599 58.7813 20.7786 58.6347 20.6506 58.448C20.5226 58.256 20.4586 58.04 20.4586 57.8C20.4586 57.5707 20.5119 57.3627 20.6186 57.176C20.7306 56.9893 20.9093 56.84 21.1546 56.728C21.4053 56.616 21.7413 56.56 22.1626 56.56H23.5066V57.112H22.1946C21.8106 57.112 21.5519 57.176 21.4186 57.304C21.2853 57.432 21.2186 57.5867 21.2186 57.768C21.2186 57.976 21.3013 58.144 21.4666 58.272C21.6319 58.3947 21.8613 58.456 22.1546 58.456C22.4426 58.456 22.6933 58.392 22.9066 58.264C23.1253 58.136 23.2826 57.9493 23.3786 57.704L23.5306 58.232C23.4293 58.4827 23.2506 58.6827 22.9946 58.832C22.7386 58.976 22.4159 59.048 22.0266 59.048ZM25.5678 59V54.76H26.3038V55.912L26.2318 55.624C26.3492 55.3307 26.5465 55.1067 26.8238 54.952C27.1012 54.7973 27.4425 54.72 27.8478 54.72V55.464C27.8158 55.4587 27.7838 55.456 27.7518 55.456C27.7252 55.456 27.6985 55.456 27.6718 55.456C27.2612 55.456 26.9358 55.5787 26.6958 55.824C26.4558 56.0693 26.3358 56.424 26.3358 56.888V59H25.5678ZM28.7944 59V54.76H29.5624V59H28.7944ZM29.1784 53.944C29.0291 53.944 28.9037 53.896 28.8024 53.8C28.7064 53.704 28.6584 53.5867 28.6584 53.448C28.6584 53.304 28.7064 53.184 28.8024 53.088C28.9037 52.992 29.0291 52.944 29.1784 52.944C29.3277 52.944 29.4504 52.992 29.5464 53.088C29.6477 53.1787 29.6984 53.2933 29.6984 53.432C29.6984 53.576 29.6504 53.6987 29.5544 53.8C29.4584 53.896 29.3331 53.944 29.1784 53.944ZM33.2928 54.72C33.6394 54.72 33.9434 54.7867 34.2048 54.92C34.4714 55.0533 34.6794 55.256 34.8288 55.528C34.9781 55.8 35.0528 56.144 35.0528 56.56V59H34.2848V56.648C34.2848 56.2373 34.1834 55.928 33.9808 55.72C33.7834 55.512 33.5034 55.408 33.1408 55.408C32.8688 55.408 32.6314 55.4613 32.4288 55.568C32.2261 55.6747 32.0688 55.832 31.9568 56.04C31.8501 56.248 31.7968 56.5067 31.7968 56.816V59H31.0288V54.76H31.7648V55.904L31.6448 55.6C31.7834 55.3227 31.9968 55.1067 32.2848 54.952C32.5728 54.7973 32.9088 54.72 33.2928 54.72ZM38.3621 59.048C37.9088 59.048 37.5088 58.9547 37.1621 58.768C36.8208 58.5813 36.5541 58.3253 36.3621 58C36.1754 57.6747 36.0821 57.3013 36.0821 56.88C36.0821 56.4587 36.1728 56.0853 36.3541 55.76C36.5408 55.4347 36.7941 55.1813 37.1141 55C37.4394 54.8133 37.8048 54.72 38.2101 54.72C38.6208 54.72 38.9834 54.8107 39.2981 54.992C39.6128 55.1733 39.8581 55.4293 40.0341 55.76C40.2154 56.0853 40.3061 56.4667 40.3061 56.904C40.3061 56.936 40.3034 56.9733 40.2981 57.016C40.2981 57.0587 40.2954 57.0987 40.2901 57.136H36.6821V56.584H39.8901L39.5781 56.776C39.5834 56.504 39.5274 56.2613 39.4101 56.048C39.2928 55.8347 39.1301 55.6693 38.9221 55.552C38.7194 55.4293 38.4821 55.368 38.2101 55.368C37.9434 55.368 37.7061 55.4293 37.4981 55.552C37.2901 55.6693 37.1274 55.8373 37.0101 56.056C36.8928 56.2693 36.8341 56.5147 36.8341 56.792V56.92C36.8341 57.2027 36.8981 57.456 37.0261 57.68C37.1594 57.8987 37.3434 58.0693 37.5781 58.192C37.8128 58.3147 38.0821 58.376 38.3861 58.376C38.6368 58.376 38.8634 58.3333 39.0661 58.248C39.2741 58.1627 39.4554 58.0347 39.6101 57.864L40.0341 58.36C39.8421 58.584 39.6021 58.7547 39.3141 58.872C39.0314 58.9893 38.7141 59.048 38.3621 59.048ZM42.8285 59.048C42.4019 59.048 42.0712 58.9333 41.8365 58.704C41.6019 58.4747 41.4845 58.1467 41.4845 57.72V53.832H42.2525V57.688C42.2525 57.9173 42.3085 58.0933 42.4205 58.216C42.5379 58.3387 42.7032 58.4 42.9165 58.4C43.1565 58.4 43.3565 58.3333 43.5165 58.2L43.7565 58.752C43.6392 58.8533 43.4979 58.928 43.3325 58.976C43.1725 59.024 43.0045 59.048 42.8285 59.048ZM40.7645 55.392V54.76H43.4685V55.392H40.7645Z" fill="#495057"/>
<rect x="0.5" y="0.5" width="55" height="67" rx="11.5" stroke="#020A33"/>
</svg>
