<svg width="56" height="68" viewBox="0 0 56 68" fill="none" xmlns="http://www.w3.org/2000/svg">
<path d="M41.1179 10.5917C40.6869 10.7466 37.4007 12.7748 35.4074 14.1269C35.0438 14.3663 34.5186 14.8452 34.2627 15.1692C34.0068 15.479 33.6027 15.972 33.3872 16.2537C33.064 16.648 32.8216 16.7889 32.3098 16.8875C31.798 16.9861 31.5017 17.1551 31.1246 17.5635C30.6667 18.0283 30.5859 18.2114 30.5051 18.9579C30.4512 19.4368 30.3165 19.9297 30.2088 20.0706C30.101 20.2114 29.7239 20.6621 29.3738 21.0846C28.7273 21.8452 28.5792 22.31 28.9428 22.4508C29.1987 22.5635 29.9664 22.0142 30.6936 21.2396C30.9765 20.9297 31.2862 20.6762 31.367 20.6762C31.4479 20.6762 32.1617 21.3522 32.9563 22.1973L34.3973 23.7044L31.2189 27.0142C27.5287 30.8593 24.8351 33.8593 24.8351 34.141C24.8351 34.8734 26.1549 33.7466 30.4782 29.31C32.4984 27.2396 34.4243 25.3382 34.7475 25.0987C35.1381 24.817 35.5825 24.6199 36.027 24.5635C36.9563 24.4368 37.5758 23.8311 37.8317 22.7889C37.9798 22.1832 38.1549 21.8875 38.5994 21.4649C40.0808 20.0706 40.4175 19.6339 41.8317 17.1692C43.4883 14.2818 43.8923 13.3241 43.7846 12.3945C43.7172 11.6903 43.0977 10.9156 42.3839 10.5917C41.8586 10.3523 41.7374 10.3523 41.1179 10.5917ZM42.7206 12.141C43.367 12.8734 43.3805 12.803 42.4782 14.1973C41.8586 15.1692 40.3233 17.7889 40.0539 18.3522C39.8115 18.8734 38.101 20.6762 37.5893 20.9438L37.2122 21.1551L35.5421 19.4086C34.5994 18.4368 33.8586 17.5353 33.8586 17.3945C33.8586 17.2537 34.3569 16.6199 34.9765 15.9861C35.798 15.1269 36.5253 14.5635 37.7644 13.7889C38.6936 13.2114 39.8384 12.4649 40.3098 12.1128C41.7509 11.0846 41.7913 11.0846 42.7206 12.141ZM34.2492 19.648C36.3098 21.817 36.8889 22.6058 36.7542 23.0565C36.633 23.479 35.9462 23.4368 35.3536 22.972C33.9664 21.8875 31.5691 19.1692 31.5691 18.6762C31.5691 18.4086 32.0808 17.7184 32.2694 17.7184C32.3502 17.7184 33.2391 18.5917 34.2492 19.648Z" fill="#020A33"/>
<path d="M37.8721 15.1551C37.2256 15.8593 37.0505 16.2537 37.1448 16.7748C37.266 17.4086 37.6027 17.7184 38.128 17.7184C38.4916 17.7184 38.734 17.5776 39.2593 17.0424C39.7172 16.5917 39.9058 16.31 39.8384 16.1692C39.798 16.0565 39.4344 15.6621 39.0573 15.2959L38.3569 14.6199L37.8721 15.1551Z" fill="#020A33"/>
<path d="M22.5724 28.1973C17.5758 33.31 16.862 33.9156 15.9192 33.9156C15.2189 33.9156 14.7879 34.2677 14.6128 34.9579C14.532 35.31 14.4647 35.7748 14.4647 36.0001C14.4647 36.5072 14.0202 37.1973 13.3468 37.7748C12.8755 38.1691 12.7138 38.2114 11.596 38.2818C10.9091 38.3241 10.2223 38.4368 10.0472 38.5353C9.64313 38.7748 9.21216 39.5213 9.21216 40.0001C9.21216 41.0424 14.734 46.8734 15.7172 46.8734C16.1482 46.8734 16.862 46.3804 17.1583 45.8593C17.3603 45.4931 17.4142 45.1691 17.4007 44.3382C17.3738 43.2114 17.495 42.8452 18.0876 42.1832C18.5859 41.6058 19.0573 41.3945 20 41.2818C21.1448 41.1551 21.4546 40.8593 21.5893 39.7607C21.7105 38.7325 21.9664 38.1973 22.761 37.3241C23.0977 36.9579 23.5287 36.479 23.7037 36.2677C24.0539 35.8311 24.1347 35.1832 23.8519 35.1832C23.5691 35.1832 22.7071 35.8875 21.8048 36.8593C21.3603 37.3241 20.9428 37.7184 20.8755 37.7184C20.7138 37.7184 17.9664 34.8875 17.9664 34.7184C17.9664 34.648 19.9192 32.5213 22.2896 30.0001C27.3536 24.6058 28.4714 23.2114 27.7037 23.2114C27.5691 23.2114 25.266 25.4649 22.5724 28.1973ZM17.3199 35.7044C18.2223 36.479 20 38.4368 20.4714 39.1832C20.7408 39.6339 20.633 40.1973 20.2425 40.3241C19.8384 40.4649 19.0438 39.8593 17.4681 38.1832C15.8654 36.479 15.3132 35.6339 15.5421 35.1973C15.798 34.6903 16.3098 34.8311 17.3199 35.7044ZM15.5825 37.8875C15.825 38.0565 16.5118 38.6903 17.1179 39.31L18.2088 40.4227L17.4815 41.4086C17.0775 41.9579 16.7004 42.5072 16.633 42.6199C16.5388 42.803 16.4579 42.7889 16.0674 42.5353C15.5421 42.1973 12.9832 39.5213 12.9832 39.31C12.9832 39.2255 13.3334 38.9438 13.7643 38.6621C14.1953 38.3945 14.6532 38.0283 14.7879 37.8734C15.0977 37.5072 15.0707 37.5072 15.5825 37.8875ZM11.7845 39.8452C12.7004 40.5353 15.5825 43.6339 16 44.3804C16.2559 44.8311 16.3502 45.1551 16.2963 45.3804C16.2021 45.7748 15.8788 45.9438 15.5691 45.7607C14.8553 45.3522 11.2997 41.5776 10.4782 40.3663C10.1819 39.9297 10.1415 39.8029 10.2896 39.6199C10.559 39.2818 11.1381 39.3663 11.7845 39.8452Z" fill="#020A33"/>
<path d="M15.0842 39.3522C14.7879 39.648 14.8149 40.4368 15.1111 40.7184C15.4613 41.0565 16.027 41.0142 16.2694 40.648C16.5657 40.1973 16.5388 39.8734 16.1482 39.479C15.7711 39.0706 15.3805 39.0283 15.0842 39.3522Z" fill="#020A33"/>
<path d="M30.3839 23.5072C29.9798 24.1692 30.7745 25.0565 31.4479 24.7044C31.8519 24.5072 31.9596 23.7748 31.6364 23.4368C31.3132 23.0987 30.5994 23.141 30.3839 23.5072Z" fill="#020A33"/>
<path d="M28.0135 25.972C27.5556 26.4368 27.9596 27.4368 28.6061 27.4368C28.8889 27.4368 29.4142 26.972 29.4142 26.7325C29.4142 25.972 28.4849 25.4649 28.0135 25.972Z" fill="#020A33"/>
<path d="M25.3468 28.7748C25.1448 29.2396 25.3738 29.7889 25.8586 29.972C26.5724 30.2537 27.0977 29.4649 26.6667 28.7748C26.3569 28.2677 25.5623 28.2677 25.3468 28.7748Z" fill="#020A33"/>
<path d="M23.0303 31.1691C22.9091 31.2959 22.8149 31.5494 22.8149 31.7466C22.8149 32.4227 23.7172 32.9156 24.1347 32.479C24.3502 32.2537 24.3367 31.4508 24.1213 31.2677C23.7845 30.972 23.2728 30.9297 23.0303 31.1691Z" fill="#020A33"/>
<path d="M20.3906 33.9015C20.3233 34.0565 20.2559 34.2818 20.2559 34.4086C20.2559 34.6903 20.8485 35.3241 21.1314 35.3241C21.4142 35.3241 21.8721 34.817 21.8721 34.479C21.8721 33.7748 20.7004 33.31 20.3906 33.9015Z" fill="#020A33"/>
<path d="M19.1616 56.048H22.0496V56.736H19.1616V56.048ZM19.2416 59H18.4416V53.4H22.3936V54.096H19.2416V59ZM23.4077 59V53.064H24.1757V59H23.4077ZM27.4261 59.048C27.0634 59.048 26.7434 58.9813 26.4661 58.848C26.1941 58.7147 25.9807 58.512 25.8261 58.24C25.6767 57.9627 25.6021 57.616 25.6021 57.2V54.76H26.3701V57.112C26.3701 57.528 26.4687 57.84 26.6661 58.048C26.8687 58.256 27.1514 58.36 27.5141 58.36C27.7807 58.36 28.0127 58.3067 28.2101 58.2C28.4074 58.088 28.5594 57.928 28.6661 57.72C28.7727 57.5067 28.8261 57.2507 28.8261 56.952V54.76H29.5941V59H28.8661V57.856L28.9861 58.16C28.8474 58.4427 28.6394 58.6613 28.3621 58.816C28.0847 58.9707 27.7727 59.048 27.4261 59.048ZM32.5121 59.048C32.0855 59.048 31.7548 58.9333 31.5201 58.704C31.2855 58.4747 31.1681 58.1467 31.1681 57.72V53.832H31.9361V57.688C31.9361 57.9173 31.9921 58.0933 32.1041 58.216C32.2215 58.3387 32.3868 58.4 32.6001 58.4C32.8401 58.4 33.0401 58.3333 33.2001 58.2L33.4401 58.752C33.3228 58.8533 33.1815 58.928 33.0161 58.976C32.8561 59.024 32.6881 59.048 32.5121 59.048ZM30.4481 55.392V54.76H33.1521V55.392H30.4481ZM36.116 59.048C35.6627 59.048 35.2627 58.9547 34.916 58.768C34.5747 58.5813 34.308 58.3253 34.116 58C33.9293 57.6747 33.836 57.3013 33.836 56.88C33.836 56.4587 33.9267 56.0853 34.108 55.76C34.2947 55.4347 34.548 55.1813 34.868 55C35.1933 54.8133 35.5587 54.72 35.964 54.72C36.3747 54.72 36.7373 54.8107 37.052 54.992C37.3667 55.1733 37.612 55.4293 37.788 55.76C37.9693 56.0853 38.06 56.4667 38.06 56.904C38.06 56.936 38.0573 56.9733 38.052 57.016C38.052 57.0587 38.0493 57.0987 38.044 57.136H34.436V56.584H37.644L37.332 56.776C37.3373 56.504 37.2813 56.2613 37.164 56.048C37.0467 55.8347 36.884 55.6693 36.676 55.552C36.4733 55.4293 36.236 55.368 35.964 55.368C35.6973 55.368 35.46 55.4293 35.252 55.552C35.044 55.6693 34.8813 55.8373 34.764 56.056C34.6467 56.2693 34.588 56.5147 34.588 56.792V56.92C34.588 57.2027 34.652 57.456 34.78 57.68C34.9133 57.8987 35.0973 58.0693 35.332 58.192C35.5667 58.3147 35.836 58.376 36.14 58.376C36.3907 58.376 36.6173 58.3333 36.82 58.248C37.028 58.1627 37.2093 58.0347 37.364 57.864L37.788 58.36C37.596 58.584 37.356 58.7547 37.068 58.872C36.7853 58.9893 36.468 59.048 36.116 59.048Z" fill="#495057"/>
</svg>
