<svg width="56" height="68" viewBox="0 0 56 68" fill="none" xmlns="http://www.w3.org/2000/svg">
<path d="M39.4394 10.746C38.777 11.1472 37.9745 11.5986 37.6687 11.7366C36.9554 12.0501 36.2675 12.7523 35.8089 13.6425C35.3248 14.5704 34.4203 15.1974 33.7197 15.0845C32.8025 14.9341 31.949 15.7742 31.949 16.84C31.949 17.4168 31.5413 18.1943 31.07 18.5203C30.8025 18.7084 30.5095 18.7836 29.9999 18.7836H29.312L29.3757 19.398C29.4012 19.7366 29.363 20.1253 29.2738 20.2883C29.0573 20.6896 29.2611 20.84 30.1401 20.9153L30.8662 20.978L30.9044 21.6551C30.9554 22.583 30.7643 22.9842 30.1528 23.2225C29.5668 23.4607 29.1974 23.4733 28.6496 23.2852C28.2038 23.1347 28.1401 22.8714 28.4585 22.282C28.5987 21.9936 28.6114 21.8557 28.5095 21.7303C28.3948 21.5924 28.2802 21.6049 27.8343 21.793C27.312 22.0187 27.2993 22.0187 26.9044 21.7805L26.4968 21.5297L26.2929 21.8055C26.1273 22.0438 26.1273 22.1441 26.2802 22.4827C26.4203 22.8463 26.4203 22.9341 26.2292 23.2476C25.9108 23.7617 24.9936 24.5391 24.4585 24.7648C24.191 24.8776 23.8471 24.9153 23.5796 24.8651L23.1592 24.7899L23.1719 25.4795C23.1847 26.0939 23.1464 26.2193 22.7261 26.7084C22.1656 27.3353 21.1592 28.188 20.9426 28.188C20.8662 28.188 20.6624 28.1002 20.4968 27.9874C20.242 27.7993 20.1783 27.7993 20.0127 27.9748C19.8471 28.1378 19.8471 28.2005 20.0127 28.5265C20.2038 28.8776 20.191 28.9278 19.949 29.3291C19.5923 29.9059 17.5796 31.7867 16.4076 32.6519C15.2993 33.467 14.3566 33.8808 12.3312 34.4576C9.63052 35.2225 9.24835 35.536 9.8216 36.4889C10.4585 37.5673 12.828 39.8494 13.2993 39.8494C13.5796 39.8494 13.5159 39.4356 13.1592 38.9592C12.9808 38.7334 12.2802 37.956 11.6178 37.2538C10.9554 36.5391 10.4331 35.9121 10.4713 35.8494C10.5095 35.7993 10.9044 35.6739 11.3375 35.5986C11.7834 35.5109 12.9936 35.1598 14.0382 34.8212L15.949 34.1943L16.9299 35.1598L17.898 36.1128L17.3375 37.7428C17.0318 38.6457 16.6751 39.8244 16.535 40.3635C16.4076 40.9027 16.2675 41.4043 16.2165 41.4795C16.1656 41.5548 15.9235 41.4419 15.605 41.1786C14.5987 40.3886 14.1401 40.3008 14.3057 40.9654C14.484 41.6551 15.7579 42.583 16.3439 42.4325C16.7006 42.3447 17.0827 41.7428 17.2738 40.978C17.7324 39.0469 17.8853 38.5579 18.3184 37.6425C18.9681 36.2632 19.707 35.2099 20.8534 34.0313C21.898 32.9654 22.3566 32.7021 22.9808 32.7899C23.8726 32.9278 24.6241 32.1629 24.828 30.9215C24.9044 30.4827 25.0063 30.0814 25.07 30.0187C25.121 29.9686 25.5668 29.8432 26.0382 29.7428C27.4904 29.4419 27.9363 28.9905 27.949 27.7867C27.949 26.8212 28.1273 26.6582 29.2993 26.5454C30.5222 26.4074 30.8534 26.0939 30.9681 24.9278C31.0955 23.7993 31.2738 23.5861 32.1656 23.4858C33.656 23.3228 34.0509 22.9968 34.1528 21.8181C34.2675 20.4262 35.2101 19.4607 36.1146 19.7742C36.3439 19.862 36.5859 19.8871 36.6624 19.8494C36.828 19.7491 36.828 19.3729 36.6496 19.1974C36.3948 18.9466 36.7388 18.3698 37.5923 17.5548C38.0254 17.1535 38.5859 16.7146 38.828 16.5892C39.5413 16.2381 40.484 15.2726 40.8152 14.5454C40.9808 14.1817 41.4267 13.4043 41.8216 12.8149C42.2038 12.2381 42.5222 11.7115 42.5222 11.6613C42.5222 11.5234 40.9426 10.0062 40.7898 10.0062C40.7261 10.0062 40.1146 10.3447 39.4394 10.746ZM41.121 11.4482C41.2101 11.5485 41.2356 11.7742 41.1847 11.9999C41.07 12.5391 40.4076 13.3918 40.1019 13.3918C39.8216 13.3918 38.9171 12.3008 39.0318 12.1128C39.0827 12.0375 39.3757 11.8244 39.6942 11.6237C40.3312 11.2225 40.8789 11.1598 41.121 11.4482ZM38.6496 13.4168C39.414 14.1065 39.6687 14.583 39.4394 14.8714C39.1847 15.1974 38.9171 15.3855 38.7006 15.398C38.4203 15.398 37.0445 14.0062 37.0445 13.7052C37.0445 13.3667 37.4904 12.8902 37.8216 12.8902C37.9617 12.8902 38.3312 13.1284 38.6496 13.4168ZM37.2356 15.2852L37.8726 15.9121L36.828 16.9153C35.7961 17.8933 35.363 18.1065 35.2101 17.7052C35.0827 17.3918 35.121 16.6645 35.2866 16.1378C35.4394 15.6112 36.2038 14.6457 36.4585 14.6457C36.535 14.6457 36.8917 14.9341 37.2356 15.2852ZM33.9617 16.2256C34.2929 16.4513 34.3439 17.0407 34.0509 17.2789C33.949 17.3667 33.7197 17.4294 33.5413 17.4294C32.8917 17.4294 32.5987 16.7397 33.0573 16.2507C33.312 15.9748 33.5923 15.9623 33.9617 16.2256ZM34.5987 18.4325C34.8662 18.6958 34.7643 18.9968 34.2802 19.4106C33.4522 20.1253 32.3312 20.4764 31.6433 20.2131C31.1082 20.0124 31.7324 18.9968 32.6369 18.583C33.3375 18.257 34.3439 18.1817 34.5987 18.4325ZM33.2356 21.4921C33.4394 21.7428 33.2738 22.257 32.8917 22.4952C32.6369 22.6707 32.5095 22.6833 32.2675 22.5704C32.0127 22.445 31.949 22.3322 31.949 21.9309C31.949 21.5046 31.9999 21.4168 32.3057 21.3165C32.7006 21.1911 33.0318 21.2413 33.2356 21.4921ZM27.8216 24.5265C27.9363 25.304 27.6942 26.0062 27.2356 26.2444C26.7388 26.4952 25.5413 26.4952 25.3248 26.2444C25.1974 26.0939 25.1974 25.9811 25.2993 25.7679C25.5159 25.2914 26.6878 24.1002 27.1337 23.8871C27.6178 23.6488 27.6942 23.724 27.8216 24.5265ZM29.9108 24.4513C30.3312 24.9027 30.2292 25.3165 29.6305 25.5422C29.3503 25.6425 29.2356 25.6175 28.9681 25.4168C28.5859 25.1284 28.5477 24.8526 28.8407 24.4513C29.0827 24.1002 29.5668 24.1002 29.9108 24.4513ZM24.6369 27.2601C24.6878 27.4356 24.6878 27.862 24.6624 28.2131C24.5605 29.141 24.1783 29.4419 23.1082 29.4419C21.7579 29.4419 21.7579 29.0657 23.0827 27.7491C24.0254 26.8338 24.4968 26.6833 24.6369 27.2601ZM26.8534 27.561C26.9936 27.699 27.1082 27.8871 27.1082 27.9874C27.1082 28.188 26.4968 28.8149 26.3057 28.8149C26.0127 28.8149 25.707 28.3886 25.707 27.9874C25.707 27.3353 26.3694 27.0845 26.8534 27.561ZM21.5031 30.1817C21.8216 30.7711 21.5413 31.8871 20.9044 32.5892C20.6624 32.8526 20.3566 33.0783 20.242 33.0783C20.1273 33.0783 19.7834 32.8275 19.4777 32.5265C18.8152 31.862 18.828 31.8244 20.0382 30.7209C20.9171 29.9059 21.2738 29.7805 21.5031 30.1817ZM23.7197 30.5955C23.9745 30.9592 23.9745 31.2476 23.7197 31.4983C23.4904 31.7366 22.8917 31.7617 22.6751 31.5485C22.4713 31.3479 22.4713 30.6707 22.6751 30.4701C22.9299 30.2193 23.5031 30.2946 23.7197 30.5955ZM18.9681 33.0657C19.2484 33.3291 19.4649 33.63 19.4649 33.7429C19.4649 34.0563 18.6496 35.1472 18.3821 35.1849C18.2165 35.2099 17.8853 34.9717 17.3757 34.4701L16.6369 33.7303L17.3757 33.1535C17.7961 32.84 18.2038 32.5767 18.3057 32.5767C18.3948 32.5767 18.7006 32.7899 18.9681 33.0657Z" fill="#020A33"/>
<path d="M20.2938 59.064C19.8671 59.064 19.4698 58.992 19.1018 58.848C18.7391 58.704 18.4244 58.504 18.1578 58.248C17.8911 57.9867 17.6831 57.6827 17.5338 57.336C17.3844 56.9893 17.3098 56.6107 17.3098 56.2C17.3098 55.7893 17.3844 55.4107 17.5338 55.064C17.6831 54.7173 17.8911 54.416 18.1578 54.16C18.4244 53.8987 18.7391 53.696 19.1018 53.552C19.4644 53.408 19.8618 53.336 20.2938 53.336C20.7204 53.336 21.1124 53.408 21.4698 53.552C21.8324 53.6907 22.1471 53.8907 22.4138 54.152C22.6858 54.408 22.8938 54.7093 23.0378 55.056C23.1871 55.4027 23.2618 55.784 23.2618 56.2C23.2618 56.616 23.1871 56.9973 23.0378 57.344C22.8938 57.6907 22.6858 57.9947 22.4138 58.256C22.1471 58.512 21.8324 58.712 21.4698 58.856C21.1124 58.9947 20.7204 59.064 20.2938 59.064ZM20.2938 58.352C20.6031 58.352 20.8884 58.2987 21.1498 58.192C21.4164 58.0853 21.6458 57.936 21.8378 57.744C22.0351 57.5467 22.1871 57.3173 22.2938 57.056C22.4058 56.7947 22.4618 56.5093 22.4618 56.2C22.4618 55.8907 22.4058 55.6053 22.2938 55.344C22.1871 55.0827 22.0351 54.856 21.8378 54.664C21.6458 54.4667 21.4164 54.3147 21.1498 54.208C20.8884 54.1013 20.6031 54.048 20.2938 54.048C19.9791 54.048 19.6884 54.1013 19.4218 54.208C19.1604 54.3147 18.9311 54.4667 18.7338 54.664C18.5364 54.856 18.3818 55.0827 18.2698 55.344C18.1631 55.6053 18.1098 55.8907 18.1098 56.2C18.1098 56.5093 18.1631 56.7947 18.2698 57.056C18.3818 57.3173 18.5364 57.5467 18.7338 57.744C18.9311 57.936 19.1604 58.0853 19.4218 58.192C19.6884 58.2987 19.9791 58.352 20.2938 58.352ZM26.6205 59.048C26.2579 59.048 25.9299 58.968 25.6365 58.808C25.3485 58.6427 25.1192 58.4 24.9485 58.08C24.7832 57.76 24.7005 57.36 24.7005 56.88C24.7005 56.4 24.7859 56 24.9565 55.68C25.1325 55.36 25.3645 55.12 25.6525 54.96C25.9459 54.8 26.2685 54.72 26.6205 54.72C27.0365 54.72 27.4045 54.8107 27.7245 54.992C28.0445 55.1733 28.2979 55.4267 28.4845 55.752C28.6712 56.072 28.7645 56.448 28.7645 56.88C28.7645 57.312 28.6712 57.6907 28.4845 58.016C28.2979 58.3413 28.0445 58.5947 27.7245 58.776C27.4045 58.9573 27.0365 59.048 26.6205 59.048ZM24.3725 59V53.064H25.1405V55.888L25.0605 56.872L25.1085 57.856V59H24.3725ZM26.5565 58.376C26.8285 58.376 27.0712 58.3147 27.2845 58.192C27.5032 58.0693 27.6739 57.896 27.7965 57.672C27.9245 57.4427 27.9885 57.1787 27.9885 56.88C27.9885 56.576 27.9245 56.3147 27.7965 56.096C27.6739 55.872 27.5032 55.6987 27.2845 55.576C27.0712 55.4533 26.8285 55.392 26.5565 55.392C26.2899 55.392 26.0472 55.4533 25.8285 55.576C25.6152 55.6987 25.4445 55.872 25.3165 56.096C25.1939 56.3147 25.1325 56.576 25.1325 56.88C25.1325 57.1787 25.1939 57.4427 25.3165 57.672C25.4445 57.896 25.6152 58.0693 25.8285 58.192C26.0472 58.3147 26.2899 58.376 26.5565 58.376ZM31.6417 59.048C31.215 59.048 30.8363 58.9547 30.5057 58.768C30.175 58.5813 29.9137 58.3253 29.7217 58C29.5297 57.6693 29.4337 57.296 29.4337 56.88C29.4337 56.4587 29.5297 56.0853 29.7217 55.76C29.9137 55.4347 30.175 55.1813 30.5057 55C30.8363 54.8133 31.215 54.72 31.6417 54.72C32.063 54.72 32.439 54.8133 32.7697 55C33.1057 55.1813 33.367 55.4347 33.5537 55.76C33.7457 56.08 33.8417 56.4533 33.8417 56.88C33.8417 57.3013 33.7457 57.6747 33.5537 58C33.367 58.3253 33.1057 58.5813 32.7697 58.768C32.439 58.9547 32.063 59.048 31.6417 59.048ZM31.6417 58.376C31.9137 58.376 32.1563 58.3147 32.3697 58.192C32.5883 58.0693 32.759 57.896 32.8817 57.672C33.0043 57.4427 33.0657 57.1787 33.0657 56.88C33.0657 56.576 33.0043 56.3147 32.8817 56.096C32.759 55.872 32.5883 55.6987 32.3697 55.576C32.1563 55.4533 31.9137 55.392 31.6417 55.392C31.3697 55.392 31.127 55.4533 30.9137 55.576C30.7003 55.6987 30.5297 55.872 30.4017 56.096C30.2737 56.3147 30.2097 56.576 30.2097 56.88C30.2097 57.1787 30.2737 57.4427 30.4017 57.672C30.5297 57.896 30.7003 58.0693 30.9137 58.192C31.127 58.3147 31.3697 58.376 31.6417 58.376ZM36.7918 59.048C36.3384 59.048 35.9384 58.9547 35.5918 58.768C35.2504 58.5813 34.9838 58.3253 34.7918 58C34.6051 57.6747 34.5118 57.3013 34.5118 56.88C34.5118 56.4587 34.6024 56.0853 34.7838 55.76C34.9704 55.4347 35.2238 55.1813 35.5438 55C35.8691 54.8133 36.2344 54.72 36.6398 54.72C37.0504 54.72 37.4131 54.8107 37.7278 54.992C38.0424 55.1733 38.2878 55.4293 38.4638 55.76C38.6451 56.0853 38.7358 56.4667 38.7358 56.904C38.7358 56.936 38.7331 56.9733 38.7278 57.016C38.7278 57.0587 38.7251 57.0987 38.7198 57.136H35.1118V56.584H38.3198L38.0078 56.776C38.0131 56.504 37.9571 56.2613 37.8398 56.048C37.7224 55.8347 37.5598 55.6693 37.3518 55.552C37.1491 55.4293 36.9118 55.368 36.6398 55.368C36.3731 55.368 36.1358 55.4293 35.9278 55.552C35.7198 55.6693 35.5571 55.8373 35.4398 56.056C35.3224 56.2693 35.2638 56.5147 35.2638 56.792V56.92C35.2638 57.2027 35.3278 57.456 35.4558 57.68C35.5891 57.8987 35.7731 58.0693 36.0078 58.192C36.2424 58.3147 36.5118 58.376 36.8158 58.376C37.0664 58.376 37.2931 58.3333 37.4958 58.248C37.7038 58.1627 37.8851 58.0347 38.0398 57.864L38.4638 58.36C38.2718 58.584 38.0318 58.7547 37.7438 58.872C37.4611 58.9893 37.1438 59.048 36.7918 59.048Z" fill="#495057"/>
</svg>
