<svg width="56" height="68" viewBox="0 0 56 68" fill="none" xmlns="http://www.w3.org/2000/svg">
<path d="M35.101 11.3309C34.2019 11.7404 31.3094 13.0237 28.6515 14.1841C20.8599 17.6107 13.9414 20.7916 11.7524 21.9384C11.0489 22.307 10.3974 22.7438 10.2801 22.9213C10.0586 23.2899 9.87621 25.0647 9.75895 28.1363C9.68077 30.4025 9.56351 31.0442 9.1596 31.6039C8.88599 31.9725 8.83387 32.6687 9.0684 33.1739C9.31595 33.7609 10.241 34.1295 11.6482 34.1841C12.3257 34.2251 12.9251 34.307 12.9642 34.3889C13.0163 34.4571 13.0945 35.1124 13.1466 35.836C13.316 38.4025 13.6026 40.778 13.798 41.1602C13.9023 41.3786 14.0847 41.5834 14.1889 41.638C14.6449 41.8155 15.2834 41.7199 15.6221 41.4196C16.013 41.051 16.2215 39.8906 16.456 36.8189C16.5342 35.8223 16.6775 34.8394 16.7557 34.6483C16.873 34.4162 17.1075 34.2524 17.5505 34.1158C18.2019 33.9247 18.3974 33.5152 17.9414 33.324C17.8111 33.2831 16.5342 33.1739 15.101 33.1056C11.4788 32.9281 10.228 32.778 9.99348 32.5322C9.81107 32.3548 9.8241 32.3138 10.0977 32.1363C10.3583 31.9862 13.0945 31.9589 25.5244 31.9589C33.8371 31.9589 40.8599 32.0135 41.1335 32.0681C41.6417 32.1773 41.772 32.4776 41.3941 32.6414C41.0554 32.778 36.1824 32.9554 28.456 33.1329C20.2736 33.3104 19.8306 33.3377 19.8827 33.638C19.9088 33.7609 20.1303 33.9111 20.3778 33.993C20.6254 34.0612 23.9739 34.1568 27.8046 34.1978L34.7752 34.2797L34.8795 35.2353C34.9316 35.7541 35.0879 37.2012 35.2182 38.4435C35.3485 39.6858 35.5309 40.8872 35.6352 41.1056C35.8046 41.4742 35.8827 41.5152 36.5472 41.5561C37.1205 41.5834 37.316 41.5425 37.4984 41.324C37.8371 40.9281 38.0717 39.6995 38.228 37.406C38.3062 36.2865 38.3974 35.1124 38.4365 34.7848L38.5146 34.2114H39.6612C41.2899 34.2114 42.0065 33.8838 42.4756 32.9554C42.7361 32.423 42.7101 32.2046 42.2541 31.4674C41.9804 31.0169 41.8241 30.5254 41.7329 29.8974C41.5896 28.8326 41.5505 28.7507 41.2247 28.7507C40.912 28.7507 40.7427 29.0783 40.6254 29.8565C40.5081 30.621 40.3778 30.7984 39.8697 30.7984C39.2964 30.7984 39.1661 30.6619 38.9446 29.8974C38.6971 29.0237 38.4495 28.8872 36.6645 28.737C34.9055 28.6005 16.7427 28.6005 14.8143 28.737C13.1987 28.8599 12.7427 29.051 12.6254 29.679C12.5863 29.8838 12.4821 30.1978 12.3909 30.3889C12.1694 30.853 11.5049 30.9213 11.1401 30.5391C10.8925 30.2797 10.8664 30.0885 10.8664 28.1363V26.0203L25.3681 26.0476C39.0619 26.0885 39.8827 26.1022 40.3388 26.3343C40.5993 26.4708 40.8339 26.7029 40.873 26.8667C40.9772 27.249 41.3811 27.1261 41.5374 26.6756C41.7199 26.1295 41.4332 25.6107 40.6645 25.0647C40.2345 24.7643 39.7785 24.2455 39.3876 23.6312C38.5798 22.3752 34.9707 15.4128 34.9707 15.1124C34.9707 15.0305 35.5831 14.6619 36.3257 14.2933C38.5407 13.1739 38.8534 12.7097 38.1498 11.6039C37.7329 10.9486 37.329 10.5937 36.9902 10.6073C36.8469 10.6073 36 10.935 35.101 11.3309ZM37.2899 11.9862C37.8762 12.6005 36.912 13.1193 27.2182 17.3513C25.0945 18.2797 22.7101 19.3445 22.0065 19.6722C21.798 19.7677 21.2378 20.0135 20.7687 20.2182C20.2997 20.4094 19.6743 20.6961 19.3746 20.8462C19.0619 20.9827 18.7752 21.1056 18.7361 21.1056C18.6971 21.1056 18.4756 21.1875 18.2541 21.2967C18.0195 21.4059 17.3941 21.6926 16.8599 21.9247C16.3257 22.1568 15.7133 22.4435 15.4918 22.5391C14.0717 23.208 11.3225 24.3821 11.1791 24.3821C11.0749 24.3821 10.9576 24.2319 10.9186 24.0271C10.8013 23.5629 11.2313 23.0851 12.1694 22.6483C14.3583 21.6107 32.3388 13.5698 33.9935 12.8872C35.0749 12.4503 36.0651 12.0271 36.2085 11.9588C36.5863 11.7814 37.1075 11.795 37.2899 11.9862ZM34.228 15.9452C34.4104 16.1909 34.7752 16.8599 35.0358 17.4196C35.3094 17.9793 35.9739 19.3036 36.5342 20.3548C38.5016 24.0954 38.7622 24.6551 38.5928 24.7234C38.4886 24.7643 36.873 24.778 34.9707 24.7643L31.5179 24.7234L31.1791 23.836L30.8404 22.9486H25.7199H20.5993L20.3648 23.6858C19.9609 24.9008 20.1824 24.8326 16.899 24.7643C14.9316 24.737 13.9544 24.6687 13.8502 24.5595C13.6677 24.3684 13.6808 24.3684 18.4234 22.2524C20.1824 21.4742 21.8762 20.7097 22.2019 20.5595C24.9381 19.3172 33.6677 15.522 33.8241 15.522C33.8762 15.5083 34.0586 15.7131 34.228 15.9452ZM30.0456 23.9862C30.3713 24.1636 30.3453 24.464 29.9935 24.5868C29.5896 24.7234 23.1531 24.8462 22.1498 24.7234C21.1075 24.6141 20.886 24.4776 21.1987 24.15C21.3811 23.9589 21.7329 23.8906 22.7622 23.8223C24.5603 23.6995 29.7459 23.8223 30.0456 23.9862ZM15.9218 30.0203C16.4169 30.4298 15.8827 30.7984 14.8143 30.7984C13.9023 30.7984 13.4593 30.5527 13.6808 30.1568C13.9283 29.7472 15.4658 29.638 15.9218 30.0203ZM19.57 30.0203C20.0521 30.4162 19.4788 30.7984 18.3713 30.7984C17.5505 30.7984 17.1075 30.5254 17.329 30.1568C17.5765 29.7472 19.114 29.638 19.57 30.0203ZM23.2182 30.0203C23.4528 30.2114 23.4137 30.4981 23.127 30.6619C22.8013 30.8394 21.4723 30.8394 21.1466 30.6619C20.7948 30.4571 20.8208 30.0066 21.1987 29.9247C21.355 29.8838 21.6026 29.8292 21.7459 29.8019C22.1107 29.7199 23.0228 29.8565 23.2182 30.0203ZM26.8664 30.0203C27.101 30.2114 27.0619 30.4981 26.7752 30.6619C26.4495 30.8394 25.1205 30.8394 24.7948 30.6619C24.443 30.4571 24.469 30.0066 24.8469 29.9247C25.0033 29.8838 25.2508 29.8292 25.3941 29.8019C25.7589 29.7199 26.671 29.8565 26.8664 30.0203ZM30.4495 29.9384C30.5016 29.9657 30.5407 30.1432 30.5407 30.3206C30.5407 30.5937 30.4495 30.6619 30.0717 30.7438C29.4332 30.8667 28.3257 30.7302 28.1954 30.5118C28.013 30.2251 28.2997 29.8701 28.7557 29.8019C29.1857 29.7472 30.2671 29.8292 30.4495 29.9384ZM33.9674 29.9384C34.2671 30.0203 34.2541 30.4844 33.9414 30.6619C33.6677 30.8121 32.5993 30.8394 32.1433 30.7165C31.987 30.6756 31.8306 30.5527 31.8046 30.4708C31.5831 29.8838 32.7687 29.5971 33.9674 29.9384ZM37.6156 29.9384C37.7459 29.9657 37.8371 30.1295 37.8371 30.3206C37.8371 30.5937 37.7459 30.6619 37.3681 30.7438C36.7687 30.853 35.6482 30.7438 35.4528 30.5391C35.2182 30.2933 35.5179 29.9247 36.026 29.8292C36.443 29.7472 37.1205 29.7882 37.6156 29.9384ZM15.544 34.3343C15.7394 34.4708 15.7133 35.2217 15.3485 38.5118C15.0749 40.9964 14.9837 41.2831 14.6449 40.6141C14.4365 40.2046 13.8762 34.9486 13.9804 34.307C13.9935 34.1705 15.3225 34.1841 15.544 34.3343ZM37.5765 34.3752C37.5765 34.7575 37.316 37.6244 37.1726 38.7848C37.0032 40.2592 36.8208 40.9281 36.6254 40.8599C36.4039 40.7916 36.2866 40.1636 36.1433 38.5118C36.0782 37.679 35.9479 36.4776 35.8567 35.8223C35.6612 34.3343 35.7394 34.2114 36.8078 34.2114C37.342 34.2114 37.5765 34.266 37.5765 34.3752Z" fill="#020A33"/>
<path d="M17.1838 59V53.4H19.3678C19.8584 53.4 20.2771 53.4773 20.6238 53.632C20.9704 53.7867 21.2371 54.0107 21.4238 54.304C21.6104 54.5973 21.7038 54.9467 21.7038 55.352C21.7038 55.7573 21.6104 56.1067 21.4238 56.4C21.2371 56.688 20.9704 56.912 20.6238 57.072C20.2771 57.2267 19.8584 57.304 19.3678 57.304H17.6238L17.9838 56.928V59H17.1838ZM17.9838 57.008L17.6238 56.608H19.3438C19.8558 56.608 20.2424 56.4987 20.5038 56.28C20.7704 56.0613 20.9038 55.752 20.9038 55.352C20.9038 54.952 20.7704 54.6427 20.5038 54.424C20.2424 54.2053 19.8558 54.096 19.3438 54.096H17.6238L17.9838 53.696V57.008ZM22.8452 59V54.76H23.6132V59H22.8452ZM23.2292 53.944C23.0799 53.944 22.9545 53.896 22.8532 53.8C22.7572 53.704 22.7092 53.5867 22.7092 53.448C22.7092 53.304 22.7572 53.184 22.8532 53.088C22.9545 52.992 23.0799 52.944 23.2292 52.944C23.3785 52.944 23.5012 52.992 23.5972 53.088C23.6985 53.1787 23.7492 53.2933 23.7492 53.432C23.7492 53.576 23.7012 53.6987 23.6052 53.8C23.5092 53.896 23.3839 53.944 23.2292 53.944ZM27.7116 59V58.104L27.6716 57.936V56.408C27.6716 56.0827 27.5756 55.832 27.3836 55.656C27.1969 55.4747 26.9142 55.384 26.5356 55.384C26.2849 55.384 26.0396 55.4267 25.7996 55.512C25.5596 55.592 25.3569 55.7013 25.1916 55.84L24.8716 55.264C25.0902 55.088 25.3516 54.9547 25.6556 54.864C25.9649 54.768 26.2876 54.72 26.6236 54.72C27.2049 54.72 27.6529 54.8613 27.9676 55.144C28.2822 55.4267 28.4396 55.8587 28.4396 56.44V59H27.7116ZM26.3196 59.048C26.0049 59.048 25.7276 58.9947 25.4876 58.888C25.2529 58.7813 25.0716 58.6347 24.9436 58.448C24.8156 58.256 24.7516 58.04 24.7516 57.8C24.7516 57.5707 24.8049 57.3627 24.9116 57.176C25.0236 56.9893 25.2022 56.84 25.4476 56.728C25.6982 56.616 26.0342 56.56 26.4556 56.56H27.7996V57.112H26.4876C26.1036 57.112 25.8449 57.176 25.7116 57.304C25.5782 57.432 25.5116 57.5867 25.5116 57.768C25.5116 57.976 25.5942 58.144 25.7596 58.272C25.9249 58.3947 26.1542 58.456 26.4476 58.456C26.7356 58.456 26.9862 58.392 27.1996 58.264C27.4182 58.136 27.5756 57.9493 27.6716 57.704L27.8236 58.232C27.7222 58.4827 27.5436 58.6827 27.2876 58.832C27.0316 58.976 26.7089 59.048 26.3196 59.048ZM32.1248 54.72C32.4715 54.72 32.7755 54.7867 33.0368 54.92C33.3035 55.0533 33.5115 55.256 33.6608 55.528C33.8101 55.8 33.8848 56.144 33.8848 56.56V59H33.1168V56.648C33.1168 56.2373 33.0155 55.928 32.8128 55.72C32.6155 55.512 32.3355 55.408 31.9728 55.408C31.7008 55.408 31.4635 55.4613 31.2608 55.568C31.0581 55.6747 30.9008 55.832 30.7888 56.04C30.6821 56.248 30.6288 56.5067 30.6288 56.816V59H29.8608V54.76H30.5968V55.904L30.4768 55.6C30.6155 55.3227 30.8288 55.1067 31.1168 54.952C31.4048 54.7973 31.7408 54.72 32.1248 54.72ZM37.1221 59.048C36.6955 59.048 36.3168 58.9547 35.9861 58.768C35.6555 58.5813 35.3941 58.3253 35.2021 58C35.0101 57.6693 34.9141 57.296 34.9141 56.88C34.9141 56.4587 35.0101 56.0853 35.2021 55.76C35.3941 55.4347 35.6555 55.1813 35.9861 55C36.3168 54.8133 36.6955 54.72 37.1221 54.72C37.5435 54.72 37.9195 54.8133 38.2501 55C38.5861 55.1813 38.8475 55.4347 39.0341 55.76C39.2261 56.08 39.3221 56.4533 39.3221 56.88C39.3221 57.3013 39.2261 57.6747 39.0341 58C38.8475 58.3253 38.5861 58.5813 38.2501 58.768C37.9195 58.9547 37.5435 59.048 37.1221 59.048ZM37.1221 58.376C37.3941 58.376 37.6368 58.3147 37.8501 58.192C38.0688 58.0693 38.2395 57.896 38.3621 57.672C38.4848 57.4427 38.5461 57.1787 38.5461 56.88C38.5461 56.576 38.4848 56.3147 38.3621 56.096C38.2395 55.872 38.0688 55.6987 37.8501 55.576C37.6368 55.4533 37.3941 55.392 37.1221 55.392C36.8501 55.392 36.6075 55.4533 36.3941 55.576C36.1808 55.6987 36.0101 55.872 35.8821 56.096C35.7541 56.3147 35.6901 56.576 35.6901 56.88C35.6901 57.1787 35.7541 57.4427 35.8821 57.672C36.0101 57.896 36.1808 58.0693 36.3941 58.192C36.6075 58.3147 36.8501 58.376 37.1221 58.376Z" fill="#495057"/>
</svg>
