<svg width="59" height="68" viewBox="0 0 59 68" fill="none" xmlns="http://www.w3.org/2000/svg">
<path d="M25.2615 11.3878C25.2615 11.5371 25.1953 12.8356 25.1291 14.2684C25.0099 16.7162 24.8377 17.7908 24.4536 18.6266C24.0033 19.6117 22.2947 21.7311 17.5132 27.2535C13.0364 32.4177 12.7847 32.746 12.5463 33.8505C12.4536 34.2684 12.4006 35.358 12.4403 36.6117C12.4933 39.1192 12.6788 39.6714 14.0033 41.1341C15.2086 42.4774 16.3211 42.9848 18.1092 42.9848C20.4404 42.9998 20.9702 42.6266 25.3145 37.7759L28.2152 34.5371L28.8907 35.2983L29.5662 36.0595L28.7715 36.9699C28.3344 37.4774 27.4602 38.4177 26.8245 39.0595C25.9238 39.9699 25.5662 40.2386 25.2748 40.2386C24.4006 40.2386 24.6655 40.8804 26.3079 42.6714C27.2218 43.6863 27.5662 43.9848 27.8046 43.9401C28.0165 43.9102 28.1225 43.7759 28.149 43.5221C28.2284 42.9251 28.8774 42.1192 34.0562 36.2087C43.4602 25.4923 45.7516 22.7759 46.0298 22.0296C46.149 21.7162 46.2284 20.9998 46.2284 20.2236C46.2284 18.7012 45.937 17.8804 45.0231 16.9251C44.2152 16.0893 43.4337 15.7311 42.3609 15.7162C40.5066 15.6863 40.8774 15.3729 34.2947 22.6415C31.0364 26.2236 27.4205 30.2833 26.2682 31.6565C25.1026 33.0296 24.0165 34.2386 23.8576 34.3729C23.5529 34.5968 23.5132 34.5669 22.149 32.9998C20.9834 31.6565 20.7053 31.4177 20.4006 31.4624C20.2152 31.4923 20.0298 31.5968 19.99 31.7012C19.9635 31.8057 20.3741 32.4027 20.9039 33.0445C21.447 33.6714 22.1092 34.4774 22.4006 34.8356L22.9304 35.4624L21.8841 36.6565C21.3013 37.3132 20.7185 37.8505 20.586 37.8505C20.4536 37.8505 19.8178 37.2833 19.1953 36.5968C18.043 35.358 17.288 34.7759 17.0496 34.9401C16.692 35.1938 16.9966 35.746 18.3476 37.2983L19.7649 38.9401L19.2351 39.2087C18.1754 39.7609 17.0761 39.5072 16.2019 38.5371C15.3278 37.552 15.0496 36.0744 15.5264 35.0296C15.9238 34.149 23.3675 25.7162 25.8708 23.2833C27.8443 21.3729 29.8973 20.7759 33.0231 21.1938C34.1887 21.358 34.3079 21.2087 33.7781 20.343C33.5794 19.9998 31.7119 17.7908 29.6324 15.4177C26.8907 12.2983 25.7781 11.1341 25.5662 11.1341C25.3675 11.1341 25.2615 11.2236 25.2615 11.3878ZM27.937 15.1042C30.3874 17.7908 31.9106 19.6266 31.8178 19.7908C31.7781 19.8654 31.4072 19.9401 31.0099 19.9401C28.8774 19.9401 26.4668 21.0445 24.798 22.7759C20.3079 27.4326 15.341 33.1639 14.6655 34.4475C14.3874 34.9848 14.3344 35.2684 14.3344 36.2833C14.3344 37.7311 14.5728 38.358 15.4867 39.3729C16.2947 40.2535 17.1291 40.5968 18.3741 40.5072C19.2218 40.4624 19.3278 40.4177 20.1754 39.6714C20.6788 39.2386 22.9437 36.8207 25.1953 34.2983C36.3079 21.8804 40.5728 17.2684 41.1158 16.9998C41.3543 16.8953 41.8973 16.8057 42.3344 16.8057C42.9966 16.8057 43.2086 16.8804 43.7516 17.2833C44.9702 18.2236 45.4735 19.5669 45.2086 21.2087C45.0894 21.8804 44.8377 22.2087 39.1291 28.7908C33.3278 35.4774 27.7781 41.5371 27.3145 41.6714C26.745 41.8356 26.639 41.5371 26.9966 40.8505C27.1688 40.5221 30.0562 37.149 33.4072 33.343C40.4536 25.358 43.3808 21.9401 43.8708 21.1192C44.1755 20.6415 44.2152 20.4475 44.1357 19.9848C43.9503 18.8804 42.7053 17.9401 41.7516 18.2087C41.3278 18.3281 38.043 21.8505 29.0894 31.8207C25.0496 36.3281 21.3675 40.343 20.9039 40.7311C19.8178 41.6415 18.9039 41.955 17.6192 41.8207C15.8841 41.6565 14.3344 40.4774 13.6589 38.8207C12.9834 37.1789 12.9834 35.2983 13.6192 33.9102C14.1225 32.8057 14.8642 31.8953 20.9702 24.8654C24.0298 21.3281 24.9702 20.0893 25.3807 18.9998C25.8311 17.8207 26.2019 16.0893 26.2814 14.7908C26.3211 14.0893 26.4006 13.5371 26.4668 13.552C26.5198 13.5818 27.1821 14.2684 27.937 15.1042ZM42.9702 19.7311C43.3278 20.358 42.7582 21.1192 37.2351 27.4027L31.8973 33.4475L31.3013 32.7759C30.9702 32.4177 30.692 32.0296 30.692 31.9102C30.692 31.552 40.8774 20.2535 41.937 19.4624C42.2947 19.1789 42.7053 19.2833 42.9702 19.7311ZM30.8245 34.6415C30.4006 35.149 30.1357 35.1192 29.6456 34.4923C29.1556 33.8654 29.1291 33.4923 29.5264 33.0744L29.8178 32.7759L30.4801 33.5072L31.1423 34.2535L30.8245 34.6415Z" fill="#020A33"/>
<path d="M10.3583 59V54.096H8.43825V53.4H13.0703V54.096H11.1503V59H10.3583ZM13.728 59V54.76H14.464V55.912L14.392 55.624C14.5093 55.3307 14.7067 55.1067 14.984 54.952C15.2613 54.7973 15.6027 54.72 16.008 54.72V55.464C15.976 55.4587 15.944 55.456 15.912 55.456C15.8853 55.456 15.8587 55.456 15.832 55.456C15.4213 55.456 15.096 55.5787 14.856 55.824C14.616 56.0693 14.496 56.424 14.496 56.888V59H13.728ZM18.7315 59.048C18.3048 59.048 17.9262 58.9547 17.5955 58.768C17.2648 58.5813 17.0035 58.3253 16.8115 58C16.6195 57.6693 16.5235 57.296 16.5235 56.88C16.5235 56.4587 16.6195 56.0853 16.8115 55.76C17.0035 55.4347 17.2648 55.1813 17.5955 55C17.9262 54.8133 18.3048 54.72 18.7315 54.72C19.1528 54.72 19.5288 54.8133 19.8595 55C20.1955 55.1813 20.4568 55.4347 20.6435 55.76C20.8355 56.08 20.9315 56.4533 20.9315 56.88C20.9315 57.3013 20.8355 57.6747 20.6435 58C20.4568 58.3253 20.1955 58.5813 19.8595 58.768C19.5288 58.9547 19.1528 59.048 18.7315 59.048ZM18.7315 58.376C19.0035 58.376 19.2462 58.3147 19.4595 58.192C19.6782 58.0693 19.8488 57.896 19.9715 57.672C20.0942 57.4427 20.1555 57.1787 20.1555 56.88C20.1555 56.576 20.0942 56.3147 19.9715 56.096C19.8488 55.872 19.6782 55.6987 19.4595 55.576C19.2462 55.4533 19.0035 55.392 18.7315 55.392C18.4595 55.392 18.2168 55.4533 18.0035 55.576C17.7902 55.6987 17.6195 55.872 17.4915 56.096C17.3635 56.3147 17.2995 56.576 17.2995 56.88C17.2995 57.1787 17.3635 57.4427 17.4915 57.672C17.6195 57.896 17.7902 58.0693 18.0035 58.192C18.2168 58.3147 18.4595 58.376 18.7315 58.376ZM27.2976 54.72C27.639 54.72 27.9403 54.7867 28.2016 54.92C28.463 55.0533 28.6656 55.256 28.8096 55.528C28.959 55.8 29.0336 56.144 29.0336 56.56V59H28.2656V56.648C28.2656 56.2373 28.1696 55.928 27.9776 55.72C27.7856 55.512 27.5163 55.408 27.1696 55.408C26.9136 55.408 26.6896 55.4613 26.4976 55.568C26.3056 55.6747 26.1563 55.832 26.0496 56.04C25.9483 56.248 25.8976 56.5067 25.8976 56.816V59H25.1296V56.648C25.1296 56.2373 25.0336 55.928 24.8416 55.72C24.655 55.512 24.3856 55.408 24.0336 55.408C23.783 55.408 23.5616 55.4613 23.3696 55.568C23.1776 55.6747 23.0283 55.832 22.9216 56.04C22.815 56.248 22.7616 56.5067 22.7616 56.816V59H21.9936V54.76H22.7296V55.888L22.6096 55.6C22.743 55.3227 22.9483 55.1067 23.2256 54.952C23.503 54.7973 23.8256 54.72 24.1936 54.72C24.599 54.72 24.9483 54.8213 25.2416 55.024C25.535 55.2213 25.727 55.5227 25.8176 55.928L25.5056 55.8C25.6336 55.4747 25.8576 55.2133 26.1776 55.016C26.4976 54.8187 26.871 54.72 27.2976 54.72ZM32.6948 59.048C32.3321 59.048 32.0041 58.968 31.7108 58.808C31.4228 58.6427 31.1934 58.4 31.0228 58.08C30.8574 57.76 30.7747 57.36 30.7747 56.88C30.7747 56.4 30.8601 56 31.0308 55.68C31.2068 55.36 31.4388 55.12 31.7268 54.96C32.0201 54.8 32.3428 54.72 32.6948 54.72C33.1108 54.72 33.4788 54.8107 33.7988 54.992C34.1188 55.1733 34.3721 55.4267 34.5588 55.752C34.7454 56.072 34.8388 56.448 34.8388 56.88C34.8388 57.312 34.7454 57.6907 34.5588 58.016C34.3721 58.3413 34.1188 58.5947 33.7988 58.776C33.4788 58.9573 33.1108 59.048 32.6948 59.048ZM30.4468 59V53.064H31.2148V55.888L31.1348 56.872L31.1828 57.856V59H30.4468ZM32.6308 58.376C32.9028 58.376 33.1454 58.3147 33.3588 58.192C33.5774 58.0693 33.7481 57.896 33.8708 57.672C33.9988 57.4427 34.0628 57.1787 34.0628 56.88C34.0628 56.576 33.9988 56.3147 33.8708 56.096C33.7481 55.872 33.5774 55.6987 33.3588 55.576C33.1454 55.4533 32.9028 55.392 32.6308 55.392C32.3641 55.392 32.1214 55.4533 31.9028 55.576C31.6894 55.6987 31.5188 55.872 31.3908 56.096C31.2681 56.3147 31.2068 56.576 31.2068 56.88C31.2068 57.1787 31.2681 57.4427 31.3908 57.672C31.5188 57.896 31.6894 58.0693 31.9028 58.192C32.1214 58.3147 32.3641 58.376 32.6308 58.376ZM37.7159 59.048C37.2892 59.048 36.9105 58.9547 36.5799 58.768C36.2492 58.5813 35.9879 58.3253 35.7959 58C35.6039 57.6693 35.5079 57.296 35.5079 56.88C35.5079 56.4587 35.6039 56.0853 35.7959 55.76C35.9879 55.4347 36.2492 55.1813 36.5799 55C36.9105 54.8133 37.2892 54.72 37.7159 54.72C38.1372 54.72 38.5132 54.8133 38.8439 55C39.1799 55.1813 39.4412 55.4347 39.6279 55.76C39.8199 56.08 39.9159 56.4533 39.9159 56.88C39.9159 57.3013 39.8199 57.6747 39.6279 58C39.4412 58.3253 39.1799 58.5813 38.8439 58.768C38.5132 58.9547 38.1372 59.048 37.7159 59.048ZM37.7159 58.376C37.9879 58.376 38.2305 58.3147 38.4439 58.192C38.6625 58.0693 38.8332 57.896 38.9559 57.672C39.0785 57.4427 39.1399 57.1787 39.1399 56.88C39.1399 56.576 39.0785 56.3147 38.9559 56.096C38.8332 55.872 38.6625 55.6987 38.4439 55.576C38.2305 55.4533 37.9879 55.392 37.7159 55.392C37.4439 55.392 37.2012 55.4533 36.9879 55.576C36.7745 55.6987 36.6039 55.872 36.4759 56.096C36.3479 56.3147 36.2839 56.576 36.2839 56.88C36.2839 57.1787 36.3479 57.4427 36.4759 57.672C36.6039 57.896 36.7745 58.0693 36.9879 58.192C37.2012 58.3147 37.4439 58.376 37.7159 58.376ZM43.242 54.72C43.5887 54.72 43.8927 54.7867 44.154 54.92C44.4207 55.0533 44.6287 55.256 44.778 55.528C44.9273 55.8 45.002 56.144 45.002 56.56V59H44.234V56.648C44.234 56.2373 44.1327 55.928 43.93 55.72C43.7327 55.512 43.4527 55.408 43.09 55.408C42.818 55.408 42.5807 55.4613 42.378 55.568C42.1753 55.6747 42.018 55.832 41.906 56.04C41.7993 56.248 41.746 56.5067 41.746 56.816V59H40.978V54.76H41.714V55.904L41.594 55.6C41.7327 55.3227 41.946 55.1067 42.234 54.952C42.522 54.7973 42.858 54.72 43.242 54.72ZM48.3113 59.048C47.858 59.048 47.458 58.9547 47.1113 58.768C46.77 58.5813 46.5033 58.3253 46.3113 58C46.1246 57.6747 46.0313 57.3013 46.0313 56.88C46.0313 56.4587 46.122 56.0853 46.3033 55.76C46.49 55.4347 46.7433 55.1813 47.0633 55C47.3886 54.8133 47.754 54.72 48.1593 54.72C48.57 54.72 48.9326 54.8107 49.2473 54.992C49.562 55.1733 49.8073 55.4293 49.9833 55.76C50.1646 56.0853 50.2553 56.4667 50.2553 56.904C50.2553 56.936 50.2526 56.9733 50.2473 57.016C50.2473 57.0587 50.2446 57.0987 50.2393 57.136H46.6313V56.584H49.8393L49.5273 56.776C49.5326 56.504 49.4766 56.2613 49.3593 56.048C49.242 55.8347 49.0793 55.6693 48.8713 55.552C48.6686 55.4293 48.4313 55.368 48.1593 55.368C47.8926 55.368 47.6553 55.4293 47.4473 55.552C47.2393 55.6693 47.0766 55.8373 46.9593 56.056C46.842 56.2693 46.7833 56.5147 46.7833 56.792V56.92C46.7833 57.2027 46.8473 57.456 46.9753 57.68C47.1086 57.8987 47.2926 58.0693 47.5273 58.192C47.762 58.3147 48.0313 58.376 48.3353 58.376C48.586 58.376 48.8126 58.3333 49.0153 58.248C49.2233 58.1627 49.4046 58.0347 49.5593 57.864L49.9833 58.36C49.7913 58.584 49.5513 58.7547 49.2633 58.872C48.9806 58.9893 48.6633 59.048 48.3113 59.048Z" fill="#495057"/>
</svg>
