<svg width="56" height="68" viewBox="0 0 56 68" fill="none" xmlns="http://www.w3.org/2000/svg">
<g clip-path="url(#clip0_169_7586)">
<path d="M44.3615 8.49571C43.1238 9.1773 42.149 10.1532 42.0252 10.8503C41.9015 11.5164 41.8086 11.5319 41.2052 11.0207C40.6482 10.556 40.6173 10.556 40.4007 10.9433C40.2769 11.1756 40.2924 11.3925 40.4935 11.8107C40.8494 12.5543 40.6173 12.7557 39.952 12.2755C39.6735 12.0586 39.3486 11.9347 39.2248 11.9811C38.8844 12.1051 38.8071 12.6318 39.0701 13.0345C39.2093 13.2359 39.3177 13.5147 39.3177 13.6387C39.3177 13.84 36.6565 16.427 36.1768 16.7058C36.0531 16.7678 35.264 16.1172 33.9798 14.8624C30.6534 11.6558 29.2609 10.7419 27.4197 10.5405C26.151 10.4166 25.4703 10.1377 24.774 9.48712C24.4801 9.19279 24.0623 8.88298 23.8612 8.77454C23.3815 8.52669 23.134 8.77454 23.3815 9.22377C23.4744 9.40966 25.3001 11.3615 27.4352 13.5457C29.5549 15.7299 31.69 17.9606 32.1541 18.4873C33.1289 19.6026 33.1443 19.866 32.1851 20.5011C31.5198 20.9348 31.3651 20.9348 29.6477 20.3927C27.2495 19.6491 24.1706 20.0673 22.051 21.446C20.7204 22.329 20.5811 22.5304 20.4264 23.8781C20.3645 24.5132 20.2562 25.1328 20.1943 25.2413C19.8385 25.8299 18.9102 26.8213 18.2449 27.3016C17.2701 28.0141 16.4965 28.2 15.3516 27.9677C13.6342 27.6114 13.5259 27.6114 12.7987 28.0451C12.0716 28.4634 11.4681 29.114 11.4681 29.4703C11.4681 29.8111 12.2572 29.7181 12.675 29.3309C13.0153 29.021 13.2165 28.9901 15.5373 28.9126C18.3841 28.8197 18.6162 28.7422 19.8075 27.5339C20.674 26.6819 21.1226 25.7525 21.3702 24.4048C21.6023 23.1035 21.7106 22.9486 22.6853 22.329C24.6193 21.0897 27.8529 20.7954 30.0809 21.6629C30.313 21.7558 30.4986 21.9108 30.4986 22.0037C30.4986 22.0966 29.3073 23.2894 27.8375 24.6526C26.3831 26.0158 24.7431 27.5649 24.1861 28.0916L23.1804 29.052L24.9287 30.8335C25.9035 31.8249 26.7699 32.6304 26.8782 32.6304C27.1258 32.6304 29.8179 29.7956 29.9107 29.4083C29.9571 29.2379 29.9417 29.0055 29.8643 28.8971C29.6941 28.6028 29.1216 28.9436 27.8684 30.1054L26.8318 31.0658L25.8416 30.0589L24.8514 29.0365L26.708 27.2551C27.7292 26.2637 30.2047 23.9246 32.2006 22.0347C39.4878 15.1722 40.246 14.5836 40.7101 15.4201C41.0815 16.1172 41.0969 16.0862 34.5213 23.1035C31.7364 26.0778 30.6688 27.441 30.9319 27.7043C31.1485 27.9212 31.5817 27.6424 32.8659 26.4341C33.4228 25.9229 33.9179 25.5046 33.9644 25.5046C34.0262 25.5046 34.2274 25.8299 34.413 26.2327C34.6915 26.8523 34.738 27.2551 34.738 28.6802C34.7225 30.5856 34.4595 31.7474 33.7323 33.0332C33.0979 34.1485 32.7885 34.3809 31.5817 34.5822C30.2356 34.8146 29.2918 35.2948 28.379 36.1778C27.1103 37.4325 26.7699 38.7338 27.0793 41.2278L27.2495 42.6065L26.5069 43.3655C23.9385 45.999 21.6023 47.1918 19.4207 46.9904C17.9354 46.851 14.5161 45.2554 14.2995 44.6048C14.2531 44.4964 14.5161 44.1246 14.8565 43.7528C15.1969 43.381 15.5218 42.8853 15.5682 42.653C15.661 42.2812 15.6301 42.2347 15.3052 42.2347C15.0576 42.2347 14.3305 42.7614 13.1236 43.8303C9.70434 46.8045 9.30207 47.0833 9.30207 46.4327C9.30207 46.0919 9.50321 45.8441 11.7776 43.2416C13.8199 40.9025 16.5894 38.0522 16.8214 38.0522C17.069 38.0522 17.8116 38.8267 17.8116 39.0901C17.8116 39.1985 17.5332 39.6477 17.1928 40.0815C16.8524 40.5152 16.5739 40.9335 16.5739 41.0109C16.5739 41.3207 17.4867 41.1194 18.0747 40.7011C19.6683 39.5393 19.56 38.8577 17.5641 37.1072L16.6667 36.3172L14.3459 38.7183C11.6229 41.5221 11.5919 41.5376 11.1897 41.3207C10.7874 41.1039 9.82812 39.4618 9.44132 38.3C8.76056 36.3172 8.93075 34.6132 10.0138 32.429C10.5862 31.3137 10.6481 30.725 10.1994 30.6476C9.82812 30.5701 9.10094 31.639 8.49753 33.1571C8.03337 34.3034 7.98696 34.5358 8.00243 36.0384C8.0179 38.2845 8.59036 39.8491 10.1221 41.8939C10.6791 42.622 10.71 42.7304 10.5089 42.9783C10.3851 43.1177 9.79718 43.8457 9.1783 44.5738C7.86318 46.1384 7.77035 46.6031 8.52848 47.3777C8.94622 47.7804 9.07 47.8269 9.5651 47.7339C10.3851 47.579 10.7874 47.3312 11.9323 46.2778C12.4893 45.7666 13.0308 45.3484 13.1391 45.3329C13.2474 45.3329 13.8663 45.6892 14.5161 46.1229C16.6667 47.579 18.3841 48.0902 20.5811 47.9198C23.1185 47.7184 25.362 46.4327 27.1722 44.1711C28.3016 42.7614 28.4409 42.3741 28.1779 41.4911C27.8375 40.3293 27.822 39.2914 28.1005 38.6098C28.2397 38.2691 28.8277 37.51 29.3847 36.9368C30.4677 35.8215 30.7771 35.6666 32.4017 35.4962C33.5157 35.3723 33.9489 35.016 34.7225 33.5908C36.084 31.0503 36.3006 27.6114 35.2485 25.5511C35.0938 25.2723 34.9855 24.885 34.9855 24.6991C34.9855 24.2499 36.0531 22.7318 36.378 22.7163C36.5018 22.7163 38.5286 24.6371 40.8648 26.9762C45.1351 31.2672 46.4812 32.4755 46.9453 32.4755C47.3167 32.4755 47.2702 32.1037 46.8215 31.577C46.28 30.9264 45.8159 29.8575 45.8159 29.2069C45.8159 28.0141 44.9649 26.2792 43.5724 24.6371C43.2011 24.2189 42.0562 23.0106 41.035 21.9727C39.9984 20.9348 39.1629 20.0054 39.1629 19.9124C39.1629 19.8195 39.7973 19.0604 40.5864 18.2084C41.9788 16.6903 42.412 16.427 42.8298 16.8453C42.9226 16.9382 43.1856 16.9847 43.4332 16.9537C43.9902 16.8917 44.114 16.396 43.6498 15.9778C43.4796 15.8229 43.3404 15.606 43.3404 15.4821C43.3404 15.2497 43.8974 15.2032 44.0366 15.4356C44.1604 15.637 45.1506 15.637 45.2744 15.4356C45.3362 15.3426 45.197 15.0638 44.9649 14.8005C44.5008 14.2428 44.5317 13.9949 45.0577 13.8865C45.5838 13.7781 46.0789 13.3598 46.9144 12.3374C47.7344 11.315 48.0593 10.6179 47.9201 10.1068C47.7963 9.59555 46.048 8 45.6147 8C45.4291 8 44.8721 8.23236 44.3615 8.49571ZM46.1098 9.79693C46.3729 10.0138 46.5895 10.3391 46.5895 10.5095C46.5895 10.6799 46.2646 11.2995 45.8778 11.8882C45.0732 13.0965 45.0268 13.0965 44.083 12.0586C43.3094 11.2066 43.2321 10.8503 43.6807 10.3701C44.1604 9.82792 44.8876 9.39417 45.3053 9.39417C45.491 9.39417 45.8468 9.58006 46.1098 9.79693ZM29.6786 12.6008C30.8081 13.3598 34.3976 16.9537 34.6761 17.6043C34.8463 18.0226 34.8463 18.1155 34.6606 18.2394C34.2893 18.4718 34.1191 18.4098 33.2526 17.7282C31.9375 16.7058 27.7137 12.4149 27.7137 12.1051C27.7137 11.6713 28.6265 11.9037 29.6786 12.6008ZM43.2475 12.5853C43.6498 12.7402 43.526 13.3443 42.9536 13.933C42.3347 14.5681 41.8705 14.7695 41.5611 14.5061C41.1743 14.1808 41.2981 13.5767 41.8551 13.019C42.3656 12.5078 42.737 12.3839 43.2475 12.5853ZM39.0082 21.7094C39.9984 22.4374 42.8607 25.4427 43.7426 26.6819C44.4853 27.7043 44.8257 28.6802 44.5472 28.8506C44.3151 29.0055 37.8169 22.391 37.6931 21.8953C37.461 21.0123 37.9716 20.9503 39.0082 21.7094Z" fill="#020A33"/>
<path d="M18.8947 29.8265C18.5079 29.9659 17.6724 30.4462 17.0381 30.8644C15.429 31.9488 15.0886 32.0572 13.8973 31.9333C12.6595 31.7939 12.4275 32.0107 13.1392 32.6459C13.6497 33.1106 14.4852 33.3429 15.0577 33.188C15.2588 33.1416 15.9705 32.7853 16.6513 32.3825C18.4151 31.3446 19.1887 30.9728 19.8849 30.8799C20.2253 30.8179 20.5966 30.6785 20.7204 30.5546C20.9216 30.3687 20.8906 30.2758 20.5502 29.935C20.0861 29.4702 19.8385 29.4547 18.8947 29.8265Z" fill="#020A33"/>
<path d="M18.8948 33.5441C18.8948 34.3186 21.9737 37.3394 22.4533 37.045C22.8401 36.8127 22.5152 36.255 21.1228 34.7989C20.0552 33.6835 19.5291 33.2498 19.2661 33.2498C19.0031 33.2498 18.8948 33.3427 18.8948 33.5441Z" fill="#020A33"/>
<path d="M25.424 35.1402C25.3312 35.2486 25.2229 35.6204 25.161 35.9612C25.0218 36.6738 24.5576 37.6497 23.5674 39.2917C22.701 40.7014 22.5617 41.6928 23.0723 42.5138C23.7066 43.5362 24.2172 43.2884 24.0625 42.0491C23.9078 40.9338 24.078 40.4226 25.161 38.6876C25.7799 37.6962 26.1822 36.8597 26.244 36.4414C26.4142 35.3726 25.9037 34.567 25.424 35.1402Z" fill="#020A33"/>
</g>
<path d="M20.5029 59L18.0389 53.4H18.9029L21.1669 58.568H20.6709L22.9509 53.4H23.7509L21.2949 59H20.5029ZM24.353 59V54.76H25.121V59H24.353ZM24.737 53.944C24.5877 53.944 24.4623 53.896 24.361 53.8C24.265 53.704 24.217 53.5867 24.217 53.448C24.217 53.304 24.265 53.184 24.361 53.088C24.4623 52.992 24.5877 52.944 24.737 52.944C24.8863 52.944 25.009 52.992 25.105 53.088C25.2063 53.1787 25.257 53.2933 25.257 53.432C25.257 53.576 25.209 53.6987 25.113 53.8C25.017 53.896 24.8917 53.944 24.737 53.944ZM28.4034 59.048C27.9767 59.048 27.598 58.9547 27.2674 58.768C26.9367 58.5813 26.6754 58.3253 26.4834 58C26.2914 57.6693 26.1954 57.296 26.1954 56.88C26.1954 56.4587 26.2914 56.0853 26.4834 55.76C26.6754 55.4347 26.9367 55.1813 27.2674 55C27.598 54.8133 27.9767 54.72 28.4034 54.72C28.8247 54.72 29.2007 54.8133 29.5314 55C29.8674 55.1813 30.1287 55.4347 30.3154 55.76C30.5074 56.08 30.6034 56.4533 30.6034 56.88C30.6034 57.3013 30.5074 57.6747 30.3154 58C30.1287 58.3253 29.8674 58.5813 29.5314 58.768C29.2007 58.9547 28.8247 59.048 28.4034 59.048ZM28.4034 58.376C28.6754 58.376 28.918 58.3147 29.1314 58.192C29.35 58.0693 29.5207 57.896 29.6434 57.672C29.766 57.4427 29.8274 57.1787 29.8274 56.88C29.8274 56.576 29.766 56.3147 29.6434 56.096C29.5207 55.872 29.35 55.6987 29.1314 55.576C28.918 55.4533 28.6754 55.392 28.4034 55.392C28.1314 55.392 27.8887 55.4533 27.6754 55.576C27.462 55.6987 27.2914 55.872 27.1634 56.096C27.0354 56.3147 26.9714 56.576 26.9714 56.88C26.9714 57.1787 27.0354 57.4427 27.1634 57.672C27.2914 57.896 27.462 58.0693 27.6754 58.192C27.8887 58.3147 28.1314 58.376 28.4034 58.376ZM31.6655 59V53.064H32.4335V59H31.6655ZM36.5319 59V58.104L36.4919 57.936V56.408C36.4919 56.0827 36.3959 55.832 36.2039 55.656C36.0172 55.4747 35.7345 55.384 35.3559 55.384C35.1052 55.384 34.8599 55.4267 34.6199 55.512C34.3799 55.592 34.1772 55.7013 34.0119 55.84L33.6919 55.264C33.9105 55.088 34.1719 54.9547 34.4759 54.864C34.7852 54.768 35.1079 54.72 35.4439 54.72C36.0252 54.72 36.4732 54.8613 36.7879 55.144C37.1025 55.4267 37.2599 55.8587 37.2599 56.44V59H36.5319ZM35.1399 59.048C34.8252 59.048 34.5479 58.9947 34.3079 58.888C34.0732 58.7813 33.8919 58.6347 33.7639 58.448C33.6359 58.256 33.5719 58.04 33.5719 57.8C33.5719 57.5707 33.6252 57.3627 33.7319 57.176C33.8439 56.9893 34.0225 56.84 34.2679 56.728C34.5185 56.616 34.8545 56.56 35.2759 56.56H36.6199V57.112H35.3079C34.9239 57.112 34.6652 57.176 34.5319 57.304C34.3985 57.432 34.3319 57.5867 34.3319 57.768C34.3319 57.976 34.4145 58.144 34.5799 58.272C34.7452 58.3947 34.9745 58.456 35.2679 58.456C35.5559 58.456 35.8065 58.392 36.0199 58.264C36.2385 58.136 36.3959 57.9493 36.4919 57.704L36.6439 58.232C36.5425 58.4827 36.3639 58.6827 36.1079 58.832C35.8519 58.976 35.5292 59.048 35.1399 59.048Z" fill="#495057"/>
<defs>
<clipPath id="clip0_169_7586">
<rect width="40" height="40" fill="white" transform="translate(8 8)"/>
</clipPath>
</defs>
</svg>
