<svg width="56" height="68" viewBox="0 0 56 68" fill="none" xmlns="http://www.w3.org/2000/svg">
<path d="M41.5669 11.427C40.9427 11.7441 40.2675 12.3294 40.0255 12.7807C39.8472 13.1099 39.465 13.2563 39.465 12.988C39.465 12.9148 39.3376 12.5977 39.1975 12.2563C38.9682 11.7441 38.8535 11.6343 38.4331 11.5124C38.0637 11.4148 37.8217 11.4148 37.4523 11.5124C36.8663 11.6831 36.5988 12.0977 36.5988 12.8416C36.5988 13.305 36.6624 13.4392 37.0319 13.7563C37.414 14.0855 37.5159 14.1099 38.0128 14.0368C38.4586 13.9758 38.5733 14.0002 38.5733 14.1343C38.5733 14.3416 37.8472 14.988 37.3121 15.2441L36.9427 15.427L36.8663 14.9758C36.7261 14.2197 36.1529 13.7319 35.3758 13.7319C34.8663 13.7319 33.9873 14.5246 33.9873 14.9758C33.9873 15.3904 34.637 16.2197 35.121 16.4148C35.8472 16.6953 35.8217 16.7197 32.6624 19.5002C31.5669 20.4636 31.1083 20.805 30.9554 20.7441C29.1847 20.0611 29.1083 20.0368 27.2357 19.9758L25.4013 19.9148L23.3503 17.988C22.2293 16.927 21.0701 15.8782 20.7644 15.6709C20.0382 15.1587 19.223 14.927 18.6752 15.0855C18.4459 15.1465 18.0382 15.1953 17.7835 15.1953C17.5287 15.1953 17.2739 15.2563 17.2357 15.3294C17.0828 15.5611 17.8344 16.4148 20.5096 19.0733C21.9745 20.5246 23.1593 21.7928 23.1593 21.9148C23.1593 22.0855 22.7134 22.7197 22.3949 23.0002C22.0765 23.2807 21.3758 24.2197 21.3758 24.3782C21.3758 24.488 21.465 24.7685 21.5796 25.0002C21.707 25.2441 21.758 25.5368 21.7198 25.7197C21.5159 26.4514 19.6433 27.8294 18.637 27.9636C18.0765 28.0368 18.0382 28.0124 17.5669 27.5246C17.2994 27.2563 17.0191 27.0246 16.9554 27.0246C16.7516 27.0246 14.4968 29.0977 14.4968 29.2807C14.4968 29.6343 14.7898 29.5855 15.7325 29.0977C16.5478 28.6587 16.7644 28.5977 17.1593 28.6709C17.414 28.7197 17.9363 28.7685 18.3185 28.7807C19.6051 28.805 21.5669 27.6099 22.3567 26.3294C22.6242 25.8904 22.6879 25.6221 22.6752 25.1099C22.6624 24.6953 22.7389 24.2928 22.8663 24.0489C23.1465 23.5246 23.9236 22.6343 24.1019 22.6343C24.3058 22.6343 26.4714 24.7319 26.4714 24.9392C26.4714 25.0368 26.1019 25.4514 25.6433 25.866C24.5096 26.8782 24.5096 27.0855 25.6943 28.2319C26.1911 28.7319 26.6752 29.0977 26.8153 29.0977C26.9554 29.0977 27.5414 28.7075 28.1147 28.2197L29.172 27.3538L30.3949 28.5368L31.6306 29.7075L31.121 30.1465C30.1784 30.927 29.9109 31.0489 29.0064 31.0489C28.0128 31.0489 27.3886 31.366 26.4714 32.3538C25.2357 33.6709 24.7516 35.2197 25.2612 36.2807L25.4777 36.7563L24.8408 37.6465C24.4968 38.1465 23.9873 38.927 23.7198 39.4026C23.121 40.4758 22.2166 41.3294 21.4268 41.5855C20.3312 41.9392 18.7134 41.7928 17.2994 41.2197C16.4841 40.8782 16.2675 40.7563 15.7962 40.366L15.3249 39.9758L16.0255 39.2807C16.8917 38.427 17.8854 37.7441 19.5287 36.8416C20.2293 36.4636 20.93 36.0368 21.0828 35.9026C21.3631 35.6587 21.3631 35.6343 21.1465 35.2928C20.7771 34.6831 18.2166 32.366 17.9618 32.4148C17.7198 32.4514 17.0446 33.4148 16.1529 34.9758C15.4523 36.1831 13.8599 37.8782 13.4013 37.8782C12.828 37.8782 12.0382 36.5367 11.6306 34.8538C11.2739 33.3904 11.465 32.5246 12.4459 31.1221C12.8153 30.5977 13.0828 30.0855 13.0446 30.0002C12.7389 29.2319 11.1593 31.0246 10.7261 32.6465C9.69429 36.488 14.1784 41.8538 19.0828 42.6343C20.6879 42.8904 22.6497 42.2319 23.6051 41.1099C23.8217 40.8416 24.3822 40.0246 24.828 39.2928C25.2739 38.5611 25.9618 37.6465 26.3567 37.2563L27.0701 36.5489L26.4459 36.0124C25.8854 35.5246 25.8344 35.4514 25.9109 35.0611C26.0637 34.3416 26.586 33.488 27.3631 32.7319C28.1656 31.927 28.3695 31.8904 29.3631 32.2807C29.7707 32.4392 29.7835 32.427 30.5096 31.7685C31.223 31.1221 31.9745 30.5611 32.1274 30.5611C32.3058 30.5611 34.5351 32.5246 37.2357 35.0733C40.2548 37.9148 41.6306 39.0977 41.9618 39.0977C42.3185 39.0977 42.1274 38.6465 41.4395 37.8782C41.0574 37.4392 40.7389 37.0368 40.7389 36.9758C40.7389 36.9148 40.9937 36.6099 41.2994 36.2928L41.8599 35.7197L38.051 32.0489L34.2421 28.3904L34.3185 27.366C34.4077 26.2319 34.2548 25.0733 33.8472 23.988C33.5287 23.0855 33.5414 22.8782 33.9873 22.3172C34.3567 21.8538 34.4714 21.488 34.2803 21.3782C34.0128 21.2319 33.414 21.6831 32.0637 23.0246C30.7389 24.3538 30.5478 24.488 30.2548 24.4148C29.8217 24.3172 29.6943 23.8782 29.9491 23.4148C30.2038 22.9636 32.3695 20.9392 37.7835 16.1343C39.4013 14.6953 40.4077 13.927 40.4586 14.0855C40.5351 14.305 39.9363 15.0002 38.1274 16.7807C37.2102 17.6831 36.1911 18.7807 35.8599 19.2075C35.2994 19.927 35.1083 20.4392 35.3758 20.4392C35.5287 20.4392 36.1529 19.9514 37.1465 19.0611C37.5796 18.6709 38.0128 18.366 38.1019 18.3904C38.1784 18.427 38.293 18.6831 38.3312 18.9758C38.4714 20.0002 39.5414 20.4148 40.3567 19.7563C40.7898 19.4026 41.121 18.866 41.121 18.5124C41.121 18.1953 40.3567 17.5246 39.7707 17.3294C39.5032 17.2441 39.2612 17.1221 39.2357 17.0489C39.223 16.988 39.4905 16.6343 39.8344 16.2807C40.5351 15.5733 40.7261 15.5855 40.7389 16.3538C40.7389 16.9514 41.414 17.7441 41.9236 17.7563C42.3312 17.7563 43.1465 17.2685 43.3503 16.9026C43.5032 16.6099 43.5287 16.4392 43.414 16.0611C43.2357 15.4026 42.8917 15.1587 42.0765 15.0977C41.6943 15.0733 41.3758 15.0002 41.3758 14.9514C41.3758 14.9026 41.7835 14.4392 42.2675 13.9392C43.4268 12.7563 43.5924 12.4636 43.3503 12.0124C43.1338 11.6099 42.5733 11.1709 42.2803 11.1709C42.1656 11.1709 41.8472 11.2807 41.5669 11.427ZM38.0765 12.2685C38.5605 12.5246 38.2293 13.2319 37.6816 13.0611C37.2612 12.9392 37.3376 12.2685 37.7835 12.1587C37.8089 12.1465 37.9363 12.2075 38.0765 12.2685ZM42.3949 12.5124C42.3949 12.7563 41.8344 13.2441 41.5542 13.2441C41.2739 13.2441 41.3503 12.7685 41.6816 12.4514C42.0255 12.1221 42.3949 12.1587 42.3949 12.5124ZM35.8344 14.7075C35.9363 15.0246 35.6816 15.4636 35.414 15.4148C35.1083 15.3538 34.8917 14.7319 35.1338 14.5855C35.4395 14.3904 35.7452 14.4514 35.8344 14.7075ZM20.3185 16.488C21.2866 17.2319 23.6943 19.5733 24.1274 20.1953C24.5988 20.8782 24.3949 21.0368 23.6561 20.5733C22.9045 20.0977 19.0828 16.3782 19.0828 16.1221C19.0828 15.7685 19.5542 15.9148 20.3185 16.488ZM42.5096 16.0977C42.637 16.2441 42.6115 16.3294 42.4077 16.5246C41.9109 17.0002 41.3249 16.7685 41.6433 16.2197C41.8217 15.8904 42.2803 15.8294 42.5096 16.0977ZM40.051 18.4148C40.1402 18.7807 39.8981 19.2441 39.6306 19.1953C39.2866 19.1343 39.1465 18.7928 39.3121 18.4392C39.5032 18.0246 39.9363 18.0124 40.051 18.4148ZM27.8089 20.7441C29.1975 20.9026 30.1656 21.2928 30.1656 21.7197C30.1656 21.9148 28.8663 22.8782 28.6115 22.8782C28.344 22.8782 26.344 20.7563 26.5096 20.6587C26.5988 20.6099 26.7516 20.5855 26.8535 20.6221C26.9554 20.6465 27.3886 20.7075 27.8089 20.7441ZM26.5351 22.305C27.8344 23.5611 28.0892 24.1099 27.2994 23.927C26.879 23.8294 24.8153 21.9392 24.8153 21.6587C24.8153 20.9758 25.3886 21.1953 26.5351 22.305ZM32.8917 24.2075C33.414 25.1587 33.8217 27.5124 33.4777 27.5124C33.3121 27.5124 31.3376 25.7075 31.1593 25.3904C31.0573 25.2075 31.1465 25.0611 31.707 24.5124C32.0765 24.1465 32.4586 23.8538 32.5478 23.8538C32.637 23.8538 32.7898 24.0124 32.8917 24.2075ZM29.3249 25.0002C29.5924 25.3294 29.5287 25.6587 29.1847 25.7685C28.9809 25.8416 28.2548 25.2075 28.2548 24.9636C28.2548 24.4026 28.879 24.4148 29.3249 25.0002ZM27.8089 26.1099C27.9873 26.2685 28.1274 26.488 28.1274 26.5977C28.1274 27.0611 27.3503 28.0002 26.9682 28.0002C26.7516 28.0002 25.8344 27.1221 25.8344 26.9026C25.8344 26.8416 26.051 26.5733 26.3185 26.2928C26.9045 25.7197 27.3503 25.6587 27.8089 26.1099ZM31.0191 26.6831C31.707 27.2563 32.5351 28.1099 32.7261 28.4514C32.9172 28.805 32.7389 29.0368 32.3567 28.927C32.0255 28.8172 30.4586 27.3172 30.2166 26.8782C29.8472 26.1953 30.3058 26.0977 31.0191 26.6831ZM34.3567 29.9148C34.6752 30.1587 35.6306 31.0246 36.4714 31.8416C38.3185 33.6099 38.9172 34.5367 38.0637 34.2807C37.9109 34.2319 36.9937 33.4514 36.0128 32.5368C34.3185 30.9636 33.3503 29.8904 33.3503 29.5977C33.3503 29.3416 33.7707 29.4636 34.3567 29.9148ZM19.172 34.5124C19.6179 34.9514 19.9491 35.3782 19.9109 35.4636C19.8344 35.6465 18.586 36.4148 17.9618 36.6587C17.5796 36.805 17.5032 36.7928 17.1975 36.5733C17.0064 36.4392 16.8408 36.1831 16.8153 36.0124C16.7516 35.5002 17.7835 33.7319 18.1529 33.7319C18.2803 33.7319 18.7261 34.0855 19.172 34.5124ZM39.9236 35.1587C40.4077 35.6587 40.4459 35.8294 40.1656 36.0489C40 36.1831 39.9109 36.1709 39.6306 35.9636C39.4395 35.8416 39.172 35.5855 39.0446 35.4026C38.8281 35.1343 38.8153 35.0489 38.9554 34.8904C39.2102 34.5977 39.4523 34.6709 39.9236 35.1587ZM16.3822 37.3538C16.4586 37.8538 14.7644 39.3416 14.3058 39.1709C13.9109 39.0368 14.1147 38.5855 14.9427 37.7928C15.5542 37.2075 15.8344 37.0124 16.051 37.0489C16.2421 37.0733 16.3567 37.1831 16.3822 37.3538Z" fill="#020A33"/>
<path d="M22.1019 28.1709C21.6943 28.3416 21.2612 28.5489 21.1465 28.6465C20.7644 28.9636 19.8599 29.3416 19.4777 29.3416C18.9937 29.3416 18.879 29.5246 19.1338 29.8904C19.4395 30.3294 20.1274 30.305 20.9045 29.8294C21.8599 29.2441 22.5096 28.9636 23.0701 28.8782C23.6816 28.7685 23.8217 28.488 23.465 28.1099C23.1847 27.8172 23.0064 27.8172 22.1019 28.1709Z" fill="#020A33"/>
<path d="M25.2357 30.1709C25.1593 30.2197 25.0574 30.4514 25.0064 30.6831C24.9554 30.9148 24.637 31.6221 24.293 32.2563C23.4777 33.7441 23.465 34.4636 24.2675 34.4636C24.5096 34.4636 24.5605 34.4026 24.5605 34.0977C24.5605 33.7075 24.6879 33.4148 25.4905 31.988C26.051 30.988 26.1019 30.4148 25.6688 30.2319C25.5032 30.1587 25.3121 30.1343 25.2357 30.1709Z" fill="#020A33"/>
<path d="M19.0537 59L16.5897 53.4H17.4537L19.7177 58.568H19.2217L21.5017 53.4H22.3017L19.8457 59H19.0537ZM22.9038 59V54.76H23.6718V59H22.9038ZM23.2878 53.944C23.1384 53.944 23.0131 53.896 22.9118 53.8C22.8158 53.704 22.7678 53.5867 22.7678 53.448C22.7678 53.304 22.8158 53.184 22.9118 53.088C23.0131 52.992 23.1384 52.944 23.2878 52.944C23.4371 52.944 23.5598 52.992 23.6558 53.088C23.7571 53.1787 23.8078 53.2933 23.8078 53.432C23.8078 53.576 23.7598 53.6987 23.6638 53.8C23.5678 53.896 23.4424 53.944 23.2878 53.944ZM26.9542 59.048C26.5275 59.048 26.1488 58.9547 25.8182 58.768C25.4875 58.5813 25.2262 58.3253 25.0342 58C24.8422 57.6693 24.7462 57.296 24.7462 56.88C24.7462 56.4587 24.8422 56.0853 25.0342 55.76C25.2262 55.4347 25.4875 55.1813 25.8182 55C26.1488 54.8133 26.5275 54.72 26.9542 54.72C27.3755 54.72 27.7515 54.8133 28.0822 55C28.4182 55.1813 28.6795 55.4347 28.8662 55.76C29.0582 56.08 29.1542 56.4533 29.1542 56.88C29.1542 57.3013 29.0582 57.6747 28.8662 58C28.6795 58.3253 28.4182 58.5813 28.0822 58.768C27.7515 58.9547 27.3755 59.048 26.9542 59.048ZM26.9542 58.376C27.2262 58.376 27.4688 58.3147 27.6822 58.192C27.9008 58.0693 28.0715 57.896 28.1942 57.672C28.3168 57.4427 28.3782 57.1787 28.3782 56.88C28.3782 56.576 28.3168 56.3147 28.1942 56.096C28.0715 55.872 27.9008 55.6987 27.6822 55.576C27.4688 55.4533 27.2262 55.392 26.9542 55.392C26.6822 55.392 26.4395 55.4533 26.2262 55.576C26.0128 55.6987 25.8422 55.872 25.7142 56.096C25.5862 56.3147 25.5222 56.576 25.5222 56.88C25.5222 57.1787 25.5862 57.4427 25.7142 57.672C25.8422 57.896 26.0128 58.0693 26.2262 58.192C26.4395 58.3147 26.6822 58.376 26.9542 58.376ZM30.2163 59V53.064H30.9843V59H30.2163ZM32.4507 59V54.76H33.2187V59H32.4507ZM32.8347 53.944C32.6853 53.944 32.56 53.896 32.4587 53.8C32.3627 53.704 32.3147 53.5867 32.3147 53.448C32.3147 53.304 32.3627 53.184 32.4587 53.088C32.56 52.992 32.6853 52.944 32.8347 52.944C32.984 52.944 33.1067 52.992 33.2027 53.088C33.304 53.1787 33.3547 53.2933 33.3547 53.432C33.3547 53.576 33.3067 53.6987 33.2107 53.8C33.1147 53.896 32.9893 53.944 32.8347 53.944ZM36.949 54.72C37.2957 54.72 37.5997 54.7867 37.861 54.92C38.1277 55.0533 38.3357 55.256 38.485 55.528C38.6344 55.8 38.709 56.144 38.709 56.56V59H37.941V56.648C37.941 56.2373 37.8397 55.928 37.637 55.72C37.4397 55.512 37.1597 55.408 36.797 55.408C36.525 55.408 36.2877 55.4613 36.085 55.568C35.8824 55.6747 35.725 55.832 35.613 56.04C35.5064 56.248 35.453 56.5067 35.453 56.816V59H34.685V54.76H35.421V55.904L35.301 55.6C35.4397 55.3227 35.653 55.1067 35.941 54.952C36.229 54.7973 36.565 54.72 36.949 54.72Z" fill="#495057"/>
</svg>
