<svg width="56" height="68" viewBox="0 0 56 68" fill="none" xmlns="http://www.w3.org/2000/svg">
<rect x="0.5" y="0.5" width="55" height="67" rx="11.5" fill="#FDFCFA"/>
<path d="M28.8638 11.8575C28.4969 12.1186 28.5206 12.3441 28.9466 12.8308C29.4319 13.3768 29.8934 14.3263 29.8934 14.7536C29.8934 14.9554 29.7395 15.7744 29.5502 16.5697C28.8638 19.4421 28.7928 21.2343 29.2898 22.8367C29.6094 23.8456 29.5975 24.0474 29.2307 24.3916C28.6271 24.9495 28.3194 25.6498 28.2603 26.5756C28.1774 27.8219 28.3076 28.4035 28.8283 29.2818C29.349 30.1364 29.3963 30.3857 29.1242 30.9079C28.7573 31.6201 28.0827 31.905 27.491 31.6082C26.9703 31.3352 26.8165 31.0148 26.8165 30.1008C26.8165 29.3293 26.7928 29.2462 26.5798 29.2462C26.2011 29.2462 25.9407 29.7922 25.9644 30.5162C26.0117 31.7269 26.6863 32.451 27.7395 32.451C28.6034 32.451 28.8993 32.2967 29.6685 31.4658L30.3549 30.7299L31.4082 30.7655C32.3786 30.7892 32.5206 30.7655 33.1005 30.4569C33.4555 30.267 33.8816 30.0296 34.0472 29.9228C34.3549 29.721 34.3668 29.721 35.2898 30.4094C35.7987 30.7892 36.5324 31.3234 36.9111 31.5964C37.6922 32.178 37.6685 32.1186 37.4082 33.9109C37.3017 34.5756 37.1833 35.3827 37.136 35.7151C37.0413 36.356 36.8165 36.5578 35.9289 36.7358C35.704 36.7714 34.0236 37.1987 32.2129 37.6616C30.3904 38.1246 28.8638 38.5044 28.8165 38.5044C28.781 38.5044 28.6981 38.0177 28.6508 37.4124C28.6034 36.8189 28.5206 36.2017 28.4614 36.0355C28.3194 35.6676 28.2011 35.6913 26.0946 36.4272L24.4851 36.997L23.9171 36.7714C23.1715 36.4866 22.3313 35.81 21.6685 34.9673C21.3727 34.5993 21.136 34.2551 21.136 34.2076C21.136 34.1602 21.4319 33.7922 21.8105 33.4005C23.9407 31.0979 24.639 29.1987 23.8342 27.8694C23.5502 27.3708 22.8046 27.0385 21.3845 26.7418C19.3608 26.3145 18.9585 25.9821 19.2188 24.9495C19.3608 24.3916 19.2543 24.0474 18.6626 23.2522C17.9407 22.267 18.0472 22.0533 19.7869 21.1869C21.0176 20.5815 21.9526 19.9999 22.2958 19.632C22.4259 19.4895 22.6981 19.0504 22.9111 18.6705C23.1123 18.2789 23.4082 17.8753 23.5739 17.7685C23.8461 17.5904 23.9052 17.6023 24.852 18.0771C25.8816 18.5875 26.2248 18.6705 26.2248 18.3976C26.2248 18.1246 25.1952 17.2937 24.5679 17.0682C24.2247 16.9495 23.9526 16.7596 23.9052 16.6409C23.7514 16.1186 25.3135 14.267 26.6626 13.3768C27.1833 13.0326 27.3608 12.8427 27.3845 12.5934C27.4319 12.1661 27.2188 12.178 26.2958 12.6527C25.3372 13.1631 23.704 14.8011 23.0532 15.905C22.781 16.3797 22.4733 16.7952 22.3668 16.8308C22.2129 16.8901 22.1892 16.997 22.2484 17.3768C22.4141 18.4213 21.6922 19.2047 19.5384 20.3916C18.7336 20.8308 17.9289 21.353 17.7514 21.5667C17.4792 21.8872 17.4437 22.0177 17.5029 22.54C17.5384 22.9317 17.6922 23.359 17.9407 23.7507C18.2958 24.3204 18.3194 24.451 18.3194 25.2818C18.3076 25.7803 18.3549 26.3026 18.4259 26.4213C18.6034 26.7418 19.3253 27.0504 20.781 27.3946C22.4496 27.7863 23.1123 28.083 23.278 28.4984C23.562 29.2462 22.994 30.6943 21.8934 31.9762C20.7573 33.3056 20.3904 33.9228 20.4733 34.3738C20.639 35.264 22.3076 37.0326 23.42 37.4955C24.0236 37.7447 25.1123 37.721 25.9407 37.4243C26.3194 37.2937 26.8046 37.1275 27.0176 37.0563C27.5147 36.8901 27.7159 36.9851 27.8105 37.4361C27.9171 38.0177 27.6922 38.6706 27.1597 39.2878C26.5443 39.9999 26.4614 40.2373 26.4614 41.2225C26.4614 42.5637 26.3668 42.54 29.2425 41.8278C31.8224 41.1869 32.3786 40.9732 32.3786 40.6171C32.3786 40.2848 31.7277 40.3441 29.5029 40.8901C27.6449 41.353 27.491 41.3768 27.3135 41.1869C27.1242 41.0088 27.1242 40.9614 27.349 40.5459C27.6094 40.0593 28.4378 39.5726 29.5502 39.264C33.278 38.2314 36.7218 37.4005 36.9348 37.4836C37.0532 37.5192 37.1123 37.7091 37.1123 38.0177C37.1123 38.7655 36.781 39.0385 35.4792 39.3827C34.1774 39.7269 33.5029 40.0355 33.5029 40.2848C33.5029 40.8189 37.3845 39.9524 37.8579 39.3115C38.0827 39.0148 38.1064 38.7418 38.1774 36.1661C38.2603 33.1631 38.3076 32.8901 38.9703 31.5726C39.42 30.6943 39.6212 30.0533 39.491 29.9228C39.3135 29.7447 38.9466 30.0296 38.4851 30.6824C38.2248 31.0266 37.9762 31.264 37.8934 31.2284C37.7277 31.1572 35.9526 29.899 35.4082 29.448C35.1005 29.1987 35.0532 29.0563 34.9111 27.9999C34.8165 27.359 34.639 26.6231 34.5088 26.3738C34.2011 25.7685 34.2129 25.4599 34.5798 24.902C35.207 23.9524 35.6804 23.5726 36.4496 23.3946C36.8401 23.2996 37.5502 23.1216 37.9999 23.0148C39.4437 22.6705 40.0946 22.172 40.3076 21.2225C40.5679 20.1305 40.0827 19.5133 38.9585 19.5133C38.1419 19.5133 37.6212 19.8575 36.2603 21.2818C35.1242 22.4806 34.852 22.6587 33.9762 22.8486C32.9111 23.0741 30.5679 23.4065 30.4141 23.3471C30.1537 23.2522 29.8697 22.1483 29.8105 20.9376C29.7514 19.81 29.8816 18.718 30.3076 16.8427C30.8638 14.3501 30.8638 14.3619 30.1064 12.8427C30.0472 12.7121 30.0827 12.5815 30.2129 12.451C30.4378 12.2254 30.9466 12.2611 32.9111 12.6409C35.3608 13.1157 37.0177 13.721 38.3431 14.6468C39.136 15.1809 40.6034 16.807 41.0768 17.6616C42.7218 20.6171 42.6626 24.1305 40.9111 27.0978C40.3313 28.0949 39.9526 28.8427 39.9526 29.0088C39.9526 29.3293 40.5088 29.0207 40.923 28.4747C41.42 27.81 42.5798 25.5192 42.781 24.7952C42.9821 24.0474 42.9466 20.2967 42.7336 19.4539C42.1774 17.3412 40.4496 14.991 38.5324 13.7566C36.5206 12.4628 34.2248 11.8456 31.0413 11.7269C29.3727 11.6676 29.0887 11.6795 28.8638 11.8575ZM39.4082 20.4154C39.6685 20.5222 39.6449 21.08 39.3608 21.4361C39.2307 21.6023 38.8993 21.8516 38.6153 21.9821C38.0236 22.2551 36.8165 22.445 36.71 22.267C36.6153 22.1127 37.2425 21.27 37.7277 20.902C38.3668 20.4035 38.9585 20.2373 39.4082 20.4154ZM34.1301 23.9287C34.1537 24.0474 33.9644 24.356 33.7159 24.629C33.2898 25.08 33.207 25.1157 32.4023 25.2106C31.3963 25.3174 31.0532 25.5192 30.71 26.1839C30.4969 26.5993 30.4733 26.7892 30.5443 27.3946C30.6863 28.6765 30.6626 28.8664 30.3668 29.1869C30.1182 29.4599 30.0709 29.4717 29.8934 29.3056C29.775 29.1987 29.5384 28.8427 29.349 28.4984C28.5443 27.0385 29.1478 25.2343 30.7218 24.4391C31.0295 24.2848 31.6922 24.0711 32.2129 23.9762C33.9644 23.632 34.0709 23.632 34.1301 23.9287ZM32.3786 26.2314C32.3786 26.5044 31.7632 27.4658 31.5857 27.4658C31.2662 27.4658 31.3727 26.6705 31.7514 26.2551C31.9881 25.9821 32.3786 25.9821 32.3786 26.2314ZM34.0827 27.3234C34.3076 28.3797 33.7987 29.1513 32.5324 29.7447C31.7632 30.0889 31.2662 30.172 31.1242 29.9465C31.0887 29.8753 31.3608 29.3649 31.7395 28.807C33.1833 26.6943 33.8579 26.267 34.0827 27.3234Z" fill="#020A33"/>
<path d="M23.207 21.175C23.065 21.4124 23.4792 21.8634 24.0472 22.0533C24.8401 22.3263 25.5739 22.3026 25.8697 22.0059C26.3549 21.5192 26.1064 21.3412 24.7455 21.2581C24.1656 21.2225 23.5975 21.1631 23.491 21.1156C23.3727 21.08 23.2543 21.1038 23.207 21.175Z" fill="#020A33"/>
<path d="M15.3727 29.6379C15.3253 29.7091 15.2543 30.7655 15.2188 31.9762L15.1597 34.172L14.3904 34.2432C13.4318 34.3382 13.0295 34.5162 12.7336 35.0029C12.3431 35.632 12.4141 36.1542 12.9703 36.6527C13.3608 37.0088 13.5384 37.08 13.9644 37.08C14.8165 37.08 15.5975 36.3916 15.8105 35.4658C15.8697 35.2165 15.9289 34.172 15.9289 33.1631C15.9289 30.6587 15.9526 30.6112 16.8401 30.9317C17.1715 31.0504 17.2662 31.0504 17.42 30.8842C17.6685 30.6468 17.5857 30.5162 16.9585 30.172C16.0709 29.6735 15.4792 29.4717 15.3727 29.6379ZM14.9821 35.1216C15.0887 35.2521 15.0768 35.359 14.8638 35.6557C14.4141 36.2848 13.8816 36.4272 13.5029 36.0118C13.1005 35.5726 13.6567 34.9673 14.4614 34.9554C14.6626 34.9435 14.8993 35.0266 14.9821 35.1216Z" fill="#020A33"/>
<path d="M19.4677 59L17.0037 53.4H17.8677L20.1317 58.568H19.6357L21.9157 53.4H22.7157L20.2597 59H19.4677ZM24.8135 59.048C24.3869 59.048 24.0082 58.9547 23.6775 58.768C23.3469 58.5813 23.0855 58.3253 22.8935 58C22.7015 57.6693 22.6055 57.296 22.6055 56.88C22.6055 56.4587 22.7015 56.0853 22.8935 55.76C23.0855 55.4347 23.3469 55.1813 23.6775 55C24.0082 54.8133 24.3869 54.72 24.8135 54.72C25.2349 54.72 25.6109 54.8133 25.9415 55C26.2775 55.1813 26.5389 55.4347 26.7255 55.76C26.9175 56.08 27.0135 56.4533 27.0135 56.88C27.0135 57.3013 26.9175 57.6747 26.7255 58C26.5389 58.3253 26.2775 58.5813 25.9415 58.768C25.6109 58.9547 25.2349 59.048 24.8135 59.048ZM24.8135 58.376C25.0855 58.376 25.3282 58.3147 25.5415 58.192C25.7602 58.0693 25.9309 57.896 26.0535 57.672C26.1762 57.4427 26.2375 57.1787 26.2375 56.88C26.2375 56.576 26.1762 56.3147 26.0535 56.096C25.9309 55.872 25.7602 55.6987 25.5415 55.576C25.3282 55.4533 25.0855 55.392 24.8135 55.392C24.5415 55.392 24.2989 55.4533 24.0855 55.576C23.8722 55.6987 23.7015 55.872 23.5735 56.096C23.4455 56.3147 23.3815 56.576 23.3815 56.88C23.3815 57.1787 23.4455 57.4427 23.5735 57.672C23.7015 57.896 23.8722 58.0693 24.0855 58.192C24.2989 58.3147 24.5415 58.376 24.8135 58.376ZM28.0757 59V54.76H28.8437V59H28.0757ZM28.4597 53.944C28.3103 53.944 28.185 53.896 28.0837 53.8C27.9877 53.704 27.9397 53.5867 27.9397 53.448C27.9397 53.304 27.9877 53.184 28.0837 53.088C28.185 52.992 28.3103 52.944 28.4597 52.944C28.609 52.944 28.7317 52.992 28.8277 53.088C28.929 53.1787 28.9797 53.2933 28.9797 53.432C28.9797 53.576 28.9317 53.6987 28.8357 53.8C28.7397 53.896 28.6143 53.944 28.4597 53.944ZM32.158 59.048C31.726 59.048 31.3394 58.9547 30.998 58.768C30.662 58.5813 30.398 58.3253 30.206 58C30.014 57.6747 29.918 57.3013 29.918 56.88C29.918 56.4587 30.014 56.0853 30.206 55.76C30.398 55.4347 30.662 55.1813 30.998 55C31.3394 54.8133 31.726 54.72 32.158 54.72C32.542 54.72 32.8834 54.7973 33.182 54.952C33.486 55.1013 33.7207 55.3253 33.886 55.624L33.302 56C33.1634 55.792 32.9927 55.64 32.79 55.544C32.5927 55.4427 32.3794 55.392 32.15 55.392C31.8727 55.392 31.6247 55.4533 31.406 55.576C31.1874 55.6987 31.014 55.872 30.886 56.096C30.758 56.3147 30.694 56.576 30.694 56.88C30.694 57.184 30.758 57.448 30.886 57.672C31.014 57.896 31.1874 58.0693 31.406 58.192C31.6247 58.3147 31.8727 58.376 32.15 58.376C32.3794 58.376 32.5927 58.328 32.79 58.232C32.9927 58.1307 33.1634 57.976 33.302 57.768L33.886 58.136C33.7207 58.4293 33.486 58.656 33.182 58.816C32.8834 58.9707 32.542 59.048 32.158 59.048ZM36.7058 59.048C36.2525 59.048 35.8525 58.9547 35.5058 58.768C35.1645 58.5813 34.8978 58.3253 34.7058 58C34.5192 57.6747 34.4258 57.3013 34.4258 56.88C34.4258 56.4587 34.5165 56.0853 34.6978 55.76C34.8845 55.4347 35.1378 55.1813 35.4578 55C35.7832 54.8133 36.1485 54.72 36.5538 54.72C36.9645 54.72 37.3272 54.8107 37.6418 54.992C37.9565 55.1733 38.2018 55.4293 38.3778 55.76C38.5592 56.0853 38.6498 56.4667 38.6498 56.904C38.6498 56.936 38.6472 56.9733 38.6418 57.016C38.6418 57.0587 38.6392 57.0987 38.6338 57.136H35.0258V56.584H38.2338L37.9218 56.776C37.9272 56.504 37.8712 56.2613 37.7538 56.048C37.6365 55.8347 37.4738 55.6693 37.2658 55.552C37.0632 55.4293 36.8258 55.368 36.5538 55.368C36.2872 55.368 36.0498 55.4293 35.8418 55.552C35.6338 55.6693 35.4712 55.8373 35.3538 56.056C35.2365 56.2693 35.1778 56.5147 35.1778 56.792V56.92C35.1778 57.2027 35.2418 57.456 35.3698 57.68C35.5032 57.8987 35.6872 58.0693 35.9218 58.192C36.1565 58.3147 36.4258 58.376 36.7298 58.376C36.9805 58.376 37.2072 58.3333 37.4098 58.248C37.6178 58.1627 37.7992 58.0347 37.9538 57.864L38.3778 58.36C38.1858 58.584 37.9458 58.7547 37.6578 58.872C37.3752 58.9893 37.0578 59.048 36.7058 59.048Z" fill="#495057"/>
<rect x="0.5" y="0.5" width="55" height="67" rx="11.5" stroke="#020A33"/>
</svg>
