<svg width="56" height="56" viewBox="0 0 56 56" fill="none" xmlns="http://www.w3.org/2000/svg">
<path d="M39.4394 10.746C38.777 11.1472 37.9745 11.5986 37.6687 11.7366C36.9554 12.0501 36.2675 12.7523 35.8089 13.6425C35.3248 14.5704 34.4203 15.1974 33.7197 15.0845C32.8025 14.9341 31.949 15.7742 31.949 16.84C31.949 17.4168 31.5413 18.1943 31.07 18.5203C30.8025 18.7084 30.5095 18.7836 29.9999 18.7836H29.312L29.3757 19.398C29.4012 19.7366 29.363 20.1253 29.2738 20.2883C29.0573 20.6896 29.2611 20.84 30.1401 20.9153L30.8662 20.978L30.9044 21.6551C30.9554 22.583 30.7643 22.9842 30.1528 23.2225C29.5668 23.4607 29.1974 23.4733 28.6496 23.2852C28.2038 23.1347 28.1401 22.8714 28.4585 22.282C28.5987 21.9936 28.6114 21.8557 28.5095 21.7303C28.3948 21.5924 28.2802 21.6049 27.8343 21.793C27.312 22.0187 27.2993 22.0187 26.9044 21.7805L26.4968 21.5297L26.2929 21.8055C26.1273 22.0438 26.1273 22.1441 26.2802 22.4827C26.4203 22.8463 26.4203 22.9341 26.2292 23.2476C25.9108 23.7617 24.9936 24.5391 24.4585 24.7648C24.191 24.8776 23.8471 24.9153 23.5796 24.8651L23.1592 24.7899L23.1719 25.4795C23.1847 26.0939 23.1464 26.2193 22.7261 26.7084C22.1656 27.3353 21.1592 28.188 20.9426 28.188C20.8662 28.188 20.6624 28.1002 20.4968 27.9874C20.242 27.7993 20.1783 27.7993 20.0127 27.9748C19.8471 28.1378 19.8471 28.2005 20.0127 28.5265C20.2038 28.8776 20.191 28.9278 19.949 29.3291C19.5923 29.9059 17.5796 31.7867 16.4076 32.6519C15.2993 33.467 14.3566 33.8808 12.3312 34.4576C9.63052 35.2225 9.24835 35.536 9.8216 36.4889C10.4585 37.5673 12.828 39.8494 13.2993 39.8494C13.5796 39.8494 13.5159 39.4356 13.1592 38.9592C12.9808 38.7334 12.2802 37.956 11.6178 37.2538C10.9554 36.5391 10.4331 35.9121 10.4713 35.8494C10.5095 35.7993 10.9044 35.6739 11.3375 35.5986C11.7834 35.5109 12.9936 35.1598 14.0382 34.8212L15.949 34.1943L16.9299 35.1598L17.898 36.1128L17.3375 37.7428C17.0318 38.6457 16.6751 39.8244 16.535 40.3635C16.4076 40.9027 16.2675 41.4043 16.2165 41.4795C16.1656 41.5548 15.9235 41.4419 15.605 41.1786C14.5987 40.3886 14.1401 40.3008 14.3057 40.9654C14.484 41.6551 15.7579 42.583 16.3439 42.4325C16.7006 42.3447 17.0827 41.7428 17.2738 40.978C17.7324 39.0469 17.8853 38.5579 18.3184 37.6425C18.9681 36.2632 19.707 35.2099 20.8534 34.0313C21.898 32.9654 22.3566 32.7021 22.9808 32.7899C23.8726 32.9278 24.6241 32.1629 24.828 30.9215C24.9044 30.4827 25.0063 30.0814 25.07 30.0187C25.121 29.9686 25.5668 29.8432 26.0382 29.7428C27.4904 29.4419 27.9363 28.9905 27.949 27.7867C27.949 26.8212 28.1273 26.6582 29.2993 26.5454C30.5222 26.4074 30.8534 26.0939 30.9681 24.9278C31.0955 23.7993 31.2738 23.5861 32.1656 23.4858C33.656 23.3228 34.0509 22.9968 34.1528 21.8181C34.2675 20.4262 35.2101 19.4607 36.1146 19.7742C36.3439 19.862 36.5859 19.8871 36.6624 19.8494C36.828 19.7491 36.828 19.3729 36.6496 19.1974C36.3948 18.9466 36.7388 18.3698 37.5923 17.5548C38.0254 17.1535 38.5859 16.7146 38.828 16.5892C39.5413 16.2381 40.484 15.2726 40.8152 14.5454C40.9808 14.1817 41.4267 13.4043 41.8216 12.8149C42.2038 12.2381 42.5222 11.7115 42.5222 11.6613C42.5222 11.5234 40.9426 10.0062 40.7898 10.0062C40.7261 10.0062 40.1146 10.3447 39.4394 10.746ZM41.121 11.4482C41.2101 11.5485 41.2356 11.7742 41.1847 11.9999C41.07 12.5391 40.4076 13.3918 40.1019 13.3918C39.8216 13.3918 38.9171 12.3008 39.0318 12.1128C39.0827 12.0375 39.3757 11.8244 39.6942 11.6237C40.3312 11.2225 40.8789 11.1598 41.121 11.4482ZM38.6496 13.4168C39.414 14.1065 39.6687 14.583 39.4394 14.8714C39.1847 15.1974 38.9171 15.3855 38.7006 15.398C38.4203 15.398 37.0445 14.0062 37.0445 13.7052C37.0445 13.3667 37.4904 12.8902 37.8216 12.8902C37.9617 12.8902 38.3312 13.1284 38.6496 13.4168ZM37.2356 15.2852L37.8726 15.9121L36.828 16.9153C35.7961 17.8933 35.363 18.1065 35.2101 17.7052C35.0827 17.3918 35.121 16.6645 35.2866 16.1378C35.4394 15.6112 36.2038 14.6457 36.4585 14.6457C36.535 14.6457 36.8917 14.9341 37.2356 15.2852ZM33.9617 16.2256C34.2929 16.4513 34.3439 17.0407 34.0509 17.2789C33.949 17.3667 33.7197 17.4294 33.5413 17.4294C32.8917 17.4294 32.5987 16.7397 33.0573 16.2507C33.312 15.9748 33.5923 15.9623 33.9617 16.2256ZM34.5987 18.4325C34.8662 18.6958 34.7643 18.9968 34.2802 19.4106C33.4522 20.1253 32.3312 20.4764 31.6433 20.2131C31.1082 20.0124 31.7324 18.9968 32.6369 18.583C33.3375 18.257 34.3439 18.1817 34.5987 18.4325ZM33.2356 21.4921C33.4394 21.7428 33.2738 22.257 32.8917 22.4952C32.6369 22.6707 32.5095 22.6833 32.2675 22.5704C32.0127 22.445 31.949 22.3322 31.949 21.9309C31.949 21.5046 31.9999 21.4168 32.3057 21.3165C32.7006 21.1911 33.0318 21.2413 33.2356 21.4921ZM27.8216 24.5265C27.9363 25.304 27.6942 26.0062 27.2356 26.2444C26.7388 26.4952 25.5413 26.4952 25.3248 26.2444C25.1974 26.0939 25.1974 25.9811 25.2993 25.7679C25.5159 25.2914 26.6878 24.1002 27.1337 23.8871C27.6178 23.6488 27.6942 23.724 27.8216 24.5265ZM29.9108 24.4513C30.3312 24.9027 30.2292 25.3165 29.6305 25.5422C29.3503 25.6425 29.2356 25.6175 28.9681 25.4168C28.5859 25.1284 28.5477 24.8526 28.8407 24.4513C29.0827 24.1002 29.5668 24.1002 29.9108 24.4513ZM24.6369 27.2601C24.6878 27.4356 24.6878 27.862 24.6624 28.2131C24.5605 29.141 24.1783 29.4419 23.1082 29.4419C21.7579 29.4419 21.7579 29.0657 23.0827 27.7491C24.0254 26.8338 24.4968 26.6833 24.6369 27.2601ZM26.8534 27.561C26.9936 27.699 27.1082 27.8871 27.1082 27.9874C27.1082 28.188 26.4968 28.8149 26.3057 28.8149C26.0127 28.8149 25.707 28.3886 25.707 27.9874C25.707 27.3353 26.3694 27.0845 26.8534 27.561ZM21.5031 30.1817C21.8216 30.7711 21.5413 31.8871 20.9044 32.5892C20.6624 32.8526 20.3566 33.0783 20.242 33.0783C20.1273 33.0783 19.7834 32.8275 19.4777 32.5265C18.8152 31.862 18.828 31.8244 20.0382 30.7209C20.9171 29.9059 21.2738 29.7805 21.5031 30.1817ZM23.7197 30.5955C23.9745 30.9592 23.9745 31.2476 23.7197 31.4983C23.4904 31.7366 22.8917 31.7617 22.6751 31.5485C22.4713 31.3479 22.4713 30.6707 22.6751 30.4701C22.9299 30.2193 23.5031 30.2946 23.7197 30.5955ZM18.9681 33.0657C19.2484 33.3291 19.4649 33.63 19.4649 33.7429C19.4649 34.0563 18.6496 35.1472 18.3821 35.1849C18.2165 35.2099 17.8853 34.9717 17.3757 34.4701L16.6369 33.7303L17.3757 33.1535C17.7961 32.84 18.2038 32.5767 18.3057 32.5767C18.3948 32.5767 18.7006 32.7899 18.9681 33.0657Z" fill="#020A33"/>
</svg>
