<svg width="56" height="56" viewBox="0 0 56 56" fill="none" xmlns="http://www.w3.org/2000/svg">
<path d="M29.7391 11.9292C29.4782 12.2116 29.4285 12.3763 29.3912 13.3528L29.3416 14.4704L28.6832 14.4587C27.8881 14.4351 27.4161 14.6469 27.0434 15.1645C26.2111 16.341 27.2173 17.7998 28.7329 17.5998C29.8384 17.4587 30.0745 16.9528 30.2484 14.3175C30.3105 13.341 30.385 12.5292 30.4099 12.5057C30.4347 12.4822 30.7329 12.6234 31.0807 12.8116C31.7639 13.2234 31.8881 13.2469 32.0869 13.0116C32.2981 12.7763 32.1614 12.5645 31.503 12.141C30.6583 11.5998 30.1366 11.541 29.7391 11.9292ZM28.795 15.294C29.2049 15.4351 29.354 16.1057 29.0683 16.5292C28.795 16.9175 28.1242 16.941 27.7515 16.5645C27.4534 16.2587 27.4534 16.1998 27.7018 15.7528C27.8509 15.4704 28.0496 15.3175 28.4596 15.1881C28.472 15.1763 28.6211 15.2234 28.795 15.294Z" fill="#020A33"/>
<path d="M20.4223 12.4822C20.2235 12.7528 19.8012 13.3881 19.4782 13.894C19.0186 14.6587 18.8695 14.7998 18.7329 14.694C18.6335 14.6234 18.5589 14.4822 18.5589 14.3881C18.5589 13.8822 17.59 13.1763 16.8944 13.1763C16.3478 13.1763 16.236 13.494 15.6273 16.7057C15.2919 18.4822 15.118 19.1763 14.9068 19.4469C14.236 20.3057 14.0621 20.6234 13.7763 21.3881C13.4161 22.3763 13.3912 22.6822 13.677 22.7881C13.9254 22.8822 14.1117 22.6351 14.6459 21.5175C15.2422 20.2822 14.944 20.4822 18.1117 19.2704C20.5465 18.341 21.913 17.8822 22.236 17.8822C22.3975 17.8822 22.6335 18.0469 22.8074 18.2587C23.3167 18.8939 24.385 20.741 24.472 21.1292C24.5341 21.4351 24.4968 21.5057 24.2111 21.6234C23.7639 21.8234 23.4658 21.6469 22.6583 20.7292C21.9378 19.8939 21.7763 19.7998 21.3664 19.9763C20.8944 20.1763 18.7826 22.1528 18.5962 22.5528C18.4968 22.7763 18.4347 23.3763 18.4347 24.0351C18.4347 25.3175 18.6459 25.7528 19.4782 26.1881C20.6335 26.7998 21.7639 26.6469 22.4968 25.7881C23.1304 25.0351 23.1801 24.9998 23.7142 24.6587C24.6211 24.0704 25.1552 24.3292 24.7701 25.1528C24.3353 26.0704 23.1552 27.8704 22.9068 27.9998C22.7826 28.0704 21.7763 28.3528 20.6707 28.6469C17.8757 29.3763 18.0124 29.2939 17.9627 30.3057L17.9254 31.141L16.2235 31.9175C14.4471 32.741 13.9378 32.8587 13.7267 32.4822C13.354 31.8351 13.2546 27.2469 13.5403 24.6116C13.6273 23.8704 13.6273 23.8587 13.3291 23.9057C12.9689 23.9528 12.795 24.3881 12.5341 25.9292C12.1987 27.8469 12.385 30.9645 12.9192 32.8469C12.9689 32.9881 12.8198 33.141 12.4844 33.3528C12.0621 33.5998 11.9751 33.7175 11.9751 34.0351C11.9751 34.5645 12.6086 36.0704 13.3788 37.3998C13.9875 38.4469 14.236 38.7528 15.0062 39.3998C15.1925 39.5528 15.677 40.1763 16.0993 40.7881C16.8447 41.8704 17.1925 42.1998 17.4534 42.0469C17.7018 41.9057 17.4658 41.341 16.708 40.1998C16.2857 39.5763 15.9503 38.9998 15.9503 38.9175C15.9503 38.8351 16.3105 38.5881 16.7453 38.3763C17.1925 38.1528 18.236 37.5881 19.0807 37.1057C19.9254 36.6234 20.6707 36.2351 20.7577 36.2351C20.8447 36.2351 21.2546 36.7175 21.677 37.2939C22.4844 38.4116 22.8322 38.7057 23.0683 38.4822C23.2173 38.341 22.8695 37.6116 22.0248 36.2704C21.7267 35.7763 21.677 35.6116 21.7763 35.4234C21.8509 35.2939 21.913 35.0704 21.913 34.9292C21.913 34.6704 21.0683 32.7763 20.2981 31.3528C19.913 30.6234 19.8136 30.5292 19.4037 30.4351C18.4596 30.2234 18.9565 29.9057 20.9813 29.4234C22.385 29.0939 23.4037 28.741 23.6894 28.4939C24.0248 28.2116 25.2049 26.2939 25.6521 25.2939C25.9503 24.6351 26.0124 24.3528 25.9503 23.9998C25.8757 23.5645 25.8757 23.5528 26.5962 23.1528C27.3416 22.7292 29.354 21.6822 31.5403 20.5881C32.2235 20.2469 33.0683 19.8234 33.4037 19.6469C33.7515 19.4704 35.0062 18.8234 36.1987 18.2116C39.7142 16.4116 40.0248 16.2234 40.236 15.8116C40.3726 15.541 40.385 15.3528 40.3105 15.141C40.1366 14.7292 39.677 14.3528 39.354 14.3528C39.1304 14.3528 33.6149 16.9057 32.2857 17.6234C32.149 17.694 30.7577 18.3998 29.1801 19.1881C27.6148 19.9763 26.2111 20.6939 26.0745 20.7763C25.59 21.0939 25.4161 20.9763 24.8819 19.9645C24.236 18.7528 23.5279 17.7763 23.031 17.3645C22.708 17.1175 22.5093 17.0587 21.9627 17.0587C21.59 17.0587 21.2919 17.0116 21.2919 16.9528C21.2919 16.8822 21.6024 16.2351 21.9875 15.5057C22.5714 14.3645 22.6707 14.1057 22.6211 13.6822C22.5589 13.1057 22.0745 12.4351 21.5403 12.1763C20.9937 11.9057 20.8322 11.9528 20.4223 12.4822ZM21.6645 13.3998C21.7267 13.5292 21.7888 13.7292 21.7888 13.8469C21.7888 14.1057 20.149 17.2351 19.8385 17.5645C19.6024 17.8116 18.4223 18.3528 18.1242 18.3528C17.8012 18.3528 17.9254 18.0351 18.8198 16.5645C20.7577 13.3881 20.9192 13.1763 21.2298 13.1763C21.4037 13.1763 21.59 13.2704 21.6645 13.3998ZM17.677 14.4234C17.9751 15.0469 17.677 16.5175 16.9813 17.8469C16.4471 18.8939 16.1987 19.1292 16.1987 18.5998C16.1987 18.3881 16.2732 17.8469 16.3726 17.3763C16.472 16.9057 16.6459 16.0234 16.7577 15.4116C16.8819 14.7998 17.031 14.2351 17.0931 14.1528C17.2546 13.9645 17.503 14.0704 17.677 14.4234ZM39.4534 15.3528C39.4782 15.5175 36.0993 17.341 31.5403 19.6469C30.4347 20.2116 29.3416 20.7645 28.4968 21.1998C27.4409 21.7528 26.0124 22.4587 22.4968 24.2234C21.5403 24.6939 21.2919 24.741 21.2919 24.4116C21.2919 24.2587 22.4968 23.5175 24.149 22.6822C24.5962 22.4469 25.2919 22.0939 25.7018 21.8822C26.1117 21.6704 27.2546 21.0939 28.2484 20.5881C29.2422 20.0939 30.6086 19.3998 31.2919 19.0587C33.8757 17.741 39.2422 15.1881 39.3416 15.2116C39.4037 15.2234 39.4534 15.294 39.4534 15.3528ZM22.2608 21.6351C22.8447 22.4116 22.8571 22.3763 21.826 22.8704C20.1987 23.6351 19.8881 24.341 20.7826 25.1998C21.3664 25.741 21.2422 25.8587 20.3478 25.6234C19.6273 25.4351 19.2919 25.0351 19.2173 24.2704C19.1428 23.541 19.3416 22.8116 19.7763 22.341C20.1739 21.8939 21.4161 20.941 21.6149 20.941C21.6894 20.941 21.9875 21.2587 22.2608 21.6351ZM20.1863 32.9763C20.6583 33.9057 21.0434 34.7292 21.0434 34.7998C21.0434 35.0234 17.1428 37.3528 15.5527 38.0704C15.1055 38.2704 15.0807 38.2704 14.8447 38.0704C14.5838 37.8469 13.1428 35.1763 12.9689 34.5881C12.8322 34.1528 12.9813 34.0469 14.4099 33.541C15.5279 33.1528 17.2422 32.3645 18.3726 31.7175C18.7826 31.4822 19.1676 31.2939 19.2173 31.2939C19.2794 31.2939 19.7018 32.0587 20.1863 32.9763Z" fill="#020A33"/>
<path d="M18.9068 33.3057C18.6335 33.4469 18.6211 33.6822 18.8695 33.8822C19.1676 34.1175 19.7018 33.8469 19.6521 33.494C19.6148 33.1998 19.2422 33.1057 18.9068 33.3057Z" fill="#020A33"/>
<path d="M32.0496 25.3292C31.7763 25.5881 31.354 26.9057 31.354 27.5057C31.354 27.8704 31.0683 28.0116 30.5093 27.9292C29.8757 27.8351 29.1676 28.0587 28.9068 28.4351C28.6707 28.7645 28.6583 29.6704 28.8695 30.0587C29.0683 30.4234 29.6397 30.7057 30.149 30.7057C30.6086 30.7057 31.2422 30.3057 31.4906 29.8587C31.6397 29.5881 32.0248 28.2822 32.149 27.6234C32.1987 27.3881 32.3229 26.9175 32.4223 26.5763L32.6211 25.9645L34.1242 26.0351C34.9565 26.0704 35.8136 26.1528 36.0124 26.2116C36.3478 26.3057 36.385 26.3528 36.3478 26.7175C36.3229 26.941 36.2235 27.3881 36.1366 27.7175L35.9503 28.3292L35.1676 28.2704C34.4347 28.2116 34.3726 28.2234 33.9999 28.5528C33.7763 28.7528 33.5652 29.0469 33.5155 29.2234C33.4037 29.6822 33.5652 30.3057 33.9006 30.6704C34.149 30.9645 34.2732 30.9998 34.8944 30.9998C35.5403 30.9998 35.6397 30.9645 35.9378 30.6116C36.4968 29.9881 37.2298 27.5528 37.2422 26.2469L37.2546 25.6116L36.5714 25.4587C36.1987 25.3763 35.4161 25.2822 34.8322 25.2351C34.2484 25.1998 33.4534 25.141 33.0683 25.1057C32.4347 25.0587 32.3105 25.0822 32.0496 25.3292ZM30.5838 28.8587C30.7453 28.9763 30.7826 29.3881 30.6583 29.694C30.5589 29.941 30.0124 29.9292 29.7142 29.6822C29.0683 29.1292 29.8757 28.341 30.5838 28.8587ZM35.354 29.1998C35.6521 29.4351 35.7018 29.7175 35.503 29.9881C35.2919 30.2587 34.7204 30.3175 34.4844 30.094C34.3229 29.941 34.2732 29.2704 34.4223 29.141C34.5589 29.0116 35.1428 29.0469 35.354 29.1998Z" fill="#020A33"/>
</svg>
