<svg width="56" height="56" viewBox="0 0 56 56" fill="none" xmlns="http://www.w3.org/2000/svg">
<rect x="0.5" y="0.5" width="55" height="55" rx="11.5" fill="#FDFCFA"/>
<path d="M23.7615 11.3878C23.7615 11.5371 23.6953 12.8356 23.6291 14.2684C23.5099 16.7162 23.3377 17.7908 22.9536 18.6266C22.5033 19.6117 20.7947 21.7311 16.0132 27.2535C11.5364 32.4177 11.2847 32.746 11.0463 33.8505C10.9536 34.2684 10.9006 35.358 10.9403 36.6117C10.9933 39.1192 11.1788 39.6714 12.5033 41.1341C13.7086 42.4774 14.8211 42.9848 16.6092 42.9848C18.9404 42.9998 19.4702 42.6266 23.8145 37.7759L26.7152 34.5371L27.3907 35.2983L28.0662 36.0595L27.2715 36.9699C26.8344 37.4774 25.9602 38.4177 25.3245 39.0595C24.4238 39.9699 24.0662 40.2386 23.7748 40.2386C22.9006 40.2386 23.1655 40.8804 24.8079 42.6714C25.7218 43.6863 26.0662 43.9848 26.3046 43.9401C26.5165 43.9102 26.6225 43.7759 26.649 43.5221C26.7284 42.9251 27.3774 42.1192 32.5562 36.2087C41.9602 25.4923 44.2516 22.7759 44.5298 22.0296C44.649 21.7162 44.7284 20.9998 44.7284 20.2236C44.7284 18.7012 44.437 17.8804 43.5231 16.9251C42.7152 16.0893 41.9337 15.7311 40.8609 15.7162C39.0066 15.6863 39.3774 15.3729 32.7947 22.6415C29.5364 26.2236 25.9205 30.2833 24.7682 31.6565C23.6026 33.0296 22.5165 34.2386 22.3576 34.3729C22.0529 34.5968 22.0132 34.5669 20.649 32.9998C19.4834 31.6565 19.2053 31.4177 18.9006 31.4624C18.7152 31.4923 18.5298 31.5968 18.49 31.7012C18.4635 31.8057 18.8741 32.4027 19.4039 33.0445C19.947 33.6714 20.6092 34.4774 20.9006 34.8356L21.4304 35.4624L20.3841 36.6565C19.8013 37.3132 19.2185 37.8505 19.086 37.8505C18.9536 37.8505 18.3178 37.2833 17.6953 36.5968C16.543 35.358 15.788 34.7759 15.5496 34.9401C15.192 35.1938 15.4966 35.746 16.8476 37.2983L18.2649 38.9401L17.7351 39.2087C16.6754 39.7609 15.5761 39.5072 14.7019 38.5371C13.8278 37.552 13.5496 36.0744 14.0264 35.0296C14.4238 34.149 21.8675 25.7162 24.3708 23.2833C26.3443 21.3729 28.3973 20.7759 31.5231 21.1938C32.6887 21.358 32.8079 21.2087 32.2781 20.343C32.0794 19.9998 30.2119 17.7908 28.1324 15.4177C25.3907 12.2983 24.2781 11.1341 24.0662 11.1341C23.8675 11.1341 23.7615 11.2236 23.7615 11.3878ZM26.437 15.1042C28.8874 17.7908 30.4106 19.6266 30.3178 19.7908C30.2781 19.8654 29.9072 19.9401 29.5099 19.9401C27.3774 19.9401 24.9668 21.0445 23.298 22.7759C18.8079 27.4326 13.841 33.1639 13.1655 34.4475C12.8874 34.9848 12.8344 35.2684 12.8344 36.2833C12.8344 37.7311 13.0728 38.358 13.9867 39.3729C14.7947 40.2535 15.6291 40.5968 16.8741 40.5072C17.7218 40.4624 17.8278 40.4177 18.6754 39.6714C19.1788 39.2386 21.4437 36.8207 23.6953 34.2983C34.8079 21.8804 39.0728 17.2684 39.6158 16.9998C39.8543 16.8953 40.3973 16.8057 40.8344 16.8057C41.4966 16.8057 41.7086 16.8804 42.2516 17.2833C43.4702 18.2236 43.9735 19.5669 43.7086 21.2087C43.5894 21.8804 43.3377 22.2087 37.6291 28.7908C31.8278 35.4774 26.2781 41.5371 25.8145 41.6714C25.245 41.8356 25.139 41.5371 25.4966 40.8505C25.6688 40.5221 28.5562 37.149 31.9072 33.343C38.9536 25.358 41.8808 21.9401 42.3708 21.1192C42.6755 20.6415 42.7152 20.4475 42.6357 19.9848C42.4503 18.8804 41.2053 17.9401 40.2516 18.2087C39.8278 18.3281 36.543 21.8505 27.5894 31.8207C23.5496 36.3281 19.8675 40.343 19.4039 40.7311C18.3178 41.6415 17.4039 41.955 16.1192 41.8207C14.3841 41.6565 12.8344 40.4774 12.1589 38.8207C11.4834 37.1789 11.4834 35.2983 12.1192 33.9102C12.6225 32.8057 13.3642 31.8953 19.4702 24.8654C22.5298 21.3281 23.4702 20.0893 23.8807 18.9998C24.3311 17.8207 24.7019 16.0893 24.7814 14.7908C24.8211 14.0893 24.9006 13.5371 24.9668 13.552C25.0198 13.5818 25.6821 14.2684 26.437 15.1042ZM41.4702 19.7311C41.8278 20.358 41.2582 21.1192 35.7351 27.4027L30.3973 33.4475L29.8013 32.7759C29.4702 32.4177 29.192 32.0296 29.192 31.9102C29.192 31.552 39.3774 20.2535 40.437 19.4624C40.7947 19.1789 41.2053 19.2833 41.4702 19.7311ZM29.3245 34.6415C28.9006 35.149 28.6357 35.1192 28.1456 34.4923C27.6556 33.8654 27.6291 33.4923 28.0264 33.0744L28.3178 32.7759L28.9801 33.5072L29.6423 34.2535L29.3245 34.6415Z" fill="#020A33"/>
<rect x="0.5" y="0.5" width="55" height="55" rx="11.5" stroke="#020A33"/>
</svg>
