<svg width="24" height="24" viewBox="0 0 24 24" fill="none" xmlns="http://www.w3.org/2000/svg">
<path fill-rule="evenodd" clip-rule="evenodd" d="M19 9.00005C19.0007 10.1287 18.7283 11.2407 18.2058 12.2411C17.6834 13.2416 16.9266 14.1007 16 14.7451V22.0001H13.414L12 20.5861L10.586 22.0001H8V14.7451C7.01224 14.0573 6.21851 13.1264 5.69547 12.0424C5.17243 10.9583 4.93775 9.75771 5.0141 8.5565C5.09044 7.35529 5.47522 6.19407 6.13129 5.18496C6.78736 4.17585 7.69255 3.35296 8.75944 2.79575C9.82632 2.23855 11.0189 1.96585 12.2219 2.00401C13.4249 2.04216 14.5978 2.38987 15.6272 3.01356C16.6566 3.63725 17.5079 4.51584 18.0987 5.56449C18.6895 6.61314 18.9999 7.79642 19 9.00005ZM17 9.00005C17 10.3261 16.4732 11.5979 15.5355 12.5356C14.5979 13.4733 13.3261 14.0001 12 14.0001C10.6739 14.0001 9.40215 13.4733 8.46447 12.5356C7.52679 11.5979 7 10.3261 7 9.00005C7 7.67397 7.52679 6.4022 8.46447 5.46452C9.40215 4.52684 10.6739 4.00005 12 4.00005C13.3261 4.00005 14.5979 4.52684 15.5355 5.46452C16.4732 6.4022 17 7.67397 17 9.00005ZM10 19.7571L12 17.7571L14 19.7571V15.7101C13.3509 15.9029 12.6772 16.0006 12 16.0001C11.3228 16.0006 10.6491 15.9029 10 15.7101V19.7571Z" fill="#FDFCFA"/>
</svg>
