<svg width="24" height="24" viewBox="0 0 24 24" fill="none" xmlns="http://www.w3.org/2000/svg">
<path d="M5.71429 18.0002L9.49276 21.9676C9.99912 22.4993 10.7013 22.8002 11.4355 22.8002C12.7496 22.8002 13.8612 21.8465 13.9938 20.539C14.1835 18.6683 14.4 15.7187 14.4 12.0002C14.4 8.28165 14.1835 5.33204 13.9938 3.46134C13.8612 2.15389 12.7496 1.2002 11.4355 1.2002C10.7013 1.2002 9.99912 1.50112 9.49276 2.0328L5.71429 6.0002C3.74122 6.0002 2.75468 6.0002 1.99771 6.37643C1.29492 6.72573 0.725537 7.29512 0.376236 7.9979C0 8.75488 0 9.74141 0 11.7145V12.2859C0 14.259 0 15.2455 0.376236 16.0025C0.725537 16.7053 1.29492 17.2747 1.99771 17.624C2.75468 18.0002 3.74122 18.0002 5.71429 18.0002Z" fill="#FDFCFA"/>
<path d="M20.5757 3.02408C20.2575 2.64222 19.69 2.5906 19.3082 2.9088C18.9263 3.22699 18.8747 3.7945 19.1929 4.17636C20.8563 6.17256 21.9 8.93151 21.9 12.0002C21.9 15.0689 20.8563 17.8279 19.1929 19.8241C18.8747 20.2059 18.9263 20.7734 19.3082 21.0916C19.69 21.4098 20.2575 21.3582 20.5757 20.9764C22.5196 18.6436 23.7 15.4726 23.7 12.0002C23.7 8.52784 22.5196 5.35688 20.5757 3.02408Z" fill="#FDFCFA"/>
<path d="M18.5574 6.71103C18.2871 6.29384 17.7299 6.17469 17.3127 6.44491C16.8955 6.71512 16.7764 7.27238 17.0466 7.68957C17.8341 8.90551 18.3 10.3905 18.3 12.0003C18.3 13.6101 17.8341 15.0951 17.0466 16.311C16.7764 16.7282 16.8955 17.2855 17.3127 17.5557C17.7299 17.8259 18.2871 17.7068 18.5574 17.2896C19.5323 15.7843 20.1 13.9599 20.1 12.0003C20.1 10.0407 19.5323 8.21629 18.5574 6.71103Z" fill="#FDFCFA"/>
</svg>
