<svg width="21" height="20" viewBox="0 0 21 20" fill="none" xmlns="http://www.w3.org/2000/svg">
<path fill-rule="evenodd" clip-rule="evenodd" d="M13.0027 2.49635L15.4976 4.99269L12.9791 7.51107L10.4608 10.0295V8.01512V6.0007L9.81001 6.05522C7.49125 6.24967 5.36421 8.04648 4.65912 10.4066C4.42381 11.194 4.42258 12.8408 4.65658 13.6081C5.55819 16.564 8.36866 18.4246 11.2688 17.9856C14.0657 17.5623 16.2012 15.3639 16.4587 12.6429L16.5144 12.0544H17.5035H18.4926L18.4364 12.8497C18.368 13.8194 17.9474 15.1411 17.4274 16.02C16.5619 17.4828 15.4733 18.4938 13.9919 19.2104C12.6333 19.8675 12.003 20.0065 10.4137 19.9998C9.25897 19.995 8.9907 19.9625 8.25143 19.7384C6.00866 19.0583 4.30799 17.6304 3.30553 15.5855C2.62803 14.2037 2.50911 13.6771 2.50751 12.0544C2.50609 10.6101 2.60242 10.0658 3.06033 8.93217C3.41363 8.0575 3.86034 7.38 4.61712 6.57114C6.02024 5.07151 7.77035 4.22235 9.91744 3.99937L10.4571 3.94334L10.4824 1.97167L10.5078 0L13.0027 2.49635ZM12.5794 11.0631C13.4191 11.3698 13.4272 11.3758 13.4561 11.7135C13.4891 12.0991 13.463 12.1087 12.909 11.9132C12.6888 11.8355 12.4928 11.7719 12.4734 11.7719C12.454 11.7719 12.4382 12.5135 12.4382 13.4198V15.0676H12.0144H11.5907V12.9019C11.5907 11.7107 11.6225 10.74 11.6613 10.7448C11.7001 10.7495 12.1133 10.8927 12.5794 11.0631ZM9.66132 11.0478C10.0823 11.4688 10.2062 11.9884 10.1597 13.1367C10.1019 14.5658 9.72564 15.0665 8.70915 15.0672C7.65152 15.068 7.23588 14.3943 7.28616 12.7606C7.33296 11.2388 7.70783 10.7372 8.79879 10.7365C9.29701 10.7361 9.3794 10.7659 9.66132 11.0478ZM8.33316 11.5936C8.17817 11.7651 8.15378 11.9426 8.15378 12.9021C8.15378 13.8616 8.17807 14.0391 8.33316 14.2104C8.43184 14.3193 8.60133 14.4078 8.70981 14.4071C9.19258 14.4035 9.33081 14.0686 9.33081 12.9019C9.33081 11.7352 9.19258 11.4003 8.70981 11.3967C8.60133 11.3959 8.43184 11.4845 8.33316 11.5936Z" fill="white"/>
</svg>
