<svg width="20" height="20" viewBox="0 0 20 20" fill="none" xmlns="http://www.w3.org/2000/svg">
<path fill-rule="evenodd" clip-rule="evenodd" d="M7.49732 2.49635L5.00238 4.99269L7.52086 7.51107L10.0392 10.0295V8.01512V6.0007L10.69 6.05522C13.0087 6.24967 15.1358 8.04648 15.8409 10.4066C16.0762 11.194 16.0774 12.8408 15.8434 13.6081C14.9418 16.564 12.1313 18.4246 9.23123 17.9856C6.43431 17.5623 4.2988 15.3639 4.04127 12.6429L3.98561 12.0544H2.99653H2.00745L2.06357 12.8497C2.13202 13.8194 2.55265 15.1411 3.07261 16.02C3.93806 17.4828 5.02668 18.4938 6.50814 19.2104C7.86672 19.8675 8.49704 20.0065 10.0863 19.9998C11.241 19.995 11.5093 19.9625 12.2486 19.7384C14.4913 19.0583 16.192 17.6304 17.1945 15.5855C17.872 14.2037 17.9909 13.6771 17.9925 12.0544C17.9939 10.6101 17.8976 10.0658 17.4397 8.93217C17.0864 8.0575 16.6397 7.38 15.8829 6.57114C14.4798 5.07151 12.7297 4.22235 10.5826 3.99937L10.0429 3.94334L10.0176 1.97167L9.99216 0L7.49732 2.49635ZM7.92058 11.0631C7.08093 11.3698 7.07283 11.3758 7.04392 11.7135C7.01087 12.0991 7.03696 12.1087 7.59101 11.9132C7.81116 11.8355 8.00721 11.7719 8.0266 11.7719C8.046 11.7719 8.06182 12.5135 8.06182 13.4198V15.0676H8.48555H8.90928V12.9019C8.90928 11.7107 8.87746 10.74 8.83866 10.7448C8.79987 10.7495 8.38668 10.8927 7.92058 11.0631ZM10.8387 11.0478C10.4177 11.4688 10.2938 11.9884 10.3403 13.1367C10.3981 14.5658 10.7744 15.0665 11.7908 15.0672C12.8485 15.068 13.2641 14.3943 13.2138 12.7606C13.167 11.2388 12.7922 10.7372 11.7012 10.7365C11.203 10.7361 11.1206 10.7659 10.8387 11.0478ZM12.1668 11.5936C12.3218 11.7651 12.3462 11.9426 12.3462 12.9021C12.3462 13.8616 12.3219 14.0391 12.1668 14.2104C12.0682 14.3193 11.8987 14.4078 11.7902 14.4071C11.3074 14.4035 11.1692 14.0686 11.1692 12.9019C11.1692 11.7352 11.3074 11.4003 11.7902 11.3967C11.8987 11.3959 12.0682 11.4845 12.1668 11.5936Z" fill="white"/>
</svg>
