<svg width="800" height="648" viewBox="0 0 800 648" fill="none" xmlns="http://www.w3.org/2000/svg">
<path d="M531.971 170.458C531.971 169.101 531.946 167.744 531.896 166.386V0.508789H267.256V219.375V221.942C267.256 294.355 326.62 353.267 399.588 353.267C471.685 353.267 530.504 295.737 531.871 224.534H531.896V221.967V219.4V173.05H531.971V170.458ZM505.956 167.892C504.564 110.88 457.435 64.9004 399.638 64.9004C341.841 64.9004 294.712 110.88 293.319 167.892H272.553C273.921 99.5022 330.425 44.292 399.663 44.292C468.452 44.292 524.632 98.7866 526.72 166.559V167.892H505.956ZM480.067 167.892H480.017C478.649 125.071 443.135 90.642 399.638 90.642C356.166 90.642 320.651 125.071 319.259 167.892H319.184H298.468C299.86 113.718 344.701 70.0582 399.613 70.0582C454.55 70.0582 499.393 113.718 500.76 167.892H480.067ZM526.621 226.434C526.596 226.977 526.596 227.545 526.546 228.088C526.521 228.606 526.496 229.149 526.447 229.667C526.422 230.21 526.372 230.753 526.347 231.296C526.298 231.814 526.248 232.357 526.223 232.876C526.173 233.394 526.124 233.937 526.074 234.456C526.024 234.998 525.95 235.516 525.9 236.06C525.85 236.578 525.776 237.096 525.726 237.59C525.651 238.132 525.577 238.676 525.502 239.194C525.427 239.687 525.353 240.206 525.278 240.699C525.204 241.242 525.104 241.786 525.03 242.328C524.955 242.822 524.88 243.316 524.781 243.809C524.682 244.352 524.582 244.895 524.483 245.438C524.383 245.932 524.309 246.401 524.209 246.894C524.11 247.437 523.986 247.98 523.861 248.523C523.762 248.992 523.662 249.461 523.563 249.93C523.439 250.473 523.314 251.016 523.165 251.559C523.041 252.028 522.941 252.472 522.817 252.941C522.668 253.484 522.519 254.027 522.394 254.57C522.27 255.014 522.146 255.483 522.021 255.927C521.872 256.47 521.698 257.013 521.549 257.556C521.425 258.001 521.276 258.445 521.151 258.889C520.977 259.432 520.803 259.975 520.629 260.518C520.48 260.962 520.356 261.382 520.207 261.801C520.033 262.344 519.834 262.887 519.635 263.43C519.486 263.85 519.336 264.269 519.187 264.713C518.988 265.257 518.789 265.799 518.591 266.318C518.441 266.738 518.267 267.157 518.118 267.576C517.919 268.12 517.696 268.662 517.472 269.181C517.298 269.6 517.149 269.995 516.975 270.415C516.751 270.958 516.527 271.476 516.279 272.019C516.104 272.414 515.93 272.809 515.756 273.228C515.508 273.747 515.284 274.29 515.035 274.808C514.861 275.203 514.663 275.598 514.488 275.993C514.24 276.511 513.991 277.029 513.718 277.572C513.519 277.967 513.32 278.337 513.141 278.732C512.868 279.25 512.619 279.769 512.345 280.262C512.147 280.657 511.948 281.027 511.724 281.422C511.475 281.891 511.202 282.36 510.953 282.854L409.287 224.608H526.695C526.695 224.731 526.695 224.83 526.695 224.953C526.671 225.398 526.646 225.916 526.621 226.434ZM507.125 289.197C506.801 289.69 506.503 290.184 506.18 290.653C505.956 290.998 505.708 291.368 505.484 291.714C505.161 292.208 504.837 292.676 504.489 293.17C504.241 293.516 503.992 293.861 503.768 294.207C503.42 294.676 503.097 295.145 502.749 295.638C502.5 295.984 502.252 296.33 502.003 296.675C501.655 297.144 501.307 297.613 500.959 298.082C500.71 298.427 500.437 298.748 500.188 299.094C499.84 299.562 499.467 300.006 499.119 300.451C498.846 300.772 498.567 301.117 498.319 301.438C497.946 301.882 497.573 302.327 497.202 302.771C496.928 303.092 496.655 303.413 496.381 303.758C496.008 304.202 495.635 304.647 495.237 305.066C494.963 305.387 494.665 305.708 494.392 306.029C493.994 306.448 493.621 306.893 493.223 307.312C492.924 307.633 492.651 307.929 492.353 308.25C491.954 308.669 491.556 309.089 491.159 309.509C490.86 309.805 490.562 310.126 490.263 310.422C489.865 310.842 489.443 311.236 489.044 311.656C488.746 311.952 488.423 312.248 488.125 312.545C487.701 312.939 487.304 313.334 486.881 313.729C486.558 314.025 486.259 314.321 485.936 314.593C485.513 314.988 485.091 315.358 484.667 315.753C484.344 316.049 484.021 316.32 483.698 316.617C483.275 316.987 482.827 317.382 482.405 317.752C482.081 318.048 481.733 318.32 481.385 318.591C480.937 318.961 480.514 319.307 480.067 319.677C479.719 319.949 479.37 320.22 479.047 320.491C478.599 320.837 478.152 321.207 477.704 321.553C477.356 321.824 477.008 322.095 476.66 322.342C476.212 322.688 475.764 323.034 475.292 323.354C474.944 323.626 474.57 323.873 474.222 324.144C473.775 324.465 473.302 324.81 472.829 325.131C472.457 325.378 472.084 325.65 471.71 325.897C471.238 326.217 470.79 326.538 470.318 326.834C469.945 327.081 469.572 327.328 469.199 327.575C468.726 327.871 468.254 328.192 467.781 328.488C467.408 328.735 467.01 328.957 466.637 329.204C466.264 329.426 465.891 329.673 465.518 329.895L406.825 229.001L508.492 287.247C508.318 287.543 508.144 287.814 507.97 288.11C507.572 288.456 507.348 288.827 507.125 289.197ZM458.529 333.72C458.032 333.967 457.56 334.239 457.062 334.486C456.639 334.708 456.217 334.905 455.794 335.102C455.296 335.349 454.799 335.596 454.301 335.818C453.879 336.016 453.456 336.213 453.008 336.41C452.511 336.632 452.014 336.879 451.516 337.101C451.068 337.299 450.646 337.472 450.198 337.669C449.701 337.891 449.203 338.113 448.706 338.311C448.258 338.508 447.811 338.681 447.363 338.854C446.865 339.051 446.368 339.273 445.846 339.471C445.398 339.643 444.926 339.816 444.478 339.989C443.981 340.187 443.458 340.359 442.961 340.557C442.488 340.73 442.041 340.877 441.568 341.05C441.071 341.223 440.549 341.396 440.051 341.569C439.579 341.717 439.106 341.865 438.634 342.038C438.136 342.21 437.614 342.358 437.116 342.531C436.644 342.679 436.147 342.827 435.649 342.951C435.152 343.099 434.63 343.247 434.132 343.395C433.635 343.543 433.138 343.667 432.64 343.79C432.143 343.938 431.62 344.061 431.098 344.209C430.601 344.333 430.079 344.456 429.581 344.58C429.084 344.703 428.562 344.827 428.064 344.95C427.542 345.073 427.019 345.172 426.497 345.295C426 345.394 425.477 345.517 424.98 345.616C424.458 345.715 423.935 345.814 423.388 345.912C422.891 346.011 422.393 346.11 421.871 346.209C421.324 346.308 420.802 346.382 420.255 346.48C419.757 346.554 419.26 346.653 418.738 346.727C418.19 346.801 417.643 346.875 417.072 346.949C416.574 347.023 416.077 347.097 415.58 347.146C415.007 347.22 414.435 347.27 413.863 347.344C413.391 347.393 412.894 347.467 412.421 347.517C411.824 347.566 411.202 347.615 410.605 347.69C410.158 347.739 409.685 347.764 409.237 347.813C408.591 347.862 407.969 347.887 407.323 347.936C406.9 347.961 406.452 347.986 406.029 348.01C405.358 348.035 404.661 348.06 403.99 348.084C403.592 348.109 403.194 348.109 402.796 348.134C402.573 348.134 402.348 348.134 402.149 348.134V231.617L460.842 332.511C460.469 332.708 460.096 332.931 459.723 333.128C459.35 333.301 458.928 333.498 458.529 333.72ZM395.136 348.035C394.465 348.01 393.768 347.986 393.097 347.961C392.674 347.936 392.226 347.912 391.804 347.887C391.157 347.838 390.51 347.813 389.889 347.764C389.416 347.739 388.969 347.69 388.521 347.64C387.924 347.591 387.302 347.541 386.706 347.467C386.208 347.418 385.736 347.368 385.263 347.294C384.691 347.22 384.119 347.171 383.547 347.097C383.05 347.047 382.552 346.949 382.055 346.899C381.508 346.825 380.936 346.751 380.388 346.677C379.891 346.604 379.394 346.505 378.871 346.431C378.324 346.332 377.802 346.258 377.255 346.159C376.758 346.061 376.26 345.962 375.738 345.863C375.216 345.764 374.668 345.665 374.146 345.567C373.649 345.468 373.126 345.345 372.629 345.246C372.107 345.147 371.585 345.024 371.062 344.901C370.565 344.777 370.043 344.654 369.545 344.53C369.048 344.407 368.526 344.283 368.028 344.16C367.506 344.036 367.009 343.889 366.487 343.741C365.989 343.617 365.492 343.469 364.994 343.346C364.472 343.198 363.975 343.049 363.477 342.901C362.98 342.753 362.507 342.63 362.01 342.482C361.487 342.334 360.99 342.161 360.493 341.988C360.02 341.84 359.548 341.692 359.075 341.519C358.553 341.346 358.056 341.173 357.558 341.001C357.085 340.828 356.638 340.68 356.166 340.508C355.668 340.335 355.146 340.137 354.648 339.94C354.201 339.767 353.728 339.594 353.281 339.421C352.783 339.224 352.286 339.027 351.763 338.805C351.316 338.632 350.868 338.434 350.421 338.261C349.923 338.064 349.426 337.842 348.929 337.62C348.481 337.423 348.033 337.25 347.61 337.052C347.113 336.83 346.615 336.608 346.118 336.361C345.695 336.164 345.272 335.966 344.825 335.769C344.327 335.522 343.83 335.3 343.333 335.053C342.91 334.856 342.487 334.634 342.064 334.436C341.567 334.189 341.094 333.942 340.597 333.671C340.174 333.449 339.776 333.251 339.353 333.029C338.981 332.832 338.607 332.634 338.234 332.412L396.927 231.518V348.035C396.703 348.035 396.479 348.035 396.28 348.035C395.932 348.084 395.534 348.06 395.136 348.035ZM331.52 328.488C331.047 328.192 330.574 327.871 330.102 327.575C329.729 327.328 329.356 327.081 328.983 326.834C328.51 326.513 328.062 326.217 327.59 325.897C327.217 325.65 326.844 325.403 326.471 325.131C325.999 324.81 325.551 324.465 325.078 324.144C324.73 323.897 324.357 323.626 324.009 323.354C323.561 323.009 323.089 322.664 322.641 322.342C322.293 322.071 321.945 321.824 321.597 321.553C321.149 321.207 320.701 320.862 320.254 320.491C319.905 320.22 319.557 319.949 319.234 319.677C318.786 319.307 318.363 318.961 317.916 318.591C317.568 318.32 317.244 318.023 316.896 317.752C316.448 317.382 316.026 317.012 315.603 316.617C315.279 316.32 314.956 316.049 314.633 315.753C314.21 315.358 313.787 314.988 313.365 314.593C313.041 314.297 312.743 314.001 312.419 313.729C311.997 313.334 311.574 312.939 311.176 312.545C310.877 312.248 310.554 311.952 310.256 311.656C309.833 311.261 309.435 310.842 309.037 310.422C308.739 310.126 308.441 309.805 308.142 309.509C307.744 309.089 307.346 308.669 306.948 308.25C306.649 307.929 306.351 307.633 306.078 307.312C305.68 306.893 305.306 306.473 304.909 306.029C304.61 305.708 304.337 305.387 304.063 305.066C303.69 304.622 303.292 304.202 302.919 303.758C302.646 303.437 302.372 303.116 302.098 302.771C301.725 302.327 301.353 301.882 300.979 301.438C300.706 301.117 300.432 300.772 300.184 300.451C299.811 300.006 299.462 299.538 299.089 299.094C298.841 298.748 298.567 298.427 298.318 298.082C297.97 297.613 297.622 297.144 297.274 296.675C297.025 296.33 296.777 295.984 296.527 295.638C296.179 295.169 295.856 294.701 295.508 294.207C295.259 293.861 295.01 293.516 294.787 293.17C294.464 292.701 294.115 292.208 293.792 291.714C293.543 291.368 293.319 290.998 293.096 290.653C292.772 290.159 292.449 289.665 292.15 289.197C291.927 288.827 291.703 288.481 291.479 288.11C291.305 287.814 291.131 287.543 290.957 287.247L392.625 229.001L333.932 329.895C333.559 329.673 333.186 329.45 332.812 329.204C332.29 328.957 331.893 328.71 331.52 328.488ZM286.829 280.213C286.555 279.695 286.281 279.176 286.033 278.683C285.834 278.288 285.635 277.917 285.461 277.523C285.212 277.005 284.938 276.486 284.69 275.943C284.491 275.548 284.317 275.153 284.143 274.758C283.894 274.24 283.645 273.697 283.421 273.179C283.247 272.784 283.073 272.365 282.899 271.969C282.675 271.451 282.452 270.908 282.227 270.39C282.053 269.971 281.879 269.576 281.73 269.156C281.506 268.613 281.307 268.095 281.084 267.552C280.91 267.132 280.76 266.713 280.611 266.293C280.412 265.75 280.213 265.207 280.014 264.689C279.865 264.269 279.716 263.85 279.567 263.405C279.367 262.862 279.193 262.32 278.994 261.776C278.845 261.357 278.721 260.913 278.572 260.493C278.398 259.95 278.224 259.407 278.05 258.864C277.925 258.42 277.776 257.976 277.651 257.531C277.502 256.988 277.328 256.446 277.179 255.902C277.055 255.458 276.93 255.014 276.806 254.545C276.657 254.002 276.508 253.459 276.383 252.916C276.259 252.447 276.159 252.003 276.035 251.534C275.911 250.991 275.761 250.448 275.637 249.905C275.538 249.436 275.438 248.967 275.339 248.498C275.214 247.956 275.115 247.413 274.99 246.869C274.891 246.401 274.791 245.907 274.717 245.413C274.617 244.871 274.518 244.327 274.418 243.784C274.344 243.291 274.244 242.797 274.17 242.304C274.07 241.761 273.996 241.218 273.921 240.675C273.847 240.181 273.772 239.663 273.697 239.169C273.623 238.626 273.548 238.083 273.473 237.565C273.399 237.047 273.349 236.528 273.299 236.035C273.249 235.492 273.175 234.973 273.125 234.431C273.075 233.912 273.026 233.369 272.976 232.851C272.926 232.333 272.876 231.79 272.852 231.272C272.802 230.728 272.777 230.186 272.752 229.643C272.727 229.124 272.678 228.606 272.653 228.063C272.628 227.52 272.603 226.953 272.578 226.409C272.553 225.891 272.528 225.373 272.528 224.854C272.528 224.731 272.528 224.632 272.528 224.509H389.939L288.271 282.755C287.997 282.286 287.748 281.817 287.5 281.324C287.251 280.978 287.028 280.583 286.829 280.213ZM319.209 173.025V219.375H272.504V173.025H293.27H319.209ZM345.173 173.025H371.112V219.375H324.407V173.025H345.173ZM474.819 173.025V219.375H428.188V173.025H454.127H474.819ZM422.991 173.025V219.375H376.285V173.025H422.991ZM376.435 167.892C377.727 156.317 387.65 147.284 399.638 147.284C411.625 147.284 421.548 156.317 422.841 167.892H376.435ZM428.188 167.892H428.064C426.746 153.479 414.51 142.15 399.638 142.15C384.766 142.15 372.53 153.479 371.212 167.892H371.087H350.396C351.763 142.101 373.325 121.542 399.638 121.542C425.95 121.542 447.512 142.101 448.88 167.892H428.188ZM474.819 167.892H454.053C452.685 139.263 428.81 116.384 399.638 116.384C370.465 116.384 346.566 139.263 345.223 167.892H324.457C325.824 127.909 359.026 95.8004 399.663 95.8004C440.275 95.8004 473.476 127.909 474.819 167.892ZM526.72 5.667V133.783C510.68 79.1654 459.798 39.1338 399.663 39.1338C339.353 39.1338 288.346 79.3875 272.454 134.228V5.64235H526.72V5.667ZM526.72 219.375H480.067V173.025H506.006H526.695V219.375H526.72Z" fill="#161C3D"/>
<path d="M27.7864 492.044C19.0529 492.044 12.2465 490.324 7.34302 486.86C2.43955 483.397 0 479.086 0 473.927C0 467.799 3.1714 464.724 9.53861 464.724C9.63622 473.321 11.2463 479.788 14.369 484.172C17.4916 488.556 22.2975 490.736 28.7379 490.736C34.3732 490.736 38.9596 489.113 42.4481 485.867C45.9367 482.622 47.6687 477.778 47.6687 471.287C47.6687 467.339 46.9369 464.142 45.4732 461.696C44.0094 459.25 41.6674 457.021 38.4472 455.06C35.227 453.098 31.0066 450.918 25.8104 448.545C23.0781 447.237 20.2727 445.808 17.4184 444.282C14.5397 442.756 11.905 440.916 9.48984 438.76C7.0503 436.604 5.12306 434.013 3.65932 430.937C2.19559 427.861 1.46373 424.155 1.46373 419.771C1.46373 411.9 4.00084 405.893 9.0751 401.776C14.1493 397.659 20.9313 395.6 29.3965 395.6C34.5195 395.6 39.0083 396.303 42.8872 397.707C46.7661 399.112 49.7911 400.953 51.9625 403.229C54.1334 405.506 55.2069 408.001 55.2069 410.713C55.2069 413.256 54.2313 415.243 52.3041 416.696C50.352 418.149 47.8395 418.875 44.7657 418.875C44.7657 411.609 43.5703 406.136 41.2039 402.455C38.8132 398.773 34.8611 396.932 29.2989 396.932C24.1759 396.932 20.1019 398.458 17.0524 401.534C14.003 404.61 12.4905 409.115 12.4905 415.073C12.4905 419.36 13.2955 422.823 14.8812 425.463C16.4669 428.103 18.8577 430.355 22.0291 432.221C25.2005 434.11 29.2745 436.193 34.2024 438.469C38.618 440.479 42.692 442.586 46.449 444.767C50.2058 446.946 53.2309 449.732 55.5241 453.098C57.8173 456.464 58.9639 460.824 58.9639 466.177C58.9639 474.145 56.256 480.466 50.8159 485.092C45.3267 489.743 37.6666 492.044 27.7864 492.044Z" fill="#161C3D"/>
<path d="M94.0963 492.041C87.2898 492.041 81.972 490.322 78.0932 486.859C74.2138 483.395 72.2622 478.648 72.2622 472.593C72.2622 465.86 74.7508 460.822 79.7519 457.48C84.7286 454.162 92.2909 452.321 102.44 451.958L113.418 451.57V441.737C113.418 436.821 113.149 432.8 112.612 429.651C112.076 426.503 110.929 424.153 109.173 422.628C107.416 421.102 104.708 420.327 101.098 420.327C95.9749 420.327 92.7056 421.901 91.2423 425.05C89.7784 428.198 89.0465 433.163 89.0465 439.896C85.3382 439.896 82.5329 439.291 80.6544 438.055C78.7515 436.821 77.8003 434.81 77.8003 432.001C77.8003 428.852 78.8738 426.333 81.0447 424.444C83.2161 422.555 86.0701 421.175 89.6561 420.302C93.2182 419.431 97.2189 418.994 101.635 418.994C109.758 418.994 115.808 420.714 119.834 424.129C123.859 427.544 125.859 433.405 125.859 441.737V481.021C125.859 484.17 126.469 486.374 127.713 487.585C128.957 488.82 131.056 489.426 134.056 489.426H134.447V490.733H114.467V476.929H114.223C112.807 482.184 110.319 486.011 106.733 488.432C103.171 490.855 98.9512 492.041 94.0963 492.041ZM96.7555 490.201C100.024 490.201 102.903 489.377 105.416 487.706C107.929 486.035 109.905 483.807 111.295 480.997C112.71 478.188 113.418 475.185 113.418 471.939V453.023L104.952 453.411C97.4631 453.75 92.2666 455.47 89.4125 458.545C86.5336 461.621 85.1189 466.78 85.1189 474.046C85.0946 484.824 88.9734 490.201 96.7555 490.201Z" fill="#161C3D"/>
<path d="M141.885 490.734V489.426H143.617C147.496 489.426 150.277 488.626 151.96 487.053C153.643 485.478 154.473 482.887 154.473 479.302V402.429C154.473 398.747 153.643 396.131 151.96 394.533C150.277 392.959 147.496 392.16 143.617 392.16H141.885V390.875H166.891V478.648C166.891 482.499 167.72 485.26 169.403 486.931C171.086 488.603 173.868 489.426 177.746 489.426H179.478V490.734H141.885Z" fill="#161C3D"/>
<path d="M184.238 490.733V489.425H185.97C189.849 489.425 192.63 488.626 194.313 487.052C195.997 485.478 196.826 482.886 196.826 479.301V431.879C196.826 428.198 195.997 425.582 194.313 423.984C192.63 422.409 189.849 421.61 185.97 421.61H185.58V420.302H209.268V478.647C209.268 482.498 210.097 485.259 211.78 486.931C213.464 488.602 216.245 489.425 220.123 489.425H221.856V490.733H184.238ZM202.364 407.684C200.68 407.684 199.29 407.127 198.192 406.037C197.094 404.947 196.533 403.033 196.533 400.321C196.533 397.511 197.094 395.598 198.192 394.532C199.29 393.491 200.68 392.958 202.364 392.958C203.95 392.958 205.316 393.491 206.462 394.532C207.609 395.573 208.194 397.511 208.194 400.321C208.194 403.033 207.609 404.947 206.462 406.037C205.316 407.151 203.95 407.684 202.364 407.684Z" fill="#161C3D"/>
<path d="M227.247 490.736V489.428H228.295C232.345 489.428 235.175 488.556 236.761 486.788C238.346 485.044 239.152 481.896 239.152 477.318V433.456C239.152 429 238.395 425.899 236.907 424.204C235.395 422.485 232.638 421.637 228.564 421.637H227.905V420.329H251.471V432.681H251.74C252.886 428.66 254.594 425.657 256.838 423.672C259.083 421.71 261.522 420.426 264.108 419.869C266.718 419.312 269.109 419.021 271.329 419.021C279.184 419.021 285.039 421.056 288.869 425.125C292.699 429.194 294.627 435.757 294.627 444.767V477.342C294.627 481.896 295.334 485.044 296.749 486.812C298.164 488.556 300.774 489.452 304.556 489.452H305.215V490.76H282.185V440.286C282.185 434.595 281.112 429.944 278.941 426.359C276.769 422.775 273.135 420.983 268.011 420.983C263.864 420.983 260.595 422.073 258.229 424.277C255.838 426.456 254.155 429.291 253.13 432.754C252.105 436.217 251.618 439.826 251.618 443.604V477.342C251.618 481.896 252.374 485.044 253.862 486.812C255.35 488.556 258.131 489.452 262.205 489.452H262.864V490.76H227.247V490.736Z" fill="#161C3D"/>
<path d="M347.538 492.041C337.657 492.041 329.949 488.893 324.435 482.571C318.922 476.275 316.165 467.41 316.165 456.027C316.165 443.771 318.702 434.52 323.776 428.295C328.851 422.07 336.096 418.97 345.537 418.97C354.1 418.97 360.833 421.61 365.712 426.866C370.616 432.122 373.055 439.969 373.055 450.383V453.532H328.972C329.07 466.925 330.534 476.492 333.413 482.184C336.267 487.875 341.122 490.733 347.904 490.733C352.856 490.733 357.003 489.377 360.418 486.665C363.81 483.952 366.005 479.932 366.981 474.579C368.03 474.748 368.835 475.281 369.371 476.153C369.908 477.025 370.177 477.945 370.177 478.914C370.177 480.658 369.347 482.571 367.664 484.63C365.981 486.689 363.492 488.432 360.174 489.886C356.857 491.315 352.661 492.041 347.538 492.041ZM329.022 452.248H359.735C359.735 440.768 358.637 432.582 356.418 427.689C354.222 422.797 350.514 420.327 345.293 420.327C339.902 420.327 335.974 422.773 333.437 427.689C330.924 432.582 329.461 440.768 329.022 452.248Z" fill="#161C3D"/>
<path d="M412.532 490.733V489.426H414.264C418.143 489.426 420.924 488.626 422.608 487.052C424.291 485.478 425.12 482.886 425.12 479.302V431.879C425.12 428.198 424.291 425.582 422.608 423.984C420.924 422.409 418.143 421.61 414.264 421.61H413.874V420.302H437.44V433.429H437.709C438.318 431.153 439.245 428.924 440.49 426.72C441.734 424.541 443.588 422.7 446.051 421.198C448.516 419.721 451.907 418.97 456.249 418.97C460.567 418.97 463.934 419.818 466.3 421.538C468.691 423.257 469.862 425.631 469.862 428.707C469.862 431.347 468.91 433.526 467.008 435.27C465.105 437.014 461.958 437.91 457.542 437.91C457.542 432.485 456.615 428.731 454.761 426.672C452.907 424.613 450.833 423.596 448.54 423.596C445.978 423.596 443.954 424.493 442.441 426.285C440.929 428.077 439.831 430.402 439.123 433.26C438.416 436.118 437.977 439.048 437.806 442.052C437.635 445.079 437.538 447.864 437.538 450.383V478.624C437.538 482.474 438.367 485.236 440.05 486.907C441.734 488.578 444.515 489.401 448.394 489.401H450.126V490.71H412.532V490.733Z" fill="#161C3D"/>
<path d="M509.795 492.041C500.253 492.041 492.766 489.014 487.301 482.983C481.836 476.929 479.104 467.749 479.104 455.397C479.104 443.142 481.739 434.011 486.984 428.005C492.229 421.998 499.965 418.994 510.207 418.994C519.749 418.994 527.237 421.998 532.702 428.005C538.166 434.011 540.896 443.142 540.896 455.397C540.896 467.749 538.241 476.952 532.97 482.983C527.65 489.038 519.943 492.041 509.795 492.041ZM510.063 490.733C516.502 490.733 521.112 488.021 523.896 482.596C526.675 477.171 528.068 468.088 528.068 455.397C528.068 442.778 526.675 433.793 523.896 428.392C521.112 423.015 516.453 420.302 509.939 420.302C503.4 420.302 498.766 422.991 496.035 428.392C493.302 433.769 491.936 442.778 491.936 455.397C491.936 468.088 493.327 477.171 496.108 482.596C498.866 488.021 503.525 490.733 510.063 490.733Z" fill="#161C3D"/>
<path d="M550.557 522.274V520.967C556.728 520.967 561.73 520.505 565.583 519.586C569.417 518.666 572.465 517.215 574.707 515.252C576.955 513.289 578.854 510.745 580.391 507.624C581.932 504.523 583.538 500.816 585.224 496.529L556.241 428.859C555.097 426.05 553.973 424.161 552.874 423.143C551.775 422.126 550.388 421.642 548.703 421.642H546.042V420.334H577.805V421.642H577.417C574.951 421.642 572.977 422.005 571.535 422.756C570.073 423.507 569.342 424.839 569.342 426.752C569.342 428.254 569.879 430.264 570.929 432.807L582.32 460.273C583.638 463.518 585.055 467.102 586.566 471.05C588.053 474.998 589.296 478.462 590.276 481.44C591.419 478.025 592.518 474.78 593.592 471.729C594.641 468.652 595.541 465.988 596.252 463.712L605.908 433.631C606.714 431.257 607.107 429.295 607.107 427.721C607.107 423.701 604.203 421.666 598.37 421.666H592.811V420.359H620.328V421.666H619.279C616.012 421.666 613.645 422.32 612.203 423.628C610.741 424.936 609.299 427.697 607.912 431.911L588.59 491.298C586.566 497.595 584.562 502.779 582.638 506.799C580.684 510.819 578.442 513.97 575.881 516.271C573.32 518.547 570.123 520.117 566.294 520.992C562.461 521.862 557.633 522.299 551.8 522.299H550.557V522.274Z" fill="#161C3D"/>
<path d="M648.749 492.041C641.942 492.041 636.627 490.322 632.743 486.859C628.865 483.395 626.916 478.648 626.916 472.593C626.916 465.86 629.402 460.822 634.404 457.48C639.381 454.162 646.944 452.321 657.092 451.958L668.071 451.57V441.737C668.071 436.821 667.803 432.8 667.266 429.651C666.729 426.503 665.58 424.153 663.825 422.628C662.07 421.102 659.36 420.327 655.75 420.327C650.629 420.327 647.357 421.901 645.895 425.05C644.433 428.198 643.697 433.163 643.697 439.896C639.993 439.896 637.184 439.291 635.309 438.055C633.405 436.821 632.455 434.81 632.455 432.001C632.455 428.852 633.524 426.333 635.697 424.444C637.87 422.555 640.724 421.175 644.309 420.302C647.869 419.431 651.872 418.994 656.287 418.994C664.412 418.994 670.463 420.714 674.485 424.129C678.513 427.544 680.512 433.405 680.512 441.737V481.021C680.512 484.17 681.123 486.374 682.366 487.585C683.609 488.82 685.708 489.426 688.711 489.426H689.099V490.733H669.12V476.929H668.852C667.435 482.184 664.949 486.011 661.364 488.432C657.823 490.855 653.602 492.041 648.749 492.041ZM651.409 490.201C654.676 490.201 657.555 489.377 660.066 487.706C662.582 486.035 664.556 483.807 665.948 480.997C667.36 478.188 668.071 475.185 668.071 471.939V453.023L659.603 453.411C652.115 453.75 646.919 455.47 644.065 458.545C641.186 461.621 639.769 466.78 639.769 474.046C639.749 484.824 643.628 490.201 651.409 490.201Z" fill="#161C3D"/>
<path d="M696.538 490.734V489.426H698.268C702.146 489.426 704.931 488.626 706.611 487.053C708.297 485.478 709.127 482.887 709.127 479.302V402.429C709.127 398.747 708.297 396.131 706.611 394.533C704.931 392.959 702.146 392.16 698.268 392.16H696.538V390.875H721.543V478.648C721.543 482.499 722.373 485.26 724.054 486.931C725.74 488.603 728.519 489.426 732.397 489.426H734.133V490.734H696.538Z" fill="#161C3D"/>
<path d="M774.482 492.041C764.603 492.041 756.896 488.893 751.381 482.571C745.867 476.275 743.112 467.41 743.112 456.027C743.112 443.771 745.648 434.52 750.72 428.295C755.797 422.07 763.041 418.97 772.483 418.97C781.046 418.97 787.778 421.61 792.656 426.866C797.559 432.122 800 439.969 800 450.383V453.532H755.916C756.015 466.925 757.477 476.492 760.356 482.184C763.21 487.875 768.068 490.733 774.85 490.733C779.803 490.733 783.95 489.377 787.365 486.665C790.757 483.952 792.949 479.932 793.924 474.579C794.973 474.748 795.778 475.281 796.315 476.153C796.852 477.025 797.121 477.945 797.121 478.914C797.121 480.658 796.291 482.571 794.61 484.63C792.924 486.689 790.438 488.432 787.122 489.886C783.8 491.315 779.604 492.041 774.482 492.041ZM755.941 452.248H786.654C786.654 440.768 785.561 432.582 783.338 427.689C781.145 422.797 777.436 420.327 772.215 420.327C766.825 420.327 762.897 422.773 760.356 427.689C757.87 432.582 756.408 440.768 755.941 452.248Z" fill="#161C3D"/>
<path d="M177.759 544.557C185.346 544.557 191.005 546.49 194.689 550.342C198.398 554.193 200.251 560.296 200.251 568.605V615.641H194.568L193.104 603.819H192.835C190.445 607.769 187.541 610.94 184.102 613.34C180.662 615.736 175.856 616.948 169.684 616.948C163.414 616.948 158.438 615.278 154.729 611.959C151.022 608.639 149.167 603.774 149.167 597.378C149.167 590.451 151.827 585.148 157.169 581.491C162.512 577.808 170.343 575.751 180.662 575.314L192.713 574.663V569.792C192.713 562.865 191.445 557.995 188.883 555.137C186.322 552.305 182.541 550.878 177.49 550.878C174.149 550.878 170.879 551.336 167.708 552.255C164.537 553.179 161.39 554.511 158.316 556.275L155.803 550.222C158.974 548.553 162.414 547.196 166.122 546.152C169.831 545.114 173.709 544.557 177.759 544.557ZM192.713 580.422L181.735 580.959C173.441 581.297 167.245 582.822 163.146 585.486C159.048 588.15 156.998 592.17 156.998 597.497C156.998 601.786 158.267 605.056 160.78 607.282C163.293 609.514 166.757 610.627 171.172 610.627C177.954 610.627 183.248 608.57 187.054 604.45C190.835 600.335 192.738 594.546 192.738 587.111V580.422H192.713Z" fill="#161C3D"/>
<path d="M247.891 616.953C238.182 616.953 230.693 613.827 225.399 607.556C220.105 601.284 217.446 592.468 217.446 581.083C217.446 573.286 218.788 566.647 221.471 561.175C224.155 555.699 227.887 551.534 232.645 548.702C237.401 545.844 242.964 544.438 249.331 544.438C252.502 544.438 255.503 544.751 258.333 545.357C261.163 545.963 263.675 546.813 265.871 547.852L263.748 554.417C259.065 552.235 254.186 551.122 249.062 551.122C241.378 551.122 235.499 553.785 231.4 559.138C227.302 564.495 225.253 571.76 225.253 580.964C225.253 589.73 227.082 596.826 230.742 602.253C234.401 607.675 240.061 610.388 247.745 610.388C251.088 610.388 254.21 610.05 257.064 609.35C259.918 608.644 262.553 607.725 264.944 606.587V613.295C262.822 614.433 260.358 615.328 257.528 615.984C254.747 616.64 251.527 616.953 247.891 616.953Z" fill="#161C3D"/>
<path d="M304.155 544.557C311.743 544.557 317.378 546.49 321.086 550.342C324.794 554.193 326.648 560.296 326.648 568.605V615.641H320.964L319.5 603.819H319.232C316.841 607.769 313.938 610.94 310.499 613.34C307.059 615.736 302.253 616.948 296.081 616.948C289.811 616.948 284.834 615.278 281.126 611.959C277.418 608.639 275.564 603.774 275.564 597.378C275.564 590.451 278.223 585.148 283.566 581.491C288.909 577.808 296.739 575.751 307.059 575.314L319.11 574.663V569.792C319.11 562.865 317.842 557.995 315.28 555.137C312.718 552.305 308.937 550.878 303.887 550.878C300.545 550.878 297.276 551.336 294.105 552.255C290.933 553.179 287.786 554.511 284.712 556.275L282.2 550.222C285.371 548.553 288.811 547.196 292.519 546.152C296.227 545.089 300.106 544.557 304.155 544.557ZM319.11 580.422L308.132 580.959C299.838 581.297 293.641 582.822 289.543 585.486C285.444 588.15 283.395 592.17 283.395 597.497C283.395 601.786 284.664 605.056 287.176 607.282C289.689 609.514 293.153 610.627 297.569 610.627C304.351 610.627 309.644 608.57 313.45 604.45C317.231 600.335 319.134 594.546 319.134 587.111V580.422H319.11Z" fill="#161C3D"/>
<path d="M371.387 616.948C362.557 616.948 355.774 613.947 351.017 607.938C346.26 601.935 343.869 593.119 343.869 581.466C343.869 569.38 346.358 560.176 351.359 553.88C356.335 547.584 363.239 544.413 372.07 544.413C377.535 544.413 381.999 545.67 385.439 548.215C388.879 550.759 391.489 553.954 393.246 557.806H393.782C393.612 555.699 393.465 553.373 393.392 550.829C393.294 548.284 393.27 546.058 393.27 544.12V515.734H400.809V615.591H394.71L393.514 603.506H393.221C391.465 607.188 388.83 610.339 385.342 612.978C381.853 615.641 377.218 616.948 371.387 616.948ZM372.583 610.532C380.17 610.532 385.512 608.087 388.586 603.168C391.684 598.253 393.221 591.206 393.221 582.022V580.715C393.221 571.079 391.66 563.69 388.513 558.581C385.391 553.448 380.145 550.903 372.827 550.903C365.947 550.903 360.702 553.542 357.067 558.844C353.457 564.152 351.651 571.706 351.651 581.515C351.651 591.057 353.384 598.302 356.823 603.192C360.263 608.063 365.508 610.532 372.583 610.532Z" fill="#161C3D"/>
<path d="M447.476 544.438C453.111 544.438 457.893 545.819 461.772 548.582C465.65 551.34 468.554 555.117 470.505 559.938C472.457 564.758 473.409 570.279 473.409 576.506V581.759H426.301C426.399 590.962 428.448 598.039 432.448 602.979C436.474 607.918 442.231 610.413 449.72 610.413C453.868 610.413 457.478 610.075 460.576 609.369C463.675 608.669 467.017 607.436 470.627 605.692V612.52C467.358 614.096 464.089 615.234 460.845 615.934C457.576 616.64 453.795 616.978 449.452 616.978C439.475 616.978 431.839 613.777 426.496 607.387C421.153 600.991 418.494 592.274 418.494 581.227C418.494 574.131 419.641 567.809 421.934 562.239C424.227 556.668 427.521 552.309 431.79 549.159C436.084 546.013 441.304 544.438 447.476 544.438ZM447.476 550.734C441.475 550.734 436.62 552.891 432.912 557.18C429.204 561.463 427.033 567.566 426.423 575.438H465.602C465.504 568.078 464.016 562.119 461.113 557.567C458.21 553.01 453.648 550.734 447.476 550.734Z" fill="#161C3D"/>
<path d="M560.765 544.433C567.378 544.433 572.525 546.391 576.184 550.342C579.844 554.287 581.674 560.514 581.674 568.992V615.636H574.26V569.38C574.26 563.078 572.967 558.432 570.357 555.45C567.746 552.473 564.156 550.993 559.572 550.993C553.302 550.993 548.499 552.956 545.152 556.832C541.811 560.733 540.13 566.761 540.13 574.901V615.636H532.712V569.38C532.712 563.078 531.394 558.432 528.734 555.45C526.079 552.473 522.469 550.993 517.88 550.993C511.709 550.993 506.951 553.03 503.584 557.1C500.243 561.165 498.557 567.467 498.557 575.94V615.611H491.143V545.715H497.096L498.289 556.757H498.826C500.512 553.343 503.023 550.436 506.364 548.016C509.71 545.616 513.952 544.408 519.078 544.408C523.931 544.408 528.003 545.496 531.325 547.703C534.641 549.879 536.983 553.174 538.395 557.557H538.932C540.861 553.343 543.715 550.123 547.474 547.847C551.229 545.571 555.644 544.433 560.765 544.433Z" fill="#161C3D"/>
<path d="M591.872 545.745H600.071L615.559 589.243C616.977 593.094 618.17 596.533 619.125 599.56C620.099 602.586 620.855 605.274 621.367 607.65H621.755C622.292 605.637 623.028 603.048 624.002 599.897C624.977 596.752 626.125 593.238 627.443 589.387L642.663 545.769H650.862L621.074 628.164C618.876 634.292 616.171 639.037 612.999 642.427C609.826 645.796 605.585 647.491 600.29 647.491C598.604 647.491 597.142 647.371 595.849 647.103C594.581 646.835 593.358 646.522 592.215 646.184V639.887C594.338 640.662 596.705 641.075 599.36 641.075C602.9 641.075 605.729 639.932 607.902 637.656C610.07 635.38 612.024 631.916 613.779 627.27L617.876 615.447L591.872 545.745Z" fill="#161C3D"/>
</svg>
