<svg width="20" height="20" viewBox="0 0 20 20" fill="none" xmlns="http://www.w3.org/2000/svg">
<path d="M10.8 5.75C10.8 5.33579 10.4642 5 10.05 5C9.63579 5 9.3 5.33579 9.3 5.75V9.3H5.75C5.33579 9.3 5 9.63579 5 10.05C5 10.4642 5.33579 10.8 5.75 10.8H9.3V14.25C9.3 14.6642 9.63579 15 10.05 15C10.4642 15 10.8 14.6642 10.8 14.25V10.8H14.25C14.6642 10.8 15 10.4642 15 10.05C15 9.63579 14.6642 9.3 14.25 9.3H10.8V5.75Z" fill="#FDFCFA"/>
<path fill-rule="evenodd" clip-rule="evenodd" d="M20 10C20 15.5228 15.5228 20 10 20C4.47715 20 0 15.5228 0 10C0 4.47715 4.47715 0 10 0C15.5228 0 20 4.47715 20 10ZM18.5 10C18.5 14.6944 14.6944 18.5 10 18.5C5.30558 18.5 1.5 14.6944 1.5 10C1.5 5.30558 5.30558 1.5 10 1.5C14.6944 1.5 18.5 5.30558 18.5 10Z" fill="#FDFCFA"/>
</svg>
