<svg width="32" height="33" viewBox="0 0 32 33" fill="none" xmlns="http://www.w3.org/2000/svg">
<path d="M23.3333 18.8333H26.6667V23.8333H31.6667V27.1667H26.6667V32.1667H23.3333V27.1667H18.3333V23.8333H23.3333V18.8333ZM15 23.8333V20.5H6.66667V23.8333H15ZM23.3333 13.8333H6.66667V17.1667H19.4833C18.1043 18.0757 16.9727 19.3131 16.1902 20.7676C15.4077 22.2222 14.9987 23.8483 15 25.5C15 27.3167 15.4833 29.0333 16.3333 30.5H3.33333C2.44928 30.5 1.60143 30.1488 0.976311 29.5237C0.351189 28.8986 0 28.0507 0 27.1667V3.83333C0 1.98333 1.48333 0.5 3.33333 0.5H26.6667C27.5507 0.5 28.3986 0.851189 29.0237 1.47631C29.6488 2.10143 30 2.94928 30 3.83333V16.8333C28.5333 15.9833 26.8167 15.5 25 15.5L23.3333 15.6333V13.8333ZM23.3333 10.5V7.16667H6.66667V10.5H23.3333Z" fill="#FFCF00"/>
</svg>
