<svg width="12" height="22" viewBox="0 0 12 22" fill="none" xmlns="http://www.w3.org/2000/svg">
<path d="M7.00018 10V6.5L9.20018 4.29C10.0002 3.5 10.1502 2.24 9.59018 1.26C9.37674 0.879517 9.06622 0.562439 8.69028 0.341092C8.31434 0.119745 7.88643 0.00204817 7.45018 0C7.24018 0 7.00018 0.03 6.81018 0.09C5.73018 0.38 5.00018 1.38 5.00018 2.5V5.74L1.86018 8.91C1.04509 9.74163 0.492128 10.7943 0.269915 11.9374C0.0477015 13.0804 0.166016 14.2636 0.610177 15.34C1.38018 17.24 3.06018 18.55 5.00018 18.89V19.5C5.00018 19.76 4.77018 20 4.50018 20H3.00018V22H4.50018C5.85018 22 7.00018 20.89 7.00018 19.5V19C9.03018 19 11.1602 17.08 11.1602 14.25C11.1602 11.95 9.24018 10 7.00018 10ZM7.00018 2.5C7.00018 2.27 7.11018 2.09 7.32018 2.03C7.54018 1.97 7.77018 2.06 7.88018 2.26C7.93674 2.35605 7.9596 2.46824 7.9451 2.57876C7.93061 2.68928 7.8796 2.79179 7.80018 2.87L7.00018 3.73V2.5ZM5.00018 10.5C4.03018 11.14 3.30018 12.24 3.04018 13.26L5.00018 13.78V16.83C4.42687 16.6763 3.89675 16.3924 3.45102 16.0004C3.00529 15.6084 2.65595 15.1189 2.43018 14.57C1.84018 13.11 2.16018 11.45 3.26018 10.33L5.00018 8.5V10.5ZM7.00018 17V11.94C8.17018 11.94 9.18018 13.04 9.18018 14.25C9.18018 16 7.91018 17 7.00018 17Z" fill="#020A33"/>
</svg>
